<svg width="98" height="25" viewBox="0 0 98 25" fill="none" xmlns="http://www.w3.org/2000/svg">
<path d="M58.301 18.2336L54.4556 9.20068H57.2454L59.6432 15.0065L62.056 9.20068H64.8458L60.0503 20.4052C59.7186 21.1793 59.2561 21.7372 58.663 22.079C58.0698 22.4309 57.4365 22.6068 56.7629 22.6068C56.1094 22.6068 55.4911 22.456 54.908 22.1544C54.335 21.8629 53.8223 21.4155 53.3699 20.8123L55.1946 18.9725C55.4459 19.3043 55.7224 19.5607 56.024 19.7416C56.3356 19.9326 56.6322 20.0281 56.9137 20.0281C57.1147 20.0281 57.2957 19.9729 57.4566 19.8623C57.6174 19.7517 57.7381 19.5959 57.8185 19.3948L58.301 18.2336Z" fill="#5A81FA"/>
<path d="M46.8789 9.20055H48.3869V5.65674H51.0259V9.20055H53.2728L52.9712 11.7792H51.0259V14.4484C51.0259 15.0114 51.0611 15.4186 51.1315 15.6699C51.2018 15.9112 51.3778 16.0318 51.6593 16.0318C51.8905 16.0318 52.1067 16.0016 52.3077 15.9413C52.5188 15.871 52.7199 15.7403 52.9109 15.5492L54.0268 17.7811C53.7152 18.0626 53.3533 18.2687 52.9411 18.3994C52.5389 18.5401 52.1117 18.6105 51.6593 18.6105C51.0259 18.6105 50.4981 18.5301 50.0759 18.3692C49.6536 18.2084 49.3168 17.957 49.0655 17.6152C48.8242 17.2834 48.6483 16.8562 48.5377 16.3334C48.4372 15.8106 48.3869 15.1873 48.3869 14.4635V11.7792H46.8789V9.20055Z" fill="#5A81FA"/>
<path d="M40.0119 18.5344C38.5441 18.5344 37.4182 18.1625 36.634 17.4185C35.8498 16.6846 35.4578 15.5385 35.4578 13.9803V9.19989H38.0968V13.9803C38.0968 14.6136 38.2627 15.1012 38.5944 15.443C38.9362 15.7848 39.5193 15.9557 40.3437 15.9557C41.0173 15.9557 41.5602 15.7647 41.9723 15.3827C42.3946 15.0007 42.6057 14.3874 42.6057 13.5429V9.19989H45.2447V18.3082H42.6057V17.3431C42.3142 17.7352 41.9422 18.0318 41.4898 18.2328C41.0374 18.4339 40.5448 18.5344 40.0119 18.5344Z" fill="#5A81FA"/>
<path d="M30.9251 18.309V17.4796C30.6336 17.8516 30.2566 18.1331 29.7941 18.3241C29.3417 18.5151 28.834 18.6106 28.271 18.6106C27.5472 18.6106 26.8988 18.495 26.3257 18.2638C25.7627 18.0426 25.2852 17.7209 24.8931 17.2987C24.501 16.8865 24.2045 16.3888 24.0034 15.8057C23.8023 15.2126 23.7018 14.5491 23.7018 13.8152C23.7018 12.9707 23.8224 12.2418 24.0637 11.6286C24.305 11.0153 24.6267 10.5127 25.0288 10.1206C25.431 9.72849 25.8984 9.44197 26.4313 9.26101C26.9641 9.06999 27.517 8.97449 28.0901 8.97449C28.6229 8.97449 29.1256 9.06497 29.5981 9.24593C30.0806 9.41684 30.4979 9.67822 30.8497 10.0301V9.20069H33.4887V18.309H30.9251ZM30.8497 13.8152C30.8497 13.0813 30.6487 12.5233 30.2465 12.1413C29.8444 11.7492 29.2915 11.5532 28.5877 11.5532C28.2861 11.5532 27.9996 11.5984 27.7282 11.6889C27.4567 11.7794 27.2154 11.9201 27.0043 12.1111C26.8032 12.2921 26.6424 12.5283 26.5218 12.8199C26.4011 13.1014 26.3408 13.4332 26.3408 13.8152C26.3408 14.4686 26.5318 15.0015 26.9138 15.4137C27.3059 15.8258 27.8689 16.0319 28.6028 16.0319C29.2663 16.0319 29.8042 15.8409 30.2164 15.4589C30.6386 15.0668 30.8497 14.5189 30.8497 13.8152Z" fill="#5A81FA"/>
<path d="M22.2323 17.5394C21.8402 17.7505 21.4732 17.9214 21.1314 18.0521C20.7996 18.1929 20.4729 18.3035 20.1512 18.3839C19.8295 18.4744 19.5128 18.5347 19.2012 18.5648C18.8895 18.595 18.5678 18.6101 18.236 18.6101C17.4318 18.6101 16.6878 18.5246 16.0042 18.3537C15.3206 18.1929 14.7324 17.9214 14.2398 17.5394C13.7472 17.1674 13.3602 16.6798 13.0787 16.0766C12.8072 15.4734 12.6715 14.7295 12.6715 13.8448C12.6715 13.0908 12.7871 12.4122 13.0183 11.809C13.2596 11.2058 13.5914 10.6981 14.0136 10.2859C14.4459 9.86366 14.9637 9.54195 15.5669 9.32077C16.1701 9.0996 16.8336 8.98901 17.5574 8.98901C18.1707 8.98901 18.7588 9.07447 19.3218 9.24537C19.8948 9.40623 20.3975 9.66259 20.8298 10.0145C21.2621 10.3563 21.6039 10.7936 21.8553 11.3264C22.1166 11.8592 22.2473 12.4926 22.2473 13.2265V14.9456H15.4915C15.6925 15.4181 16.0293 15.7449 16.5018 15.9258C16.9844 16.0967 17.5675 16.1822 18.2511 16.1822C18.7337 16.1822 19.2162 16.1219 19.6988 16.0012C20.1814 15.8806 20.7092 15.6745 21.2822 15.3829L22.2323 17.5394ZM17.6328 11.4169C17.2106 11.427 16.8034 11.5275 16.4114 11.7185C16.0293 11.8995 15.7378 12.2161 15.5367 12.6685H19.5782C19.548 12.4976 19.4776 12.3368 19.367 12.186C19.2565 12.0352 19.1157 11.9045 18.9448 11.7939C18.7739 11.6733 18.5779 11.5828 18.3567 11.5225C18.1355 11.4521 17.8942 11.4169 17.6328 11.4169Z" fill="#5A81FA"/>
<path d="M10.5674 9.44197C10.5674 9.95469 10.5071 10.4071 10.3864 10.7992C10.2758 11.1812 10.125 11.518 9.93402 11.8095C10.3362 12.0709 10.6428 12.4278 10.8539 12.8802C11.065 13.3226 11.1706 13.8906 11.1706 14.5843C11.1706 15.2478 11.055 15.8259 10.8237 16.3185C10.5925 16.8211 10.2608 17.2434 9.82846 17.5852C9.40622 17.927 8.88847 18.1834 8.27522 18.3543C7.67202 18.5252 6.99341 18.6106 6.23941 18.6106C5.73674 18.6106 5.23408 18.5403 4.73141 18.3995C4.22874 18.2688 3.74115 18.0678 3.26865 17.7963V18.309H0.629639V5.58148H6.26957C6.90293 5.58148 7.481 5.65186 8.00378 5.7926C8.5366 5.93335 8.98901 6.15955 9.36098 6.4712C9.74301 6.7728 10.0396 7.16991 10.2507 7.66253C10.4618 8.15514 10.5674 8.74829 10.5674 9.44197ZM3.26865 14.8406C3.71099 15.293 4.17847 15.6047 4.67109 15.7756C5.17376 15.9465 5.69653 16.0319 6.23941 16.0319C6.9532 16.0319 7.51116 15.9163 7.9133 15.6851C8.32548 15.4539 8.53158 15.0869 8.53158 14.5843C8.53158 14.353 8.49639 14.157 8.42602 13.9961C8.35564 13.8252 8.22998 13.6895 8.04902 13.589C7.87811 13.4884 7.64688 13.4181 7.35534 13.3779C7.06379 13.3276 6.70187 13.3025 6.26957 13.3025H3.26865V14.8406ZM7.92838 9.44197C7.92838 9.19064 7.88314 8.98454 7.79266 8.82369C7.71223 8.66284 7.59662 8.53214 7.44582 8.43161C7.29501 8.33108 7.11908 8.2607 6.91801 8.22049C6.71695 8.18027 6.5008 8.16017 6.26957 8.16017H3.26865V10.7238H6.26957C6.5008 10.7238 6.71695 10.7037 6.91801 10.6635C7.11908 10.6232 7.29501 10.5579 7.44582 10.4674C7.59662 10.3669 7.71223 10.2362 7.79266 10.0753C7.88314 9.90443 7.92838 9.69331 7.92838 9.44197Z" fill="#5A81FA"/>
<path fill-rule="evenodd" clip-rule="evenodd" d="M93.5442 1.72558C93.5442 2.38577 93.0028 2.92095 92.335 2.92095C91.6671 2.92095 91.1258 2.38577 91.1258 1.72558C91.1258 1.0654 91.6671 0.530212 92.335 0.530212C93.0028 0.530212 93.5442 1.0654 93.5442 1.72558ZM72.438 21.2349C72.438 21.6193 72.1228 21.931 71.7338 21.931C71.3449 21.931 71.0297 21.6193 71.0297 21.2349C71.0297 20.8504 71.3449 20.5387 71.7338 20.5387C72.1228 20.5387 72.438 20.8504 72.438 21.2349ZM94.3855 12.9228C94.3855 14.5398 94.0387 16.0768 93.4147 17.465L93.3298 17.7819C93.3037 18.5877 93.4648 19.2747 94.0182 19.62L94.0403 19.6338L94.0405 19.634L94.0414 19.6345L94.0415 19.6346C94.1915 19.7293 94.5955 19.9844 95.0446 19.9826C95.1519 19.9694 95.2617 19.9645 95.3733 19.9688C96.4782 20.0113 97.339 20.9312 97.296 22.0234C97.2531 23.1157 96.3225 23.9667 95.2176 23.9242C94.5201 23.8974 93.9197 23.5208 93.5828 22.9719C93.5528 22.9248 93.5238 22.8727 93.4961 22.8152C93.4418 22.7054 93.3974 22.59 93.3642 22.4703C93.3455 22.4088 93.3276 22.3437 93.3107 22.2746C93.0889 21.3691 91.7329 20.6128 90.5189 21.348C88.5265 23.0733 85.9166 24.119 83.0597 24.119C76.8047 24.119 71.734 19.1063 71.734 12.9228C71.734 6.73932 76.8047 1.72662 83.0597 1.72662C89.3148 1.72662 94.3855 6.73932 94.3855 12.9228ZM88.4737 19.625C85.5897 21.8948 81.6992 22.0123 78.764 20.071C77.8783 19.5355 77.1153 18.9082 76.7598 18.4097C76.0026 17.2065 76.1937 15.9691 77.113 15.2456C77.4514 14.9793 77.7751 14.7472 78.5015 14.5397C79.2279 14.3321 81.0959 13.6585 81.8223 13.0868C83.6902 11.6167 84.5665 8.83208 83.0676 6.13396L83.0531 6.10792C82.9466 5.91625 82.8843 5.80399 82.8668 5.78184C82.6525 5.40755 82.6403 4.89485 82.9994 4.61219C83.5017 4.15508 85.4635 4.70456 86.1955 5.0999C87.5309 5.65005 88.7538 6.54743 89.718 7.77253C92.6365 11.4807 92.0793 16.7873 88.4737 19.625Z" fill="url(#paint0_linear_2_129)"/>
<defs>
<linearGradient id="paint0_linear_2_129" x1="82.0789" y1="-3.17981" x2="85.9781" y2="25.762" gradientUnits="userSpaceOnUse">
<stop stop-color="#AF65FF"/>
<stop offset="1" stop-color="#7899FF"/>
</linearGradient>
</defs>
</svg>
