<svg width="28" height="28" viewBox="0 0 28 28" fill="none" xmlns="http://www.w3.org/2000/svg">
<path d="M1.10004 6.79283C1.10004 4.27146 3.14401 2.22748 5.66539 2.22748H20.8715C23.3929 2.22748 25.4369 4.27146 25.4369 6.79283V12.5346C25.4369 15.056 23.3929 17.1 20.8715 17.1H5.66539C3.14402 17.1 1.10004 15.056 1.10004 12.5346V6.79283Z" fill="white"/>
<path d="M10.2915 0.897477C10.47 0.474769 10.8842 0.200012 11.343 0.200012H15.5491C16.0098 0.200012 16.4254 0.477058 16.6026 0.902374L17.3416 2.67584C17.6548 3.42763 17.1025 4.25615 16.288 4.25615H10.5944C9.77767 4.25615 9.22527 3.42336 9.5429 2.67094L10.2915 0.897477Z" fill="white"/>
<path d="M18.0002 9.66411C18.0002 12.0909 15.9572 14.0583 13.4371 14.0583C10.9169 14.0583 8.8739 12.0909 8.8739 9.66411C8.8739 7.23729 10.9169 5.26996 13.4371 5.26996C15.9572 5.26996 18.0002 7.23729 18.0002 9.66411Z" fill="white"/>
<path fill-rule="evenodd" clip-rule="evenodd" d="M13.4371 12.3463C15.0732 12.3463 16.2882 11.0851 16.2882 9.66411C16.2882 8.24313 15.0732 6.98197 13.4371 6.98197C11.8009 6.98197 10.5859 8.24313 10.5859 9.66411C10.5859 11.0851 11.8009 12.3463 13.4371 12.3463ZM13.4371 14.0583C15.9572 14.0583 18.0002 12.0909 18.0002 9.66411C18.0002 7.23729 15.9572 5.26996 13.4371 5.26996C10.9169 5.26996 8.8739 7.23729 8.8739 9.66411C8.8739 12.0909 10.9169 14.0583 13.4371 14.0583Z" fill="#8A8683"/>
<circle cx="21.5486" cy="5.43908" r="1.18304" fill="#8A8782"/>
<path d="M0.200073 20.2399H3.76919C4.02927 20.2068 4.29338 20.2275 4.54514 20.3007C4.7969 20.3739 5.03096 20.4979 5.23283 20.6652C5.4347 20.8325 5.60007 21.0395 5.71871 21.2733C5.83735 21.5071 5.90673 21.7627 5.92255 22.0244C5.92971 22.3587 5.8389 22.6877 5.66132 22.971C5.48375 23.2543 5.22716 23.4794 4.9232 23.6186C5.29922 23.7551 5.6253 24.0018 5.8588 24.3266C6.09229 24.6513 6.22232 25.039 6.23188 25.4389C6.21511 25.7271 6.13861 26.0086 6.00724 26.2656C5.87586 26.5226 5.69247 26.7495 5.46872 26.9319C5.24497 27.1142 4.98574 27.2481 4.7075 27.3249C4.42926 27.4017 4.13809 27.4198 3.85247 27.3781H0.200073V20.2399ZM3.42417 23.119C3.99523 23.119 4.39973 22.7859 4.39973 22.3219C4.39973 21.8579 3.99523 21.5486 3.42417 21.5486H1.72289V23.119H3.42417ZM3.66211 26.0694C3.7917 26.0958 3.92552 26.0929 4.05389 26.0612C4.18226 26.0294 4.30197 25.9696 4.40436 25.8859C4.50674 25.8022 4.58925 25.6968 4.64591 25.5773C4.70256 25.4578 4.73195 25.3272 4.73195 25.195C4.73195 25.0628 4.70256 24.9322 4.64591 24.8127C4.58925 24.6932 4.50674 24.5878 4.40436 24.5041C4.30197 24.4205 4.18226 24.3606 4.05389 24.3288C3.92552 24.2971 3.7917 24.2943 3.66211 24.3206H1.72289V26.1051L3.66211 26.0694Z" fill="white"/>
<path d="M8.93181 21.619V23.0467H12.5009V24.4267H8.93181V25.9971H12.8935V27.3772H7.39709V20.239H12.8935V21.619H8.93181Z" fill="white"/>
<path d="M15.9032 21.619H13.6785V20.239H19.627V21.619H17.4379V27.3772H15.9032V21.619Z" fill="white"/>
<path d="M24.9332 26.247H21.7448L21.2927 27.3772H19.5795L22.4824 20.239H24.1956L27.1104 27.3772H25.3853L24.9332 26.247ZM24.3978 24.9145L23.339 22.309L22.2802 24.9145H24.3978Z" fill="white"/>
</svg>
