<svg width="97" height="112" viewBox="0 0 97 112" fill="none" xmlns="http://www.w3.org/2000/svg">
<rect x="0.82811" width="96" height="112" rx="20.0774" fill="#FFF238"/>
<path d="M32.6403 61.8717H31.0403V48.2183H32.6403V61.8717ZM27.947 59.3828C28.741 59.2642 29.4344 59.0568 30.027 58.7605V60.3072C29.5884 60.5442 28.9959 60.7339 28.2492 60.8761C27.5144 61.0065 26.7025 61.0717 25.8136 61.0717H20.7647V59.5428H22.2403V50.2272H20.8359V48.6983H29.3514V50.2272H27.947V59.3828ZM25.1025 59.5428C25.4225 59.5428 25.8433 59.5309 26.3647 59.5072V50.2272H23.8403V59.5428H25.1025ZM35.4473 55.4717V48.4494H37.0295V50.2983H45.0651V48.4494H46.6473V55.4717H35.4473ZM45.0651 51.7917H37.0295V53.9783H45.0651V51.7917ZM41.8651 58.4405V62.1917H40.2295V58.4405H34.5584V56.8939H47.5362V58.4405H41.8651ZM59.1965 61.8717V48.2183H60.8143V61.8717H59.1965ZM49.3654 61.0717V48.6983H56.761V61.0717H49.3654ZM55.161 50.2628H50.9654V59.4894H55.161V50.2628ZM75.248 56.7872H73.7191V52.9294H71.6924V56.645H70.1991V48.2894H71.6924V51.365H73.7191V48.2183H75.248V56.7872ZM63.1058 56.0583V48.4494H64.5636V50.7783H67.2836V48.4494H68.7413V56.0583H63.1058ZM67.2836 52.1294H64.5636V54.6894H67.2836V52.1294ZM75.248 57.4983V61.8894H73.6658V58.9383H63.7458V57.4983H75.248Z" fill="black"/>
</svg>
