<svg width="97" height="112" viewBox="0 0 97 112" fill="none" xmlns="http://www.w3.org/2000/svg">
<rect x="0.828125" width="96" height="112" rx="20.0774" fill="#4AF4FF"/>
<path d="M27.2972 52.0939C26.5742 53.125 25.6735 53.9428 24.595 54.5472C23.5283 55.1517 22.4201 55.4598 21.2705 55.4717V53.8717C22.1831 53.8717 23.0601 53.6168 23.9016 53.1072C24.755 52.5976 25.4779 51.9042 26.0705 51.0272C26.6631 50.1383 27.0483 49.1605 27.2261 48.0939L28.8794 48.3783C28.7372 49.1605 28.4705 49.9665 28.0794 50.7961L33.6616 54.0494L32.8972 55.4539L27.2972 52.0939ZM28.275 58.4405V62.1917H26.6394V58.4405H20.9683V56.8761H33.9461V58.4405H28.275ZM35.9709 54.1205V48.2894H37.5531V49.8717H45.5353V48.2894H47.1175V54.1205H35.9709ZM45.5353 51.1517H37.5531V52.805H45.5353V51.1517ZM48.0242 56.8405H42.3353V58.9205H40.7353V56.8405H35.0464V55.4183H48.0242V56.8405ZM47.3664 60.2894V61.7117H35.9353V58.0317H37.5709V60.2894H47.3664ZM49.9779 49.765V48.3605H61.1779V52.9828H59.5601V49.765H49.9779ZM62.1023 55.3117H49.1245V53.925H53.9423V51.3117H55.5601V53.925H62.1023V55.3117ZM55.6134 56.5383C57.3082 56.5383 58.6831 56.7576 59.7379 57.1961C60.8045 57.6228 61.3379 58.2924 61.3379 59.205C61.3379 60.1176 60.8105 60.7931 59.7556 61.2317C58.7008 61.6702 57.3201 61.8894 55.6134 61.8894C53.9186 61.8894 52.5379 61.6702 51.4712 61.2317C50.4164 60.7931 49.889 60.1176 49.889 59.205C49.889 58.2805 50.4164 57.605 51.4712 57.1783C52.526 56.7517 53.9068 56.5383 55.6134 56.5383ZM55.6134 60.5561C56.7512 60.5561 57.7053 60.4435 58.4756 60.2183C59.2579 59.9813 59.649 59.6435 59.649 59.205C59.649 58.7783 59.2579 58.4524 58.4756 58.2272C57.6934 57.9902 56.7394 57.8717 55.6134 57.8717C54.4638 57.8717 53.5038 57.9842 52.7334 58.2094C51.9631 58.4228 51.5779 58.7546 51.5779 59.205C51.5779 59.6435 51.9631 59.9813 52.7334 60.2183C53.5156 60.4435 54.4756 60.5561 55.6134 60.5561ZM64.0916 49.7828V48.3605H75.256V52.7517H73.6204V49.7828H64.0916ZM76.1804 54.9383H63.2027V53.5339H76.1804V54.9383ZM75.2916 55.9339V61.7117H64.0916V55.9339H65.6738V57.4805H73.7271V55.9339H75.2916ZM73.7271 58.7428H65.6738V60.4317H73.7271V58.7428Z" fill="black"/>
</svg>
