<svg width="97" height="113" viewBox="0 0 97 113" fill="none" xmlns="http://www.w3.org/2000/svg">
<rect x="0.537689" y="0.812988" width="96" height="112" rx="20.0774" fill="#5F87FF"/>
<path d="M27.5786 54.1209C26.8557 55.152 25.9549 55.9698 24.8764 56.5743C23.8097 57.1787 22.7016 57.4868 21.552 57.4987V55.8987C22.4645 55.8987 23.3416 55.6439 24.1831 55.1343C25.0364 54.6246 25.7594 53.9313 26.352 53.0543C26.9445 52.1654 27.3297 51.1876 27.5075 50.1209L29.1608 50.4054C29.0186 51.1876 28.752 51.9935 28.3608 52.8231L33.9431 56.0765L33.1786 57.4809L27.5786 54.1209ZM28.5564 60.4676V64.2187H26.9208V60.4676H21.2497V58.9031H34.2275V60.4676H28.5564ZM36.2523 56.1476V50.3165H37.8345V51.8987H45.8167V50.3165H47.399V56.1476H36.2523ZM45.8167 53.1787H37.8345V54.832H45.8167V53.1787ZM48.3056 58.8676H42.6167V60.9476H41.0167V58.8676H35.3279V57.4454H48.3056V58.8676ZM47.6479 62.3165V63.7387H36.2167V60.0587H37.8523V62.3165H47.6479ZM62.3838 63.2587H49.406V61.6765H55.0771V58.6898H50.2593V50.6365H51.8415V53.0187H59.9482V50.6365H61.5304V58.6898H56.6949V61.6765H62.3838V63.2587ZM59.9482 57.1787V54.5298H51.8415V57.1787H59.9482ZM63.9286 53.4276V51.9342H69.1374V50.0676H70.773V51.9342H76.0174V53.4276H63.9286ZM76.4619 63.2587H63.4841V61.7476H69.173V59.7387C67.7508 59.6676 66.6189 59.4128 65.7774 58.9743C64.936 58.5239 64.5152 57.878 64.5152 57.0365C64.5152 56.112 65.013 55.4305 66.0086 54.992C67.0041 54.5417 68.3256 54.3165 69.973 54.3165C71.6204 54.3165 72.9419 54.5417 73.9374 54.992C74.933 55.4305 75.4308 56.112 75.4308 57.0365C75.4308 57.878 75.01 58.5239 74.1686 58.9743C73.3389 59.4128 72.213 59.6676 70.7908 59.7387V61.7476H76.4619V63.2587ZM66.1508 57.0365C66.1508 57.4868 66.4945 57.8187 67.1819 58.032C67.8811 58.2454 68.8115 58.352 69.973 58.352C71.1345 58.352 72.0589 58.2454 72.7463 58.032C73.4456 57.8187 73.7952 57.4868 73.7952 57.0365C73.7952 56.5861 73.4456 56.2543 72.7463 56.0409C72.0471 55.8276 71.1226 55.7209 69.973 55.7209C68.8234 55.7209 67.8989 55.8276 67.1997 56.0409C66.5004 56.2543 66.1508 56.5861 66.1508 57.0365Z" fill="black"/>
</svg>
