<svg width="97" height="112" viewBox="0 0 97 112" fill="none" xmlns="http://www.w3.org/2000/svg">
<rect x="0.828125" width="96" height="112" rx="20.0774" fill="#62FF56"/>
<path d="M31.9424 63.0857H30.3424V49.4324H31.9424V63.0857ZM27.249 60.5968C28.0431 60.4783 28.7364 60.2709 29.329 59.9746V61.5213C28.8905 61.7583 28.2979 61.9479 27.5512 62.0902C26.8164 62.2205 26.0046 62.2857 25.1157 62.2857H20.0668V60.7568H21.5424V51.4413H20.1379V49.9124H28.6535V51.4413H27.249V60.5968ZM24.4046 60.7568C24.7246 60.7568 25.1453 60.745 25.6668 60.7213V51.4413H23.1424V60.7568H24.4046ZM34.7494 56.6857V49.6635H36.3316V51.5124H44.3671V49.6635H45.9494V56.6857H34.7494ZM44.3671 53.0057H36.3316V55.1924H44.3671V53.0057ZM41.1671 59.6546V63.4057H39.5316V59.6546H33.8605V58.1079H46.8383V59.6546H41.1671ZM62.0142 59.5657V49.4324H63.632V59.5657H62.0142ZM56.1476 54.4813C55.6853 55.3464 55.0809 56.0457 54.3342 56.579C53.5876 57.1005 52.7402 57.4146 51.792 57.5213V55.9746C52.8468 55.8205 53.7002 55.3168 54.352 54.4635C55.0039 53.5983 55.3713 52.5139 55.4542 51.2102H51.952V49.7524H60.3609V51.2102H57.072C57.0602 51.8739 56.9594 52.502 56.7698 53.0946L60.7698 56.1702L59.8809 57.4146L56.1476 54.4813ZM63.952 62.9257H52.5565V58.5346H54.1742V61.3968H63.952V62.9257ZM76.199 49.4324H77.799V57.0946H76.199V53.4146H73.7457V51.9568H76.199V49.4324ZM70.1012 54.0368C69.639 54.7953 69.0405 55.4057 68.3057 55.8679C67.5709 56.3302 66.7353 56.6146 65.799 56.7213V55.2102C66.8301 55.0679 67.6598 54.6413 68.2879 53.9302C68.9279 53.2072 69.2953 52.2946 69.3901 51.1924H65.959V49.7524H74.2435V51.1924H71.0079C70.9724 51.7731 70.8775 52.2827 70.7235 52.7213L74.6879 55.3346L73.8879 56.5968L70.1012 54.0368ZM72.2524 57.5213C73.959 57.5213 75.3279 57.7464 76.359 58.1968C77.3901 58.6472 77.9057 59.3524 77.9057 60.3124C77.9057 61.2724 77.3901 61.9776 76.359 62.4279C75.3279 62.8783 73.959 63.1035 72.2524 63.1035C70.5575 63.1035 69.1946 62.8783 68.1635 62.4279C67.1442 61.9776 66.6346 61.2724 66.6346 60.3124C66.6346 59.3524 67.1442 58.6472 68.1635 58.1968C69.1946 57.7464 70.5575 57.5213 72.2524 57.5213ZM72.2524 61.7346C73.4138 61.7346 74.362 61.6161 75.0968 61.379C75.8316 61.1302 76.199 60.7746 76.199 60.3124C76.199 59.8502 75.8316 59.5005 75.0968 59.2635C74.362 59.0146 73.4138 58.8902 72.2524 58.8902C71.0909 58.8902 70.1487 59.0146 69.4257 59.2635C68.7027 59.5005 68.3412 59.8502 68.3412 60.3124C68.3412 60.7746 68.7027 61.1302 69.4257 61.379C70.1487 61.6161 71.0909 61.7346 72.2524 61.7346Z" fill="black"/>
</svg>
