<svg width="97" height="113" viewBox="0 0 97 113" fill="none" xmlns="http://www.w3.org/2000/svg">
<rect x="0.929077" y="0.11731" width="96" height="112" rx="20.0774" fill="#FF8EBB"/>
<path d="M33.8011 63.203H32.2011V49.5497H33.8011V63.203ZM29.1078 60.7141C29.9019 60.5956 30.5952 60.3882 31.1878 60.0919V61.6386C30.7493 61.8756 30.1567 62.0652 29.41 62.2075C28.6752 62.3378 27.8633 62.403 26.9745 62.403H21.9256V60.8741H23.4011V51.5586H21.9967V50.0297H30.5122V51.5586H29.1078V60.7141ZM26.2633 60.8741C26.5833 60.8741 27.0041 60.8623 27.5256 60.8386V51.5586H25.0011V60.8741H26.2633ZM36.6081 56.803V49.7808H38.1904V51.6297H46.2259V49.7808H47.8081V56.803H36.6081ZM46.2259 53.123H38.1904V55.3097H46.2259V53.123ZM43.0259 59.7719V63.523H41.3904V59.7719H35.7192V58.2252H48.697V59.7719H43.0259ZM63.3974 53.7097H61.6018V57.0875H60.0018V49.5497H61.6018V52.1097H63.3974V53.7097ZM54.3307 54.0475C53.8685 54.8297 53.264 55.4638 52.5174 55.9497C51.7707 56.4356 50.9233 56.726 49.9751 56.8208V55.3275C50.9944 55.1852 51.824 54.7526 52.464 54.0297C53.104 53.2949 53.4714 52.3882 53.5663 51.3097H50.1529V49.8697H58.4374V51.3097H55.184C55.1722 51.7956 55.0951 52.2815 54.9529 52.7675L58.8463 55.2741L58.064 56.5363L54.3307 54.0475ZM56.1974 57.5141C57.8803 57.5141 59.2314 57.7452 60.2507 58.2075C61.27 58.6697 61.7796 59.3867 61.7796 60.3586C61.7796 61.3423 61.27 62.0652 60.2507 62.5275C59.2314 62.9897 57.8803 63.2208 56.1974 63.2208C54.5144 63.2208 53.1633 62.9897 52.144 62.5275C51.1248 62.0652 50.6151 61.3423 50.6151 60.3586C50.6151 59.3867 51.1248 58.6697 52.144 58.2075C53.1633 57.7452 54.5144 57.5141 56.1974 57.5141ZM56.1974 61.8341C57.3351 61.8341 58.2655 61.7097 58.9885 61.4608C59.7114 61.2119 60.0729 60.8445 60.0729 60.3586C60.0729 59.8726 59.7114 59.5112 58.9885 59.2741C58.2774 59.0252 57.347 58.9008 56.1974 58.9008C55.0477 58.9008 54.1114 59.0252 53.3885 59.2741C52.6774 59.5112 52.3218 59.8726 52.3218 60.3586C52.3218 60.8445 52.6774 61.2119 53.3885 61.4608C54.1114 61.7097 55.0477 61.8341 56.1974 61.8341ZM76.1422 57.923H74.5599V55.8608H72.4977V54.3675H74.5599V52.4297H72.4977V50.9363H74.5599V49.5497H76.1422V57.923ZM64.4088 57.1941V49.7808H65.9555V51.9675H70.2755V49.7808H71.8399V57.1941H64.4088ZM70.2755 53.3363H65.9555V55.7897H70.2755V53.3363ZM76.1422 58.6519V63.2208H74.5066V60.0919H64.9244V58.6519H76.1422Z" fill="black"/>
</svg>
