<svg width="95" height="25" viewBox="0 0 95 25" fill="none" xmlns="http://www.w3.org/2000/svg">
<path d="M84.7489 18.6126L79.1325 5.41934H83.2072L86.7092 13.8991L90.2333 5.41934H94.308L87.3039 21.7842C86.8193 22.9149 86.1439 23.7298 85.2776 24.2291C84.4112 24.743 83.4862 25 82.5024 25C81.5479 25 80.6449 24.7797 79.7932 24.3392C78.9563 23.9134 78.2074 23.2599 77.5466 22.3789L80.2117 19.6918C80.5788 20.1764 80.9826 20.5508 81.4231 20.8151C81.8783 21.0941 82.3115 21.2336 82.7226 21.2336C83.0163 21.2336 83.2806 21.1528 83.5155 20.9913C83.7505 20.8298 83.9267 20.6022 84.0441 20.3085L84.7489 18.6126Z" fill="#5A81FA"/>
<path d="M68.0654 5.41929H70.268V0.243317H74.1224V5.41929H77.4042L76.9637 9.18564H74.1224V13.0841C74.1224 13.9064 74.1738 14.5011 74.2766 14.8682C74.3794 15.2206 74.6363 15.3968 75.0475 15.3968C75.3852 15.3968 75.7009 15.3528 75.9946 15.2647C76.3029 15.1619 76.5966 14.971 76.8756 14.692L78.5055 17.9518C78.0503 18.3629 77.5217 18.6639 76.9196 18.8548C76.3323 19.0604 75.7083 19.1632 75.0475 19.1632C74.1224 19.1632 73.3515 19.0457 72.7348 18.8108C72.1181 18.5758 71.6262 18.2087 71.2591 17.7095C70.9067 17.2249 70.6497 16.6009 70.4882 15.8373C70.3414 15.0738 70.268 14.1634 70.268 13.1062V9.18564H68.0654V5.41929Z" fill="#5A81FA"/>
<path d="M58.0362 19.0523C55.8924 19.0523 54.2478 18.509 53.1025 17.4224C51.9572 16.3505 51.3845 14.6766 51.3845 12.4006V5.41855H55.239V12.4006C55.239 13.3257 55.4813 14.0378 55.9658 14.5371C56.4651 15.0363 57.3167 15.2859 58.5208 15.2859C59.5046 15.2859 60.2975 15.007 60.8995 14.449C61.5162 13.891 61.8246 12.9953 61.8246 11.7619V5.41855H65.679V18.7219H61.8246V17.3123C61.3988 17.8849 60.8555 18.3181 60.1947 18.6118C59.5339 18.9055 58.8144 19.0523 58.0362 19.0523Z" fill="#5A81FA"/>
<path d="M44.7643 18.7228V17.5114C44.3385 18.0547 43.7878 18.4658 43.1124 18.7448C42.4516 19.0238 41.7101 19.1633 40.8878 19.1633C39.8306 19.1633 38.8835 18.9944 38.0465 18.6567C37.2243 18.3337 36.5268 17.8638 35.9541 17.2471C35.3815 16.6451 34.9483 15.9182 34.6546 15.0666C34.3609 14.2002 34.2141 13.2311 34.2141 12.1592C34.2141 10.9258 34.3903 9.86123 34.7427 8.96553C35.0951 8.06982 35.565 7.33564 36.1523 6.76298C36.7397 6.19032 37.4225 5.77184 38.2007 5.50753C38.9789 5.22854 39.7865 5.08905 40.6235 5.08905C41.4017 5.08905 42.1359 5.2212 42.8261 5.48551C43.5309 5.73513 44.1402 6.1169 44.6542 6.63083V5.41943H48.5086V18.7228H44.7643ZM44.6542 12.1592C44.6542 11.0873 44.3605 10.2724 43.7732 9.71439C43.1858 9.14173 42.3782 8.8554 41.3504 8.8554C40.9098 8.8554 40.4914 8.92147 40.0949 9.05363C39.6984 9.18578 39.346 9.39135 39.0377 9.67034C38.744 9.93464 38.5091 10.2797 38.3329 10.7055C38.1567 11.1167 38.0686 11.6012 38.0686 12.1592C38.0686 13.1136 38.3476 13.8919 38.9055 14.4939C39.4782 15.0959 40.3005 15.397 41.3724 15.397C42.3415 15.397 43.1271 15.118 43.7291 14.56C44.3458 13.9873 44.6542 13.1871 44.6542 12.1592Z" fill="#5A81FA"/>
<path d="M32.0679 17.599C31.4952 17.9073 30.9593 18.1569 30.46 18.3478C29.9755 18.5534 29.4983 18.7149 29.0284 18.8324C28.5585 18.9645 28.096 19.0526 27.6408 19.0967C27.1856 19.1407 26.7157 19.1628 26.2311 19.1628C25.0565 19.1628 23.9699 19.0379 22.9714 18.7883C21.9729 18.5534 21.1139 18.1569 20.3944 17.599C19.6749 17.0557 19.1096 16.3435 18.6984 15.4625C18.302 14.5815 18.1038 13.4949 18.1038 12.2027C18.1038 11.1015 18.2726 10.1103 18.6103 9.22929C18.9628 8.34827 19.4473 7.60675 20.064 7.00472C20.6954 6.38801 21.4516 5.91813 22.3326 5.59509C23.2137 5.27205 24.1828 5.11053 25.24 5.11053C26.1357 5.11053 26.9947 5.23535 27.817 5.48497C28.6539 5.71991 29.3881 6.09434 30.0195 6.60826C30.6509 7.10751 31.1502 7.74624 31.5172 8.52448C31.899 9.30271 32.0899 10.2278 32.0899 11.2997V13.8106H22.2225C22.5162 14.5007 23.0081 14.9779 23.6982 15.2422C24.403 15.4919 25.2547 15.6167 26.2532 15.6167C26.958 15.6167 27.6628 15.5286 28.3676 15.3524C29.0724 15.1762 29.8433 14.8751 30.6803 14.4493L32.0679 17.599ZM25.3501 8.65663C24.7334 8.67131 24.1387 8.81815 23.5661 9.09714C23.0081 9.36144 22.5823 9.82398 22.2886 10.4847H28.1914C28.1474 10.2351 28.0446 10.0002 27.883 9.77993C27.7215 9.55967 27.516 9.36878 27.2663 9.20726C27.0167 9.03106 26.7304 8.89891 26.4073 8.81081C26.0843 8.70802 25.7319 8.65663 25.3501 8.65663Z" fill="#5A81FA"/>
<path d="M15.0304 5.772C15.0304 6.52086 14.9423 7.18162 14.7661 7.75428C14.6046 8.31226 14.3843 8.80416 14.1053 9.22999C14.6927 9.61176 15.1405 10.133 15.4489 10.7938C15.7572 11.4399 15.9114 12.2695 15.9114 13.2827C15.9114 14.2518 15.7425 15.0961 15.4048 15.8156C15.0671 16.5498 14.5825 17.1665 13.9511 17.6657C13.3344 18.165 12.5782 18.5394 11.6825 18.789C10.8015 19.0386 9.81036 19.1635 8.70909 19.1635C7.97491 19.1635 7.24072 19.0607 6.50654 18.8551C5.77236 18.6642 5.06021 18.3705 4.37008 17.9741V18.723H0.515625V0.133484H8.75314C9.67821 0.133484 10.5225 0.236269 11.2861 0.44184C12.0643 0.647411 12.7251 0.977792 13.2684 1.43298C13.8263 1.87349 14.2595 2.4535 14.5679 3.17299C14.8762 3.89249 15.0304 4.75883 15.0304 5.772ZM4.37008 13.6571C5.01615 14.3179 5.69894 14.7731 6.41844 15.0227C7.15262 15.2723 7.91617 15.3971 8.70909 15.3971C9.75162 15.3971 10.5666 15.2282 11.1539 14.8905C11.7559 14.5528 12.057 14.0168 12.057 13.2827C12.057 12.9449 12.0056 12.6586 11.9028 12.4237C11.8 12.1741 11.6164 11.9758 11.3521 11.829C11.1025 11.6822 10.7648 11.5794 10.339 11.5206C9.91314 11.4472 9.38453 11.4105 8.75314 11.4105H4.37008V13.6571ZM11.1759 5.772C11.1759 5.4049 11.1099 5.10389 10.9777 4.86895C10.8602 4.63401 10.6914 4.44313 10.4711 4.29629C10.2509 4.14946 9.9939 4.04667 9.70023 3.98793C9.40656 3.9292 9.09086 3.89983 8.75314 3.89983H4.37008V7.64416H8.75314C9.09086 7.64416 9.40656 7.61479 9.70023 7.55606C9.9939 7.49732 10.2509 7.40188 10.4711 7.26972C10.6914 7.12289 10.8602 6.932 10.9777 6.69706C11.1099 6.44744 11.1759 6.13909 11.1759 5.772Z" fill="#5A81FA"/>
</svg>
