<svg width="94" height="84" viewBox="0 0 94 84" fill="none" xmlns="http://www.w3.org/2000/svg">
<path fill-rule="evenodd" clip-rule="evenodd" d="M80.2763 4.40145C80.2763 6.73787 78.3603 8.63191 75.9968 8.63191C73.6334 8.63191 71.7174 6.73787 71.7174 4.40145C71.7174 2.06503 73.6334 0.17099 75.9968 0.17099C78.3603 0.17099 80.2763 2.06503 80.2763 4.40145ZM5.58022 73.446C5.58022 74.8066 4.46445 75.9096 3.08808 75.9096C1.71171 75.9096 0.595947 74.8066 0.595947 73.446C0.595947 72.0854 1.71171 70.9824 3.08808 70.9824C4.46445 70.9824 5.58022 72.0854 5.58022 73.446ZM83.2523 44.0291C83.2523 49.7518 82.025 55.1913 79.8165 60.1042L79.516 61.2255C79.4238 64.0772 79.9939 66.5089 81.9525 67.7306C81.9758 67.7451 82.0018 67.7615 82.0305 67.7796L82.0315 67.7802L82.0346 67.7822L82.0347 67.7823C82.5658 68.1176 83.9955 69.0204 85.5849 69.0141C85.9647 68.9672 86.3532 68.9501 86.7481 68.9653C90.6584 69.1157 93.7049 72.3712 93.5528 76.2366C93.4007 80.1021 90.1075 83.1138 86.1973 82.9634C83.7285 82.8685 81.604 81.5357 80.4114 79.5932C80.3052 79.4266 80.2028 79.2421 80.1047 79.0387C79.9124 78.6502 79.7554 78.2418 79.6379 77.818C79.5716 77.6005 79.5085 77.3699 79.4487 77.1256C78.6637 73.9209 73.8646 71.2442 69.5684 73.8461C62.5169 79.9521 53.2806 83.6528 43.1699 83.6528C21.033 83.6528 3.08756 65.9126 3.08756 44.0291C3.08756 22.1455 21.033 4.40533 43.1699 4.40533C65.3068 4.40533 83.2523 22.1455 83.2523 44.0291ZM62.3301 67.7485C52.1236 75.7812 38.355 76.1972 27.9671 69.3268C24.8326 67.4317 22.1325 65.2117 20.8742 63.4474C18.1944 59.1894 18.8709 54.81 22.1242 52.2496C23.3217 51.3072 24.4674 50.4857 27.0382 49.7512C29.609 49.0166 36.2197 46.6328 38.7905 44.6095C45.4012 39.4068 48.5025 29.5519 43.1976 20.0031L43.1463 19.9106C42.7696 19.2325 42.5489 18.8353 42.4872 18.7569C41.7286 17.4323 41.6854 15.6178 42.9564 14.6175C44.7342 12.9997 51.6769 14.9444 54.2674 16.3435C58.9937 18.2905 63.3216 21.4664 66.7339 25.8021C77.0624 38.9255 75.0907 57.7056 62.3301 67.7485Z" fill="url(#paint0_linear_2_1087)"/>
<defs>
<linearGradient id="paint0_linear_2_1087" x1="39.6994" y1="-12.9589" x2="53.4989" y2="89.4673" gradientUnits="userSpaceOnUse">
<stop stop-color="#AF65FF"/>
<stop offset="1" stop-color="#7899FF"/>
</linearGradient>
</defs>
</svg>
