<svg width="378" height="36" viewBox="0 0 378 36" fill="none" xmlns="http://www.w3.org/2000/svg">
<path d="M83.0511 17.2987C83.8452 17.4883 84.4555 17.8498 84.8822 18.3831C85.3207 18.9046 85.54 19.5743 85.54 20.392C85.54 21.4705 85.1548 22.3002 84.3844 22.8809C83.6259 23.4498 82.5 23.7343 81.0066 23.7343H75.3889V11.2898H80.6689C82.02 11.2898 83.0629 11.5743 83.7977 12.1431C84.5444 12.7002 84.9177 13.4824 84.9177 14.4898C84.9177 15.1654 84.7518 15.7461 84.42 16.232C84.0881 16.7061 83.6318 17.0617 83.0511 17.2987ZM77.0422 16.7654H80.5089C81.3977 16.7654 82.0792 16.5935 82.5533 16.2498C83.0274 15.8943 83.2644 15.3787 83.2644 14.7031C83.2644 14.0276 83.0274 13.518 82.5533 13.1743C82.0792 12.8187 81.3977 12.6409 80.5089 12.6409H77.0422V16.7654ZM80.9177 22.3831C81.8896 22.3831 82.6244 22.2113 83.1222 21.8676C83.62 21.512 83.8689 20.9668 83.8689 20.232C83.8689 18.798 82.8852 18.0809 80.9177 18.0809H77.0422V22.3831H80.9177ZM95.989 23.7343H87.4201V11.2898H95.7579V12.712H89.0734V16.712H95.029V18.1165H89.0734V22.2943H95.989V23.7343ZM96.4914 12.7298V11.2898H106.251V12.7298H102.198V23.7343H100.563V12.7298H96.4914ZM108.099 20.5698L106.783 23.7343H105.059L110.428 11.2898H112.063L117.45 23.7343H115.69L114.374 20.5698H108.099ZM111.245 13.0498L108.632 19.2187H113.841L111.245 13.0498ZM133.043 17.7787V24.3387H131.443V10.6854H133.043V16.1609H134.838V17.7787H133.043ZM126.891 11.0587C126.868 13.2631 126.696 15.1594 126.376 16.7476L130.447 22.5431L129.149 23.5031L125.825 18.7031C125.363 20.1728 124.746 21.3283 123.976 22.1698C123.217 22.9994 122.34 23.4557 121.345 23.5387V21.832C122.163 21.6898 122.862 21.1328 123.443 20.1609C124.035 19.1772 124.48 17.8913 124.776 16.3031C125.084 14.715 125.244 12.9491 125.256 11.0054L126.891 11.0587ZM145.876 20.8187V10.6854H147.494V20.8187H145.876ZM140.01 15.7343C139.547 16.5994 138.943 17.2987 138.196 17.832C137.45 18.3535 136.602 18.6676 135.654 18.7743V17.2276C136.709 17.0735 137.562 16.5698 138.214 15.7165C138.866 14.8513 139.233 13.7668 139.316 12.4631H135.814V11.0054H144.223V12.4631H140.934C140.922 13.1268 140.821 13.755 140.632 14.3476L144.632 17.4231L143.743 18.6676L140.01 15.7343ZM147.814 24.1787H136.418V19.7876H138.036V22.6498H147.814V24.1787ZM165.159 18.8276H163.577V10.6854H165.159V18.8276ZM155.488 16.1431C154.943 17.5061 154.048 18.3061 152.803 18.5431V17.032C153.455 16.8068 153.923 16.3091 154.208 15.5387C154.492 14.7565 154.646 13.7194 154.67 12.4276H153.159V11.0054H157.39V12.4276H156.163C156.14 13.2809 156.08 14.0157 155.986 14.632L157.514 16.8365C158.048 16.5165 158.433 15.995 158.67 15.272C158.919 14.5372 159.061 13.5891 159.097 12.4276H157.977V11.0054H162.297V12.4276H160.59C160.554 13.2335 160.483 13.9565 160.377 14.5965L162.706 17.4231L161.674 18.3654L159.879 16.1076C159.334 17.4943 158.415 18.3061 157.123 18.5431L155.488 16.1431ZM165.159 19.5565V24.3565H163.523V21.0143H153.906V19.5565H165.159ZM167.77 12.712V11.1476H179.113V20.1609H177.459V12.712H167.77ZM179.966 23.6987H166.988V22.1165H171.77V16.0898H173.424V22.1165H179.966V23.6987ZM196.742 24.3387H195.142V10.6854H196.742V24.3387ZM192.049 21.8498C192.843 21.7313 193.536 21.5239 194.129 21.2276V22.7743C193.69 23.0113 193.097 23.2009 192.351 23.3431C191.616 23.4735 190.804 23.5387 189.915 23.5387H184.866V22.0098H186.342V12.6943H184.937V11.1654H193.453V12.6943H192.049V21.8498ZM189.204 22.0098C189.524 22.0098 189.945 21.998 190.466 21.9743V12.6943H187.942V22.0098H189.204ZM199.549 17.9387V10.9165H201.131V12.7654H209.167V10.9165H210.749V17.9387H199.549ZM209.167 14.2587H201.131V16.4454H209.167V14.2587ZM205.967 20.9076V24.6587H204.331V20.9076H198.66V19.3609H211.638V20.9076H205.967ZM228.058 17.7787V24.3387H226.458V10.6854H228.058V16.1609H229.854V17.7787H228.058ZM222.014 21.992C222.63 21.992 223.246 21.9328 223.863 21.8143C224.479 21.6957 224.983 21.5417 225.374 21.352V22.8809C224.994 23.0824 224.485 23.2424 223.845 23.3609C223.217 23.4794 222.589 23.5387 221.96 23.5387H216.858V11.1654H224.36V12.712H218.458V16.4809H224.129V18.0276H218.458V21.992H222.014ZM242.51 17.7787H240.892V10.6854H242.51V17.7787ZM238.67 14.2054C238.67 14.8809 238.504 15.4794 238.172 16.0009C237.84 16.5105 237.366 16.9076 236.75 17.192C236.133 17.4765 235.41 17.6187 234.581 17.6187C233.763 17.6187 233.046 17.4765 232.43 17.192C231.813 16.9076 231.339 16.5105 231.007 16.0009C230.676 15.4794 230.51 14.8809 230.51 14.2054C230.51 13.5417 230.676 12.955 231.007 12.4454C231.339 11.9239 231.813 11.5209 232.43 11.2365C233.046 10.952 233.763 10.8098 234.581 10.8098C235.399 10.8098 236.116 10.952 236.732 11.2365C237.36 11.5209 237.84 11.9239 238.172 12.4454C238.504 12.955 238.67 13.5417 238.67 14.2054ZM232.11 14.2054C232.11 14.8335 232.335 15.3313 232.785 15.6987C233.236 16.0543 233.834 16.232 234.581 16.232C235.339 16.232 235.944 16.0543 236.394 15.6987C236.844 15.3313 237.07 14.8335 237.07 14.2054C237.07 13.5772 236.844 13.0854 236.394 12.7298C235.944 12.3624 235.339 12.1787 234.581 12.1787C233.846 12.1787 233.247 12.3624 232.785 12.7298C232.335 13.0854 232.11 13.5772 232.11 14.2054ZM242.51 18.3654V24.1787H231.576V18.3654H233.159V19.8054H240.927V18.3654H242.51ZM240.927 21.1565H233.159V22.8098H240.927V21.1565ZM247.961 12.8898V11.6454H251.446V10.2943H253.081V11.6454H256.637V12.8898H247.961ZM259.766 15.8231V20.0543H258.166V10.6854H259.766V14.2587H261.526V15.8231H259.766ZM257.099 19.2543C256.708 19.432 256.139 19.5683 255.392 19.6631C254.646 19.7461 253.804 19.7876 252.868 19.7876H247.926V18.5076H251.481V17.5654C250.557 17.4824 249.834 17.2631 249.312 16.9076C248.803 16.552 248.548 16.0957 248.548 15.5387C248.548 14.8987 248.886 14.395 249.561 14.0276C250.249 13.6483 251.161 13.4587 252.299 13.4587C253.437 13.4587 254.343 13.6483 255.019 14.0276C255.694 14.395 256.032 14.8987 256.032 15.5387C256.032 16.0957 255.766 16.552 255.232 16.9076C254.711 17.2631 253.988 17.4824 253.063 17.5654V18.5076C254.983 18.4839 256.329 18.3061 257.099 17.9743V19.2543ZM250.041 15.5387C250.041 15.8113 250.243 16.0305 250.646 16.1965C251.06 16.3624 251.612 16.4454 252.299 16.4454C252.974 16.4454 253.514 16.3624 253.917 16.1965C254.32 16.0305 254.521 15.8113 254.521 15.5387C254.521 15.2661 254.32 15.0468 253.917 14.8809C253.514 14.715 252.974 14.632 252.299 14.632C251.612 14.632 251.06 14.715 250.646 14.8809C250.243 15.0468 250.041 15.2661 250.041 15.5387ZM259.766 20.7654V24.3565H258.148V22.0631H248.761V20.7654H259.766ZM272.564 20.8187V10.6854H274.181V20.8187H272.564ZM266.235 10.8098C267.064 10.8098 267.787 10.9817 268.404 11.3254C269.032 11.6572 269.512 12.1254 269.844 12.7298C270.187 13.3343 270.359 14.0217 270.359 14.792C270.359 15.5624 270.187 16.2498 269.844 16.8543C269.512 17.4587 269.032 17.9328 268.404 18.2765C267.787 18.6083 267.064 18.7743 266.235 18.7743C265.405 18.7743 264.676 18.6083 264.048 18.2765C263.432 17.9328 262.952 17.4587 262.608 16.8543C262.276 16.2498 262.11 15.5624 262.11 14.792C262.11 14.0217 262.276 13.3343 262.608 12.7298C262.952 12.1254 263.432 11.6572 264.048 11.3254C264.676 10.9817 265.405 10.8098 266.235 10.8098ZM266.235 12.232C265.476 12.232 264.866 12.4631 264.404 12.9254C263.953 13.3876 263.728 14.0098 263.728 14.792C263.728 15.5743 263.953 16.1965 264.404 16.6587C264.866 17.1209 265.476 17.352 266.235 17.352C266.993 17.352 267.604 17.1209 268.066 16.6587C268.528 16.1965 268.759 15.5743 268.759 14.792C268.759 14.0098 268.528 13.3876 268.066 12.9254C267.604 12.4631 266.993 12.232 266.235 12.232ZM274.501 22.6498V24.1787H263.248V19.6809H264.884V22.6498H274.501ZM284.793 12.7476V14.2943H276.384V12.7476H279.762V10.632H281.397V12.7476H284.793ZM287.886 17.7787V24.3387H286.286V10.6854H287.886V16.1609H289.682V17.7787H287.886ZM280.58 15.3431C281.279 15.3431 281.901 15.5209 282.446 15.8765C283.003 16.2202 283.436 16.712 283.744 17.352C284.052 17.9802 284.206 18.7031 284.206 19.5209C284.206 20.3387 284.052 21.0676 283.744 21.7076C283.436 22.3357 283.003 22.8276 282.446 23.1831C281.901 23.5268 281.279 23.6987 280.58 23.6987C279.88 23.6987 279.252 23.5268 278.695 23.1831C278.15 22.8276 277.723 22.3357 277.415 21.7076C277.107 21.0676 276.953 20.3387 276.953 19.5209C276.953 18.7031 277.107 17.9802 277.415 17.352C277.723 16.712 278.15 16.2202 278.695 15.8765C279.252 15.5209 279.88 15.3431 280.58 15.3431ZM280.58 22.2231C281.184 22.2231 281.682 21.9743 282.073 21.4765C282.464 20.9787 282.66 20.3268 282.66 19.5209C282.66 18.7031 282.464 18.0454 282.073 17.5476C281.682 17.0498 281.184 16.8009 280.58 16.8009C279.975 16.8009 279.477 17.0498 279.086 17.5476C278.695 18.0454 278.5 18.7031 278.5 19.5209C278.5 20.3268 278.695 20.9787 279.086 21.4765C279.477 21.9743 279.975 22.2231 280.58 22.2231ZM300.72 24.3387V10.6854H302.338V24.3387H300.72ZM298 14.4898C298 16.3031 297.704 17.8913 297.111 19.2543C296.53 20.6054 295.695 21.6543 294.604 22.4009C293.514 23.1357 292.234 23.5031 290.764 23.5031V21.9031C291.914 21.9031 292.91 21.6068 293.751 21.0143C294.593 20.4098 295.233 19.5565 295.671 18.4543C296.121 17.3402 296.347 16.0305 296.347 14.5254V12.6943H290.764V11.1654H298V14.4898Z" fill="#5A81FA"/>
<line x1="74.2719" y1="35.1343" x2="304.672" y2="35.1343" stroke="#5A81FA" stroke-width="1.6"/>
</svg>
