<svg width="321" height="239" viewBox="0 0 321 239" fill="none" xmlns="http://www.w3.org/2000/svg">
<g opacity="0.25">
<rect x="0.472656" y="54.3358" width="320" height="40" rx="20" fill="#C8E3FF"/>
<path d="M41.0337 80.8836H39.9059V68.5103H41.0337V80.8836ZM38.0854 68.5747V80.6741H36.9737V73.988H34.992V72.8441H36.9737V68.5747H38.0854ZM33.6387 68.8647C33.6172 70.9162 33.5259 72.6186 33.3648 73.9719L36.2326 79.4014L35.282 79.9491L33.0426 75.6958C32.7526 76.9847 32.3552 77.989 31.8504 78.7086C31.3563 79.4282 30.7118 79.8954 29.917 80.1103V78.8697C30.8622 78.5367 31.5281 77.5271 31.9148 75.8408C32.3015 74.1438 32.5002 71.8077 32.5109 68.8325L33.6387 68.8647ZM54.8392 72.7153H53.1314V77.7097H51.9714V68.5103H53.1314V71.5553H54.8392V72.7153ZM49.8609 72.2319C49.8609 72.9193 49.7105 73.5369 49.4098 74.0847C49.1198 74.6217 48.7009 75.046 48.1531 75.3575C47.6053 75.6582 46.9609 75.8086 46.2198 75.8086C45.4787 75.8086 44.8288 75.6582 44.2703 75.3575C43.7226 75.046 43.2983 74.6217 42.9976 74.0847C42.7076 73.5369 42.5626 72.9193 42.5626 72.2319C42.5626 71.5445 42.7076 70.9323 42.9976 70.3953C43.2983 69.8475 43.7226 69.4232 44.2703 69.1225C44.8288 68.811 45.4787 68.6553 46.2198 68.6553C46.9609 68.6553 47.6053 68.811 48.1531 69.1225C48.7009 69.4232 49.1198 69.8475 49.4098 70.3953C49.7105 70.9323 49.8609 71.5445 49.8609 72.2319ZM43.7548 72.2319C43.7548 73.0053 43.975 73.6229 44.4153 74.0847C44.8664 74.5358 45.4679 74.7614 46.2198 74.7614C46.9609 74.7614 47.557 74.5358 48.0081 74.0847C48.4592 73.6229 48.6848 73.0053 48.6848 72.2319C48.6848 71.4586 48.4592 70.841 48.0081 70.3791C47.557 69.9173 46.9609 69.6864 46.2198 69.6864C45.4679 69.6864 44.8664 69.9173 44.4153 70.3791C43.975 70.841 43.7548 71.4586 43.7548 72.2319ZM53.4859 79.5786V80.6903H43.5292V76.6947H44.7053V79.5786H53.4859ZM58.9419 70.9108V69.8475H63.743V68.2041H64.9191V69.8475H69.7524V70.9108H58.9419ZM59.5219 74.1169C59.5219 73.3543 59.9623 72.7797 60.843 72.393C61.7345 72.0064 62.9052 71.813 64.3552 71.813C65.8052 71.813 66.9706 72.0064 67.8513 72.393C68.7428 72.7797 69.1886 73.3543 69.1886 74.1169C69.1886 74.8688 68.7428 75.438 67.8513 75.8247C66.9598 76.2114 65.7945 76.4047 64.3552 76.4047C62.9052 76.4047 61.7345 76.2114 60.843 75.8247C59.9623 75.438 59.5219 74.8688 59.5219 74.1169ZM67.9963 74.1169C67.9963 73.6873 67.658 73.3651 66.9813 73.1503C66.3154 72.9354 65.44 72.828 64.3552 72.828C63.2597 72.828 62.3789 72.9354 61.713 73.1503C61.0471 73.3651 60.7141 73.6873 60.7141 74.1169C60.7141 74.5358 61.0471 74.8527 61.713 75.0675C62.3789 75.2823 63.2597 75.3897 64.3552 75.3897C65.44 75.3897 66.3154 75.2823 66.9813 75.0675C67.658 74.8527 67.9963 74.5358 67.9963 74.1169ZM64.9352 78.4508V81.1736H63.7591V78.4508H58.4908V77.3553H70.2197V78.4508H64.9352ZM85.3423 80.8836H84.1823V68.5103H85.3423V80.8836ZM81.1051 78.8697C81.9429 78.7408 82.6303 78.5314 83.1673 78.2414V79.3853C82.7592 79.6108 82.2007 79.788 81.4918 79.9169C80.7936 80.0458 80.0042 80.1103 79.1234 80.1103H74.6929V78.9986H76.159V70.1053H74.7573V68.9936H82.5068V70.1053H81.1051V78.8697ZM78.6884 78.9986C79.161 78.9986 79.5799 78.9825 79.9451 78.9503V70.1053H77.319V78.9986H78.6884ZM88.0473 75.0514V68.7519H89.1912V70.6208H96.9245V68.7519H98.0684V75.0514H88.0473ZM96.9245 71.7003H89.1912V73.9558H96.9245V71.7003ZM93.654 77.5808V81.1736H92.4617V77.5808H87.1934V76.453H98.9223V77.5808H93.654ZM110.537 74.7936V80.8836H109.377V68.5103H110.537V73.6336H112.244V74.7936H110.537ZM106.751 68.9936V71.8936C106.751 73.5262 106.498 74.9601 105.993 76.1953C105.489 77.4304 104.758 78.3864 103.802 79.063C102.846 79.7397 101.713 80.078 100.403 80.078V78.918C101.488 78.918 102.417 78.6334 103.19 78.0641C103.974 77.4949 104.57 76.684 104.978 75.6314C105.387 74.5788 105.591 73.349 105.591 71.9419V70.1053H100.403V68.9936H106.751ZM128.189 72.3125H126.481V75.3575H125.321V68.5103H126.481V71.1364H128.189V72.3125ZM124.387 74.0203C124.011 74.2029 123.474 74.3425 122.775 74.4391C122.077 74.5358 121.288 74.5841 120.407 74.5841H116.347V68.8486H123.517V69.8958H117.507V73.553H120.472C121.331 73.553 122.099 73.5047 122.775 73.408C123.463 73.3006 124 73.1556 124.387 72.973V74.0203ZM121.68 75.8086C123.173 75.8086 124.376 76.018 125.289 76.4369C126.202 76.8451 126.658 77.4788 126.658 78.338C126.658 79.1973 126.202 79.831 125.289 80.2391C124.376 80.6473 123.173 80.8514 121.68 80.8514C120.187 80.8514 118.984 80.6473 118.071 80.2391C117.158 79.831 116.702 79.1973 116.702 78.338C116.702 77.4788 117.158 76.8451 118.071 76.4369C118.984 76.018 120.187 75.8086 121.68 75.8086ZM121.68 79.8364C122.786 79.8364 123.688 79.7075 124.387 79.4497C125.085 79.1919 125.434 78.8214 125.434 78.338C125.434 77.844 125.085 77.468 124.387 77.2103C123.688 76.9525 122.786 76.8236 121.68 76.8236C120.574 76.8236 119.671 76.9525 118.973 77.2103C118.275 77.468 117.926 77.844 117.926 78.338C117.926 78.8214 118.275 79.1919 118.973 79.4497C119.671 79.7075 120.574 79.8364 121.68 79.8364ZM138.402 80.8836V68.5103H139.578V80.8836H138.402ZM135.711 71.8936C135.711 73.5369 135.448 74.9762 134.922 76.2114C134.395 77.4358 133.643 78.3864 132.666 79.063C131.699 79.7397 130.555 80.078 129.234 80.078V78.918C130.319 78.918 131.259 78.6334 132.054 78.0641C132.849 77.4949 133.455 76.6893 133.874 75.6475C134.304 74.5949 134.519 73.3597 134.519 71.9419V70.1053H129.234V68.9936H135.711V71.8936ZM152.4 72.1997V73.263H142.299V68.5264H143.459V72.1997H152.4ZM141.413 75.8408V74.7936H153.142V75.8408H141.413ZM152.513 79.643V80.7064H142.267V77.0491H143.443V79.643H152.513ZM168.248 74.7936V75.9375H158.179V68.8164H159.355V74.7936H168.248ZM157.357 80.2553V79.1114H169.086V80.2553H157.357ZM179.959 75.2447V68.5103H181.103V75.2447H179.959ZM173.918 70.1858C173.918 71.0451 173.762 71.8077 173.45 72.4736C173.15 73.1395 172.736 73.6604 172.21 74.0364C171.683 74.4123 171.093 74.611 170.438 74.6325V73.5853C170.867 73.5638 171.265 73.4241 171.63 73.1664C171.995 72.8979 172.28 72.5273 172.484 72.0547C172.698 71.5821 172.806 71.0343 172.806 70.4114V69.8797H170.438V68.8486H173.918V70.1858ZM178.155 70.2503C178.155 71.1954 177.978 72.0171 177.623 72.7153C177.269 73.4134 176.801 73.9451 176.221 74.3103C175.641 74.6754 175.013 74.8688 174.336 74.8903V73.8269C174.788 73.8054 175.217 73.6712 175.625 73.4241C176.044 73.1664 176.383 72.7904 176.64 72.2964C176.909 71.7916 177.043 71.1793 177.043 70.4597V69.8797H174.498V68.8486H178.155V70.2503ZM171.163 80.6903V75.9697H181.103V80.6903H171.163ZM179.943 77.0169H172.323V79.643H179.943V77.0169ZM192.621 80.8836V68.5103H193.797V80.8836H192.621ZM186.95 68.8325C188.024 68.8325 188.878 69.3158 189.511 70.2825C190.156 71.2491 190.478 72.6723 190.478 74.5519C190.478 76.4316 190.156 77.8547 189.511 78.8214C188.878 79.788 188.024 80.2714 186.95 80.2714C185.876 80.2714 185.016 79.788 184.372 78.8214C183.738 77.8547 183.421 76.4316 183.421 74.5519C183.421 72.6723 183.738 71.2491 184.372 70.2825C185.016 69.3158 185.876 68.8325 186.95 68.8325ZM186.95 69.9441C186.23 69.9441 185.655 70.3308 185.226 71.1041C184.796 71.8667 184.581 73.016 184.581 74.5519C184.581 76.0986 184.796 77.2532 185.226 78.0158C185.655 78.7784 186.23 79.1597 186.95 79.1597C187.648 79.1597 188.217 78.7784 188.657 78.0158C189.098 77.2425 189.318 76.0879 189.318 74.5519C189.318 73.0267 189.098 71.8775 188.657 71.1041C188.217 70.3308 187.648 69.9441 186.95 69.9441ZM200.8 70.1214V75.0836H209.87V76.2114H199.64V68.9936H209.741V70.1214H200.8ZM198.818 80.2553V79.1114H210.547V80.2553H198.818ZM222.161 74.7936V80.8836H221.001V68.5103H222.161V73.6336H223.869V74.7936H222.161ZM216.828 78.9825C217.387 78.9825 217.945 78.9288 218.504 78.8214C219.063 78.714 219.519 78.5743 219.873 78.4025V79.5141C219.53 79.7075 219.079 79.8579 218.52 79.9653C217.962 80.0619 217.392 80.1103 216.812 80.1103H212.172V68.913H213.348V78.9825H216.828ZM236.063 80.2553H224.335V79.1275H227.122V75.5991C226.424 75.2877 225.887 74.8688 225.511 74.3425C225.135 73.8054 224.947 73.1879 224.947 72.4897C224.947 71.7379 225.162 71.0827 225.591 70.5241C226.021 69.9656 226.633 69.536 227.428 69.2353C228.223 68.9238 229.146 68.768 230.199 68.768C231.252 68.768 232.175 68.9238 232.97 69.2353C233.765 69.536 234.377 69.9656 234.807 70.5241C235.236 71.0827 235.451 71.7379 235.451 72.4897C235.451 73.1879 235.263 73.8054 234.887 74.3425C234.511 74.8688 233.974 75.2877 233.276 75.5991V79.1275H236.063V80.2553ZM230.199 69.8797C229.393 69.8797 228.685 69.9871 228.072 70.2019C227.46 70.4167 226.987 70.7229 226.655 71.1203C226.322 71.5177 226.155 71.9741 226.155 72.4897C226.155 73.0053 226.322 73.4617 226.655 73.8591C226.987 74.2566 227.46 74.5627 228.072 74.7775C228.685 74.9923 229.393 75.0997 230.199 75.0997C231.005 75.0997 231.713 74.9923 232.326 74.7775C232.938 74.5627 233.41 74.2566 233.743 73.8591C234.076 73.4617 234.243 73.0053 234.243 72.4897C234.243 71.9741 234.076 71.5177 233.743 71.1203C233.41 70.7229 232.938 70.4167 232.326 70.2019C231.713 69.9871 231.005 69.8797 230.199 69.8797ZM232.116 79.1275V76.0019C231.504 76.1416 230.865 76.2114 230.199 76.2114C229.479 76.2114 228.84 76.1416 228.282 76.0019V79.1275H232.116ZM240.363 76.9686C240.363 76.5282 240.433 76.1416 240.573 75.8086C240.712 75.4756 240.884 75.1964 241.088 74.9708C241.292 74.7345 241.572 74.4553 241.926 74.133C242.377 73.7356 242.71 73.3812 242.925 73.0697C243.151 72.7582 243.263 72.3769 243.263 71.9258C243.263 71.3458 243.038 70.8786 242.587 70.5241C242.136 70.1697 241.507 69.9925 240.702 69.9925C239.381 69.9925 238.371 70.4329 237.673 71.3136L236.738 70.6853C237.179 70.1267 237.743 69.6971 238.43 69.3964C239.117 69.0849 239.912 68.9291 240.814 68.9291C241.942 68.9291 242.844 69.1869 243.521 69.7025C244.209 70.2073 244.552 70.8947 244.552 71.7647C244.552 72.2158 244.477 72.6132 244.327 72.9569C244.187 73.2899 244.01 73.5745 243.795 73.8108C243.591 74.0471 243.312 74.321 242.957 74.6325C242.495 75.0406 242.146 75.4112 241.91 75.7441C241.684 76.0771 241.577 76.4853 241.588 76.9686H240.363ZM240.976 80.4325C240.729 80.4325 240.519 80.3519 240.347 80.1908C240.175 80.019 240.089 79.8149 240.089 79.5786C240.089 79.3423 240.175 79.1436 240.347 78.9825C240.519 78.8106 240.729 78.7247 240.976 78.7247C241.223 78.7247 241.432 78.8106 241.604 78.9825C241.776 79.1436 241.862 79.3423 241.862 79.5786C241.862 79.8149 241.776 80.019 241.604 80.1908C241.432 80.3519 241.223 80.4325 240.976 80.4325Z" fill="#343434"/>
<rect x="0.472656" y="102.336" width="320" height="40" rx="20" fill="#FFF6A6"/>
<rect x="0.472656" y="150.336" width="320" height="40" rx="20" fill="#C4FFCB"/>
<rect x="0.472656" y="198.336" width="320" height="40" rx="20" fill="#FFD9FB"/>
<path d="M35.3465 120.329C34.788 121.091 34.0576 121.703 33.1554 122.165C32.2531 122.627 31.265 122.906 30.1909 123.003V121.875C31.4476 121.757 32.527 121.354 33.4292 120.667C34.3315 119.969 34.9007 119.072 35.137 117.976H30.4809V116.865H40.8242V117.976H36.3776C36.3131 118.47 36.1735 118.943 35.9587 119.394L41.1787 121.924L40.6793 122.939L35.3465 120.329ZM36.2165 125.565V129.174H35.0404V125.565H29.7881V124.437H41.517V125.565H36.2165ZM52.2937 128.884V116.51H53.4698V128.884H52.2937ZM49.6031 119.894C49.6031 121.537 49.34 122.976 48.8137 124.211C48.2874 125.436 47.5355 126.386 46.5581 127.063C45.5914 127.74 44.4476 128.078 43.1264 128.078V126.918C44.2113 126.918 45.1511 126.633 45.9459 126.064C46.7407 125.495 47.3476 124.689 47.7664 123.647C48.1961 122.595 48.4109 121.36 48.4109 119.942V118.105H43.1264V116.994H49.6031V119.894ZM66.2925 124.05H65.1325V120.49H62.732V119.426H65.1325V116.51H66.2925V124.05ZM59.397 120.892C59.0103 121.666 58.484 122.294 57.8181 122.777C57.1629 123.25 56.4057 123.54 55.5464 123.647V122.52C56.5775 122.359 57.3938 121.875 57.9953 121.07C58.5968 120.253 58.9297 119.206 58.9942 117.928H55.6914V116.865H63.2153V117.928H60.1542C60.122 118.583 60.0199 119.233 59.8481 119.877L63.5375 122.632L62.9092 123.551L59.397 120.892ZM66.2925 124.775V128.851H65.1164V125.855H56.2875V124.775H66.2925ZM73.9275 116.8C74.9801 116.8 75.9038 116.961 76.6986 117.284C77.4934 117.606 78.1056 118.062 78.5353 118.653C78.9649 119.244 79.1797 119.926 79.1797 120.699C79.1797 121.472 78.9649 122.155 78.5353 122.745C78.1056 123.325 77.4934 123.776 76.6986 124.099C75.9038 124.421 74.9801 124.582 73.9275 124.582C72.8749 124.582 71.9512 124.421 71.1564 124.099C70.3616 123.776 69.7493 123.325 69.3197 122.745C68.8901 122.155 68.6753 121.472 68.6753 120.699C68.6753 119.926 68.8901 119.244 69.3197 118.653C69.7493 118.062 70.3616 117.606 71.1564 117.284C71.9512 116.961 72.8749 116.8 73.9275 116.8ZM73.9275 117.912C73.1219 117.912 72.413 118.03 71.8008 118.266C71.1993 118.492 70.7321 118.814 70.3992 119.233C70.0662 119.652 69.8997 120.141 69.8997 120.699C69.8997 121.247 70.0662 121.73 70.3992 122.149C70.7321 122.568 71.1993 122.896 71.8008 123.132C72.413 123.357 73.1219 123.47 73.9275 123.47C74.733 123.47 75.4366 123.357 76.038 123.132C76.6503 122.896 77.1229 122.568 77.4558 122.149C77.7888 121.73 77.9553 121.247 77.9553 120.699C77.9553 120.141 77.7888 119.652 77.4558 119.233C77.1229 118.814 76.6503 118.492 76.038 118.266C75.4366 118.03 74.733 117.912 73.9275 117.912ZM68.063 128.255V127.111H79.7919V128.255H68.063ZM92.5502 128.255H80.8213V127.144H86.0736V124.598H81.6591V120.248H90.6008V118.089H81.643V116.994H91.7608V121.311H82.803V123.502H91.938V124.598H87.2336V127.144H92.5502V128.255ZM97.6035 124.824V116.994H107.689V118.089H98.7473V120.377H107.56V121.424H98.7473V123.744H107.882V124.824H97.6035ZM108.495 128.255H96.7657V127.127H108.495V128.255ZM120.528 128.884H119.368V122.826H116.983V121.634H119.368V116.51H120.528V128.884ZM114.68 126.999C115.238 126.999 115.791 126.945 116.339 126.837C116.897 126.73 117.359 126.59 117.725 126.419V127.514C117.37 127.707 116.914 127.858 116.355 127.965C115.797 128.062 115.222 128.11 114.631 128.11H110.185V121.94H114.986V118.105H110.152V116.994H116.146V123.035H111.345V126.999H114.68ZM123.168 120.876V116.607H124.312V117.815H131.981V116.607H133.141V120.876H123.168ZM131.981 118.717H124.312V119.958H131.981V118.717ZM134.011 122.939H122.282V121.972H134.011V122.939ZM133.383 127.836V128.706H123.136V125.984H132.046V124.936H123.104V124.066H133.173V126.757H124.264V127.836H133.383ZM144.788 128.884V116.51H145.964V128.884H144.788ZM139.117 116.832C140.191 116.832 141.045 117.316 141.678 118.282C142.323 119.249 142.645 120.672 142.645 122.552C142.645 124.432 142.323 125.855 141.678 126.821C141.045 127.788 140.191 128.271 139.117 128.271C138.043 128.271 137.183 127.788 136.539 126.821C135.905 125.855 135.588 124.432 135.588 122.552C135.588 120.672 135.905 119.249 136.539 118.282C137.183 117.316 138.043 116.832 139.117 116.832ZM139.117 117.944C138.397 117.944 137.822 118.331 137.393 119.104C136.963 119.867 136.748 121.016 136.748 122.552C136.748 124.099 136.963 125.253 137.393 126.016C137.822 126.778 138.397 127.16 139.117 127.16C139.815 127.16 140.384 126.778 140.824 126.016C141.265 125.242 141.485 124.088 141.485 122.552C141.485 121.027 141.265 119.877 140.824 119.104C140.384 118.331 139.815 117.944 139.117 117.944ZM162.714 122.858H150.985V121.907H156.269V120.941C154.905 120.898 153.804 120.699 152.967 120.345C152.129 119.98 151.71 119.437 151.71 118.717C151.71 117.955 152.183 117.396 153.128 117.042C154.084 116.677 155.324 116.494 156.849 116.494C158.375 116.494 159.61 116.677 160.555 117.042C161.5 117.396 161.973 117.955 161.973 118.717C161.973 119.437 161.554 119.98 160.716 120.345C159.889 120.699 158.793 120.898 157.429 120.941V121.907H162.714V122.858ZM152.918 118.717C152.918 119.147 153.283 119.469 154.014 119.684C154.755 119.888 155.7 119.99 156.849 119.99C157.988 119.99 158.922 119.888 159.653 119.684C160.394 119.469 160.764 119.147 160.764 118.717C160.764 118.288 160.394 117.971 159.653 117.767C158.922 117.552 157.988 117.445 156.849 117.445C155.711 117.445 154.771 117.552 154.03 117.767C153.289 117.971 152.918 118.288 152.918 118.717ZM162.085 127.804V128.706H151.839V125.887H160.732V124.807H151.807V123.921H161.876V126.66H152.967V127.804H162.085ZM174.328 122.794V128.884H173.168V116.51H174.328V121.634H176.036V122.794H174.328ZM168.995 126.999C169.554 126.999 170.112 126.945 170.671 126.837C171.23 126.73 171.686 126.59 172.04 126.419V127.514C171.697 127.707 171.246 127.858 170.687 127.965C170.129 128.062 169.559 128.11 168.979 128.11H164.323V121.907H169.64V118.105H164.291V116.994H170.8V123.003H165.483V126.999H168.995ZM188.23 128.255H176.502V127.111H181.77V124.276C180.835 124.222 180.014 124.034 179.305 123.712C178.607 123.379 178.064 122.944 177.678 122.407C177.302 121.859 177.114 121.236 177.114 120.538C177.114 119.786 177.329 119.126 177.758 118.556C178.199 117.987 178.811 117.547 179.595 117.235C180.39 116.924 181.313 116.768 182.366 116.768C183.419 116.768 184.337 116.924 185.121 117.235C185.916 117.547 186.528 117.987 186.958 118.556C187.398 119.126 187.618 119.786 187.618 120.538C187.618 121.236 187.425 121.859 187.038 122.407C186.662 122.944 186.12 123.379 185.411 123.712C184.702 124.034 183.88 124.222 182.946 124.276V127.111H188.23V128.255ZM178.322 120.538C178.322 121.064 178.489 121.526 178.822 121.924C179.154 122.321 179.627 122.632 180.239 122.858C180.852 123.073 181.56 123.18 182.366 123.18C183.172 123.18 183.88 123.073 184.493 122.858C185.105 122.632 185.577 122.321 185.91 121.924C186.243 121.526 186.41 121.064 186.41 120.538C186.41 120.012 186.243 119.55 185.91 119.152C185.577 118.744 185.105 118.433 184.493 118.218C183.88 117.992 183.172 117.88 182.366 117.88C181.56 117.88 180.852 117.992 180.239 118.218C179.627 118.433 179.154 118.744 178.822 119.152C178.489 119.55 178.322 120.012 178.322 120.538ZM199.845 122.794V128.884H198.685V116.51H199.845V121.634H201.553V122.794H199.845ZM194.512 126.982C195.071 126.982 195.629 126.929 196.188 126.821C196.746 126.714 197.203 126.574 197.557 126.402V127.514C197.213 127.707 196.762 127.858 196.204 127.965C195.645 128.062 195.076 128.11 194.496 128.11H189.856V116.913H191.032V126.982H194.512ZM213.747 128.255H202.018V127.127H204.805V123.599C204.107 123.288 203.57 122.869 203.194 122.342C202.818 121.805 202.63 121.188 202.63 120.49C202.63 119.738 202.845 119.083 203.275 118.524C203.704 117.966 204.317 117.536 205.111 117.235C205.906 116.924 206.83 116.768 207.883 116.768C208.935 116.768 209.859 116.924 210.654 117.235C211.448 117.536 212.061 117.966 212.49 118.524C212.92 119.083 213.135 119.738 213.135 120.49C213.135 121.188 212.947 121.805 212.571 122.342C212.195 122.869 211.658 123.288 210.96 123.599V127.127H213.747V128.255ZM207.883 117.88C207.077 117.88 206.368 117.987 205.756 118.202C205.144 118.417 204.671 118.723 204.338 119.12C204.005 119.518 203.839 119.974 203.839 120.49C203.839 121.005 204.005 121.462 204.338 121.859C204.671 122.257 205.144 122.563 205.756 122.777C206.368 122.992 207.077 123.1 207.883 123.1C208.688 123.1 209.397 122.992 210.009 122.777C210.621 122.563 211.094 122.257 211.427 121.859C211.76 121.462 211.926 121.005 211.926 120.49C211.926 119.974 211.76 119.518 211.427 119.12C211.094 118.723 210.621 118.417 210.009 118.202C209.397 117.987 208.688 117.88 207.883 117.88ZM209.8 127.127V124.002C209.188 124.142 208.548 124.211 207.883 124.211C207.163 124.211 206.524 124.142 205.965 124.002V127.127H209.8ZM218.047 124.969C218.047 124.528 218.117 124.142 218.256 123.809C218.396 123.476 218.568 123.196 218.772 122.971C218.976 122.735 219.255 122.455 219.61 122.133C220.061 121.736 220.394 121.381 220.609 121.07C220.834 120.758 220.947 120.377 220.947 119.926C220.947 119.346 220.721 118.879 220.27 118.524C219.819 118.17 219.191 117.992 218.385 117.992C217.064 117.992 216.055 118.433 215.356 119.314L214.422 118.685C214.862 118.127 215.426 117.697 216.114 117.396C216.801 117.085 217.596 116.929 218.498 116.929C219.626 116.929 220.528 117.187 221.205 117.702C221.892 118.207 222.236 118.895 222.236 119.765C222.236 120.216 222.161 120.613 222.01 120.957C221.871 121.29 221.693 121.575 221.479 121.811C221.275 122.047 220.995 122.321 220.641 122.632C220.179 123.041 219.83 123.411 219.594 123.744C219.368 124.077 219.261 124.485 219.271 124.969H218.047ZM218.659 128.432C218.412 128.432 218.203 128.352 218.031 128.191C217.859 128.019 217.773 127.815 217.773 127.579C217.773 127.342 217.859 127.144 218.031 126.982C218.203 126.811 218.412 126.725 218.659 126.725C218.906 126.725 219.116 126.811 219.288 126.982C219.459 127.144 219.545 127.342 219.545 127.579C219.545 127.815 219.459 128.019 219.288 128.191C219.116 128.352 218.906 128.432 218.659 128.432Z" fill="#343434"/>
<path d="M42.0809 168.119H40.3731V171.357H39.2131V164.51H40.3731V166.975H42.0809V168.119ZM33.7515 168.28C33.3326 169.043 32.7902 169.666 32.1242 170.149C31.4583 170.622 30.6957 170.928 29.8365 171.067V169.956C30.5883 169.805 31.2381 169.478 31.7859 168.973C32.3337 168.468 32.7526 167.84 33.0426 167.088C33.3326 166.336 33.4776 165.52 33.4776 164.639L34.6537 164.704C34.6537 165.638 34.5087 166.503 34.2187 167.297L37.9565 169.875L37.3604 170.777L33.7515 168.28ZM35.572 171.809C37.065 171.809 38.268 172.018 39.1809 172.437C40.0939 172.845 40.5504 173.479 40.5504 174.338C40.5504 175.197 40.0939 175.831 39.1809 176.239C38.268 176.647 37.065 176.851 35.572 176.851C34.0791 176.851 32.8761 176.647 31.9631 176.239C31.0502 175.831 30.5937 175.197 30.5937 174.338C30.5937 173.479 31.0502 172.845 31.9631 172.437C32.8761 172.018 34.0791 171.809 35.572 171.809ZM35.572 175.836C36.6783 175.836 37.5805 175.707 38.2787 175.45C38.9768 175.192 39.3259 174.821 39.3259 174.338C39.3259 173.844 38.9768 173.468 38.2787 173.21C37.5805 172.952 36.6783 172.824 35.572 172.824C34.4657 172.824 33.5635 172.952 32.8654 173.21C32.1672 173.468 31.8181 173.844 31.8181 174.338C31.8181 174.821 32.1672 175.192 32.8654 175.45C33.5635 175.707 34.4657 175.836 35.572 175.836ZM47.3798 167.652C47.3368 168.694 47.2294 169.666 47.0576 170.568L50.8759 175.321L50.0059 176.094L46.6709 171.905C46.2735 173.13 45.7418 174.107 45.0759 174.837C44.41 175.557 43.6366 175.981 42.7559 176.11V174.918C43.4326 174.778 44.0179 174.381 44.512 173.726C45.0168 173.071 45.4088 172.222 45.6881 171.18C45.9781 170.128 46.1553 168.952 46.2198 167.652H42.9653V166.524H46.2198V164.478H47.412V166.524H50.4892V167.652H47.3798ZM53.5503 176.884H52.3903V171.003H49.7642V169.843H52.3903V164.51H53.5503V176.884ZM65.8897 170.794V176.884H64.7297V164.51H65.8897V169.634H67.5975V170.794H65.8897ZM62.1036 164.994V167.894C62.1036 169.526 61.8512 170.96 61.3464 172.195C60.8416 173.43 60.1112 174.386 59.1553 175.063C58.1994 175.74 57.0662 176.078 55.7559 176.078V174.918C56.8407 174.918 57.7697 174.633 58.5431 174.064C59.3271 173.495 59.9233 172.684 60.3314 171.631C60.7396 170.579 60.9436 169.349 60.9436 167.942V166.105H55.7559V164.994H62.1036ZM81.8341 170.794V176.884H80.6741V164.51H81.8341V169.634H83.5419V170.794H81.8341ZM75.148 164.832C76.2006 164.832 77.0383 165.316 77.6613 166.282C78.295 167.249 78.6119 168.672 78.6119 170.552C78.6119 172.432 78.295 173.855 77.6613 174.821C77.0383 175.788 76.2006 176.271 75.148 176.271C74.0846 176.271 73.2361 175.788 72.6024 174.821C71.9794 173.855 71.668 172.432 71.668 170.552C71.668 168.672 71.9794 167.249 72.6024 166.282C73.2361 165.316 74.0846 164.832 75.148 164.832ZM75.148 175.16C75.8354 175.16 76.3885 174.778 76.8074 174.016C77.237 173.242 77.4519 172.088 77.4519 170.552C77.4519 169.016 77.237 167.867 76.8074 167.104C76.3885 166.331 75.8354 165.944 75.148 165.944C74.4391 165.944 73.8752 166.331 73.4563 167.104C73.0374 167.867 72.828 169.016 72.828 170.552C72.828 172.099 73.0374 173.253 73.4563 174.016C73.8752 174.778 74.4391 175.16 75.148 175.16ZM84.8935 168.683V164.687H94.8663V168.683H84.8935ZM86.0374 165.638V167.732H93.7063V165.638H86.0374ZM90.4518 171.921H94.8985V174.692H85.989V175.82H95.1079V176.706H84.8613V173.903H93.7546V172.807H84.829V171.921H89.2918V170.681H84.0074V169.73H95.7363V170.681H90.4518V171.921ZM104.563 170.214V169.118H106.626V167.072H104.563V165.976H106.626V164.51H107.77V173.726H106.626V170.214H104.563ZM97.3135 171.454V164.849H103.838V171.454H97.3135ZM98.4412 165.912V170.391H102.678V165.912H98.4412ZM108.043 176.69H97.8612V172.743H99.0373V175.579H108.043V176.69ZM120.528 176.884H119.368V170.23H116.226V169.086H119.368V164.51H120.528V176.884ZM114.357 164.865C114.336 166.615 114.218 168.167 114.003 169.521L117.741 175.466L116.79 176.142L113.648 171.051C113.262 172.577 112.73 173.78 112.053 174.66C111.377 175.53 110.577 176.014 109.653 176.11V174.886C110.415 174.746 111.06 174.215 111.586 173.291C112.112 172.367 112.505 171.175 112.762 169.714C113.031 168.243 113.17 166.615 113.181 164.832L114.357 164.865ZM136.714 172.147H135.602V168.538H133.395V172.018H132.299V164.575H133.395V167.394H135.602V164.51H136.714V172.147ZM128.578 168.876C127.966 170.466 126.934 171.422 125.484 171.744V170.6C127.235 170.106 128.111 168.125 128.111 164.655L129.238 164.687C129.238 165.837 129.147 166.836 128.964 167.684L131.768 170.842L130.978 171.599L128.578 168.876ZM136.714 172.872V176.851H135.554V173.935H126.435V172.872H136.714ZM143.93 168.425C143.253 169.542 142.432 170.428 141.465 171.084C140.498 171.739 139.494 172.066 138.452 172.066V170.906C139.301 170.906 140.117 170.627 140.901 170.069C141.685 169.499 142.356 168.731 142.915 167.765C143.484 166.798 143.876 165.735 144.091 164.575L145.283 164.816C145.111 165.729 144.832 166.605 144.446 167.442L149.633 171.148L149.005 172.099L143.93 168.425ZM149.956 175.111V176.255H138.227V175.111H143.495V171.486H144.671V175.111H149.956ZM155.061 168.925C154.664 169.601 154.137 170.155 153.482 170.584C152.838 171.014 152.107 171.288 151.291 171.406V170.326C152.204 170.176 152.956 169.779 153.547 169.134C154.148 168.49 154.519 167.69 154.658 166.734H151.404V165.702H154.69V164.285H155.867V165.702H159.073V166.734H155.85C155.786 167.206 155.684 167.625 155.544 167.99L159.266 170.342L158.702 171.277L155.061 168.925ZM161.908 171.696H160.732V164.51H161.908V171.696ZM161.908 172.421V176.69H152.032V172.421H161.908ZM160.748 175.675V173.436H153.176V175.675H160.748ZM167.723 169.215C167.347 169.924 166.831 170.498 166.176 170.939C165.521 171.379 164.769 171.658 163.92 171.776V170.697C164.876 170.525 165.644 170.112 166.224 169.456C166.804 168.801 167.148 167.942 167.255 166.879H164.033V165.815H167.255V164.285H168.432V165.815H171.605V166.879H168.432C168.399 167.426 168.313 167.877 168.174 168.232L171.815 170.745L171.235 171.68L167.723 169.215ZM174.328 168.699V172.115H173.168V164.51H174.328V167.539H176.036V168.699H174.328ZM174.328 172.84V176.851H173.152V173.903H164.468V172.84H174.328ZM186.249 176.884V164.51H187.425V176.884H186.249ZM180.578 164.832C181.652 164.832 182.506 165.316 183.139 166.282C183.784 167.249 184.106 168.672 184.106 170.552C184.106 172.432 183.784 173.855 183.139 174.821C182.506 175.788 181.652 176.271 180.578 176.271C179.504 176.271 178.644 175.788 178 174.821C177.366 173.855 177.049 172.432 177.049 170.552C177.049 168.672 177.366 167.249 178 166.282C178.644 165.316 179.504 164.832 180.578 164.832ZM180.578 165.944C179.858 165.944 179.283 166.331 178.854 167.104C178.424 167.867 178.209 169.016 178.209 170.552C178.209 172.099 178.424 173.253 178.854 174.016C179.283 174.778 179.858 175.16 180.578 175.16C181.276 175.16 181.845 174.778 182.285 174.016C182.726 173.242 182.946 172.088 182.946 170.552C182.946 169.027 182.726 167.877 182.285 167.104C181.845 166.331 181.276 165.944 180.578 165.944ZM199.277 171.341V164.575H200.373V166.927H202.58V164.51H203.691V171.744H202.58V168.055H200.373V171.341H199.277ZM195.588 168.522C194.965 170.069 193.923 171.008 192.462 171.341V170.214C194.213 169.677 195.088 167.824 195.088 164.655L196.216 164.687C196.216 165.665 196.135 166.556 195.974 167.362L198.794 170.181L198.036 170.987L195.588 168.522ZM198.665 172.034C200.19 172.034 201.436 172.227 202.403 172.614C203.38 173.001 203.869 173.613 203.869 174.451C203.869 175.289 203.385 175.901 202.419 176.287C201.452 176.663 200.201 176.851 198.665 176.851C197.129 176.851 195.878 176.663 194.911 176.287C193.955 175.901 193.477 175.289 193.477 174.451C193.477 173.613 193.96 173.001 194.927 172.614C195.894 172.227 197.14 172.034 198.665 172.034ZM198.665 175.836C199.793 175.836 200.738 175.729 201.5 175.514C202.263 175.289 202.644 174.934 202.644 174.451C202.644 173.967 202.263 173.618 201.5 173.404C200.738 173.178 199.793 173.065 198.665 173.065C197.537 173.065 196.592 173.178 195.829 173.404C195.077 173.618 194.701 173.967 194.701 174.451C194.701 174.934 195.077 175.289 195.829 175.514C196.592 175.729 197.537 175.836 198.665 175.836ZM214.951 176.884V164.51H216.127V176.884H214.951ZM212.261 167.894C212.261 169.537 211.998 170.976 211.471 172.211C210.945 173.436 210.193 174.386 209.216 175.063C208.249 175.74 207.105 176.078 205.784 176.078V174.918C206.869 174.918 207.809 174.633 208.604 174.064C209.398 173.495 210.005 172.689 210.424 171.647C210.854 170.595 211.069 169.36 211.069 167.942V166.105H205.784V164.994H212.261V167.894ZM228.547 170.794V176.884H227.387V164.51H228.547V169.634H230.255V170.794H228.547ZM223.215 174.982C223.773 174.982 224.332 174.929 224.89 174.821C225.449 174.714 225.905 174.574 226.26 174.402V175.514C225.916 175.707 225.465 175.858 224.906 175.965C224.348 176.062 223.779 176.11 223.199 176.11H218.559V164.913H219.735V174.982H223.215ZM242.45 176.255H230.721V175.127H233.508V171.599C232.81 171.288 232.273 170.869 231.897 170.342C231.521 169.805 231.333 169.188 231.333 168.49C231.333 167.738 231.548 167.083 231.977 166.524C232.407 165.966 233.019 165.536 233.814 165.235C234.609 164.924 235.533 164.768 236.585 164.768C237.638 164.768 238.561 164.924 239.356 165.235C240.151 165.536 240.763 165.966 241.193 166.524C241.623 167.083 241.837 167.738 241.837 168.49C241.837 169.188 241.649 169.805 241.274 170.342C240.898 170.869 240.361 171.288 239.662 171.599V175.127H242.45V176.255ZM236.585 165.88C235.78 165.88 235.071 165.987 234.459 166.202C233.846 166.417 233.374 166.723 233.041 167.12C232.708 167.518 232.541 167.974 232.541 168.49C232.541 169.005 232.708 169.462 233.041 169.859C233.374 170.257 233.846 170.563 234.459 170.777C235.071 170.992 235.78 171.1 236.585 171.1C237.391 171.1 238.1 170.992 238.712 170.777C239.324 170.563 239.797 170.257 240.13 169.859C240.463 169.462 240.629 169.005 240.629 168.49C240.629 167.974 240.463 167.518 240.13 167.12C239.797 166.723 239.324 166.417 238.712 166.202C238.1 165.987 237.391 165.88 236.585 165.88ZM238.502 175.127V172.002C237.89 172.142 237.251 172.211 236.585 172.211C235.866 172.211 235.226 172.142 234.668 172.002V175.127H238.502ZM246.75 172.969C246.75 172.528 246.819 172.142 246.959 171.809C247.099 171.476 247.271 171.196 247.475 170.971C247.679 170.735 247.958 170.455 248.312 170.133C248.764 169.736 249.096 169.381 249.311 169.07C249.537 168.758 249.65 168.377 249.65 167.926C249.65 167.346 249.424 166.879 248.973 166.524C248.522 166.17 247.894 165.992 247.088 165.992C245.767 165.992 244.757 166.433 244.059 167.314L243.125 166.685C243.565 166.127 244.129 165.697 244.816 165.396C245.504 165.085 246.299 164.929 247.201 164.929C248.329 164.929 249.231 165.187 249.907 165.702C250.595 166.207 250.939 166.895 250.939 167.765C250.939 168.216 250.863 168.613 250.713 168.957C250.573 169.29 250.396 169.575 250.181 169.811C249.977 170.047 249.698 170.321 249.344 170.632C248.882 171.041 248.533 171.411 248.296 171.744C248.071 172.077 247.963 172.485 247.974 172.969H246.75ZM247.362 176.432C247.115 176.432 246.905 176.352 246.734 176.191C246.562 176.019 246.476 175.815 246.476 175.579C246.476 175.342 246.562 175.144 246.734 174.982C246.905 174.811 247.115 174.725 247.362 174.725C247.609 174.725 247.818 174.811 247.99 174.982C248.162 175.144 248.248 175.342 248.248 175.579C248.248 175.815 248.162 176.019 247.99 176.191C247.818 176.352 247.609 176.432 247.362 176.432Z" fill="#343434"/>
<path d="M40.6954 224.884H39.5354V212.51H40.6954V224.884ZM36.4581 222.87C37.2959 222.741 37.9833 222.531 38.5204 222.241V223.385C38.1122 223.611 37.5537 223.788 36.8448 223.917C36.1467 224.046 35.3572 224.11 34.4765 224.11H30.0459V222.999H31.512V214.105H30.1104V212.994H37.8598V214.105H36.4581V222.87ZM34.0415 222.999C34.5141 222.999 34.933 222.982 35.2981 222.95V214.105H32.672V222.999H34.0415ZM43.4003 219.051V212.752H44.5442V214.621H52.2776V212.752H53.4214V219.051H43.4003ZM52.2776 215.7H44.5442V217.956H52.2776V215.7ZM49.007 221.581V225.174H47.8148V221.581H42.5464V220.453H54.2753V221.581H49.007ZM65.8897 218.794V224.884H64.7297V212.51H65.8897V217.634H67.5975V218.794H65.8897ZM62.1036 212.994V215.894C62.1036 217.526 61.8512 218.96 61.3464 220.195C60.8416 221.43 60.1112 222.386 59.1553 223.063C58.1994 223.74 57.0662 224.078 55.7559 224.078V222.918C56.8407 222.918 57.7697 222.633 58.5431 222.064C59.3271 221.495 59.9233 220.684 60.3314 219.631C60.7396 218.579 60.9436 217.349 60.9436 215.942V214.105H55.7559V212.994H62.1036ZM81.8341 216.377H83.5419V217.376H81.8341V218.745H80.6741V212.51H81.8341V213.686H83.5419V214.685H81.8341V216.377ZM74.9385 218.52C74.2189 218.52 73.5906 218.396 73.0535 218.149C72.5165 217.902 72.103 217.558 71.813 217.118C71.523 216.667 71.378 216.157 71.378 215.587C71.378 215.018 71.523 214.513 71.813 214.073C72.103 213.633 72.5165 213.289 73.0535 213.042C73.5906 212.784 74.2189 212.655 74.9385 212.655C75.6689 212.655 76.3026 212.784 76.8396 213.042C77.3767 213.289 77.7848 213.633 78.0641 214.073C78.3541 214.513 78.4991 215.018 78.4991 215.587C78.4991 216.157 78.3541 216.667 78.0641 217.118C77.7848 217.558 77.3767 217.902 76.8396 218.149C76.3026 218.396 75.6689 218.52 74.9385 218.52ZM74.9385 213.67C74.2082 213.67 73.6228 213.837 73.1824 214.17C72.7528 214.503 72.538 214.975 72.538 215.587C72.538 216.2 72.7528 216.678 73.1824 217.021C73.6228 217.354 74.2082 217.521 74.9385 217.521C75.6689 217.521 76.2543 217.354 76.6946 217.021C77.135 216.678 77.3552 216.2 77.3552 215.587C77.3552 214.986 77.135 214.519 76.6946 214.186C76.2543 213.842 75.6689 213.67 74.9385 213.67ZM76.9202 223.756V224.69H72.1191V221.661H75.5507V220.405H72.0869V219.47H76.6302V222.499H73.1985V223.756H76.9202ZM81.8341 219.47V224.69H77.4519V219.47H78.5152V221.033H80.7707V219.47H81.8341ZM80.7707 221.951H78.5152V223.772H80.7707V221.951ZM84.7485 214.121V212.977H94.9146V221.146H93.7224V214.121H84.7485ZM95.7363 224.255H84.0074V223.111H88.5024V217.44H89.6946V223.111H95.7363V224.255ZM110.537 218.794V224.884H109.377V212.51H110.537V217.634H112.244V218.794H110.537ZM104.688 214.121C104.667 215.679 104.549 217.054 104.334 218.246L108.184 223.289L107.266 223.997L103.963 219.631C103.577 220.952 103.056 222 102.401 222.773C101.745 223.536 100.983 223.981 100.113 224.11V222.902C100.811 222.752 101.412 222.284 101.917 221.5C102.422 220.705 102.809 219.674 103.077 218.407C103.357 217.14 103.507 215.711 103.528 214.121H100.371V212.994H107.766V214.121H104.688ZM113.548 213.751V212.687H123.553V216.892H122.377V213.751H113.548ZM119.154 220.856H123.585V224.867H122.409V221.903H113.451V220.856H117.994V218.713H112.71V217.65H124.439V218.713H119.154V220.856ZM135.216 224.884V212.51H136.392V224.884H135.216ZM129.544 212.832C130.618 212.832 131.472 213.316 132.106 214.282C132.751 215.249 133.073 216.672 133.073 218.552C133.073 220.432 132.751 221.855 132.106 222.821C131.472 223.788 130.618 224.271 129.544 224.271C128.47 224.271 127.611 223.788 126.967 222.821C126.333 221.855 126.016 220.432 126.016 218.552C126.016 216.672 126.333 215.249 126.967 214.282C127.611 213.316 128.47 212.832 129.544 212.832ZM129.544 213.944C128.825 213.944 128.25 214.331 127.821 215.104C127.391 215.867 127.176 217.016 127.176 218.552C127.176 220.099 127.391 221.253 127.821 222.016C128.25 222.778 128.825 223.16 129.544 223.16C130.243 223.16 130.812 222.778 131.252 222.016C131.693 221.242 131.913 220.088 131.913 218.552C131.913 217.027 131.693 215.877 131.252 215.104C130.812 214.331 130.243 213.944 129.544 213.944ZM153.142 224.255H141.413V223.111H146.681V220.276C145.747 220.222 144.925 220.034 144.216 219.712C143.518 219.379 142.975 218.944 142.589 218.407C142.213 217.859 142.025 217.236 142.025 216.538C142.025 215.786 142.24 215.126 142.669 214.556C143.11 213.987 143.722 213.547 144.506 213.235C145.301 212.924 146.225 212.768 147.277 212.768C148.33 212.768 149.248 212.924 150.032 213.235C150.827 213.547 151.439 213.987 151.869 214.556C152.309 215.126 152.529 215.786 152.529 216.538C152.529 217.236 152.336 217.859 151.949 218.407C151.573 218.944 151.031 219.379 150.322 219.712C149.613 220.034 148.792 220.222 147.857 220.276V223.111H153.142V224.255ZM143.233 216.538C143.233 217.064 143.4 217.526 143.733 217.924C144.066 218.321 144.538 218.632 145.15 218.858C145.763 219.073 146.472 219.18 147.277 219.18C148.083 219.18 148.792 219.073 149.404 218.858C150.016 218.632 150.489 218.321 150.822 217.924C151.155 217.526 151.321 217.064 151.321 216.538C151.321 216.012 151.155 215.55 150.822 215.152C150.489 214.744 150.016 214.433 149.404 214.218C148.792 213.992 148.083 213.88 147.277 213.88C146.472 213.88 145.763 213.992 145.15 214.218C144.538 214.433 144.066 214.744 143.733 215.152C143.4 215.55 143.233 216.012 143.233 216.538ZM165.417 224.884H164.305V218.745H162.178V224.674H161.083V212.575H162.178V217.585H164.305V212.51H165.417V224.884ZM156.604 223.047C157.377 223.047 158.048 222.999 158.618 222.902C159.187 222.795 159.697 222.633 160.148 222.419V223.53C159.343 223.917 158.161 224.11 156.604 224.11H154.574V217.924H158.167V214.057H154.574V212.994H159.262V218.987H155.669V223.047H156.604ZM177.514 218.794V224.884H176.354V212.51H177.514V217.634H179.222V218.794H177.514ZM173.728 212.994V215.894C173.728 217.526 173.476 218.96 172.971 220.195C172.466 221.43 171.736 222.386 170.78 223.063C169.824 223.74 168.691 224.078 167.38 224.078V222.918C168.465 222.918 169.394 222.633 170.168 222.064C170.952 221.495 171.548 220.684 171.956 219.631C172.364 218.579 172.568 217.349 172.568 215.942V214.105H167.38V212.994H173.728ZM190.273 218.794V224.884H189.113V212.51H190.273V217.634H191.98V218.794H190.273ZM184.94 222.982C185.498 222.982 186.057 222.929 186.615 222.821C187.174 222.714 187.63 222.574 187.985 222.402V223.514C187.641 223.707 187.19 223.858 186.631 223.965C186.073 224.062 185.504 224.11 184.924 224.11H180.284V212.913H181.46V222.982H184.94ZM204.175 224.255H192.446V223.127H195.233V219.599C194.535 219.288 193.998 218.869 193.622 218.342C193.246 217.805 193.058 217.188 193.058 216.49C193.058 215.738 193.273 215.083 193.703 214.524C194.132 213.966 194.744 213.536 195.539 213.235C196.334 212.924 197.258 212.768 198.31 212.768C199.363 212.768 200.287 212.924 201.081 213.235C201.876 213.536 202.488 213.966 202.918 214.524C203.348 215.083 203.563 215.738 203.563 216.49C203.563 217.188 203.375 217.805 202.999 218.342C202.623 218.869 202.086 219.288 201.388 219.599V223.127H204.175V224.255ZM198.31 213.88C197.505 213.88 196.796 213.987 196.184 214.202C195.571 214.417 195.099 214.723 194.766 215.12C194.433 215.518 194.266 215.974 194.266 216.49C194.266 217.005 194.433 217.462 194.766 217.859C195.099 218.257 195.571 218.563 196.184 218.777C196.796 218.992 197.505 219.1 198.31 219.1C199.116 219.1 199.825 218.992 200.437 218.777C201.049 218.563 201.522 218.257 201.855 217.859C202.188 217.462 202.354 217.005 202.354 216.49C202.354 215.974 202.188 215.518 201.855 215.12C201.522 214.723 201.049 214.417 200.437 214.202C199.825 213.987 199.116 213.88 198.31 213.88ZM200.228 223.127V220.002C199.615 220.142 198.976 220.211 198.31 220.211C197.591 220.211 196.952 220.142 196.393 220.002V223.127H200.228ZM208.475 220.969C208.475 220.528 208.545 220.142 208.684 219.809C208.824 219.476 208.996 219.196 209.2 218.971C209.404 218.735 209.683 218.455 210.037 218.133C210.489 217.736 210.822 217.381 211.036 217.07C211.262 216.758 211.375 216.377 211.375 215.926C211.375 215.346 211.149 214.879 210.698 214.524C210.247 214.17 209.619 213.992 208.813 213.992C207.492 213.992 206.482 214.433 205.784 215.314L204.85 214.685C205.29 214.127 205.854 213.697 206.541 213.396C207.229 213.085 208.024 212.929 208.926 212.929C210.054 212.929 210.956 213.187 211.632 213.702C212.32 214.207 212.664 214.895 212.664 215.765C212.664 216.216 212.588 216.613 212.438 216.957C212.298 217.29 212.121 217.575 211.906 217.811C211.702 218.047 211.423 218.321 211.069 218.632C210.607 219.041 210.258 219.411 210.021 219.744C209.796 220.077 209.688 220.485 209.699 220.969H208.475ZM209.087 224.432C208.84 224.432 208.63 224.352 208.459 224.191C208.287 224.019 208.201 223.815 208.201 223.579C208.201 223.342 208.287 223.144 208.459 222.982C208.63 222.811 208.84 222.725 209.087 222.725C209.334 222.725 209.543 222.811 209.715 222.982C209.887 223.144 209.973 223.342 209.973 223.579C209.973 223.815 209.887 224.019 209.715 224.191C209.543 224.352 209.334 224.432 209.087 224.432Z" fill="#343434"/>
<rect x="147.673" y="0.334259" width="40" height="40" rx="10.4" fill="#C8E3FF"/>
<path d="M167.659 29.5484C165.874 29.5484 164.259 29.1379 162.813 28.317C161.386 27.4782 160.261 26.3271 159.44 24.8637C158.619 23.4003 158.209 21.7673 158.209 19.9648C158.209 18.1444 158.619 16.5115 159.44 15.0659C160.261 13.6025 161.386 12.4603 162.813 11.6393C164.259 10.8005 165.874 10.3812 167.659 10.3812C169.443 10.3812 171.058 10.8005 172.504 11.6393C173.95 12.4603 175.083 13.6025 175.904 15.0659C176.725 16.5115 177.135 18.1444 177.135 19.9648C177.135 21.7851 176.725 23.427 175.904 24.8905C175.083 26.336 173.95 27.4782 172.504 28.317C171.058 29.1379 169.443 29.5484 167.659 29.5484ZM167.659 27.273C168.979 27.273 170.166 26.9607 171.219 26.336C172.272 25.7114 173.102 24.8458 173.709 23.7393C174.315 22.615 174.619 21.3568 174.619 19.9648C174.619 18.5727 174.315 17.3235 173.709 16.217C173.102 15.0927 172.272 14.2182 171.219 13.5935C170.166 12.9511 168.979 12.6298 167.659 12.6298C166.356 12.6298 165.178 12.9511 164.125 13.5935C163.072 14.2182 162.242 15.0927 161.635 16.217C161.029 17.3235 160.725 18.5727 160.725 19.9648C160.725 21.3568 161.029 22.615 161.635 23.7393C162.242 24.8458 163.072 25.7114 164.125 26.336C165.178 26.9607 166.356 27.273 167.659 27.273Z" fill="black"/>
<rect x="190.873" y="0.334259" width="40" height="40" rx="10.4" fill="#FFF6A6"/>
<path d="M210.848 29.5484C209.509 29.5484 208.215 29.3343 206.966 28.9059C205.735 28.4598 204.762 27.8798 204.048 27.1659L204.958 25.2117C205.654 25.8542 206.529 26.3806 207.582 26.7911C208.635 27.2016 209.723 27.4068 210.848 27.4068C212.311 27.4068 213.409 27.1302 214.14 26.577C214.89 26.0237 215.265 25.3009 215.265 24.4086C215.265 23.7483 215.06 23.2129 214.649 22.8024C214.239 22.3741 213.73 22.0528 213.123 21.8387C212.516 21.6067 211.687 21.3568 210.634 21.0891C209.313 20.75 208.242 20.411 207.421 20.0719C206.618 19.7328 205.922 19.2152 205.333 18.5192C204.762 17.8232 204.476 16.8862 204.476 15.7084C204.476 14.7268 204.726 13.8345 205.226 13.0314C205.726 12.2104 206.484 11.568 207.501 11.1039C208.519 10.6221 209.768 10.3812 211.249 10.3812C212.32 10.3812 213.355 10.5328 214.355 10.8362C215.372 11.1218 216.246 11.5323 216.978 12.0677L216.175 14.0754C215.408 13.5578 214.596 13.1741 213.739 12.9243C212.9 12.6566 212.07 12.5227 211.249 12.5227C209.822 12.5227 208.742 12.8083 208.01 13.3794C207.296 13.9505 206.939 14.6911 206.939 15.6013C206.939 16.2616 207.145 16.8059 207.555 17.2343C207.966 17.6447 208.474 17.966 209.081 18.198C209.706 18.43 210.544 18.6798 211.597 18.9475C212.936 19.2866 214.007 19.6257 214.81 19.9648C215.613 20.286 216.3 20.7947 216.871 21.4907C217.442 22.1688 217.728 23.0879 217.728 24.248C217.728 25.2295 217.469 26.1219 216.951 26.925C216.452 27.7281 215.684 28.3705 214.649 28.8524C213.614 29.3164 212.347 29.5484 210.848 29.5484Z" fill="black"/>
<rect x="234.073" y="0.334259" width="40" height="40" rx="10.4" fill="#C4FFCB"/>
<path d="M252.773 23.9853C252.773 22.5398 252.958 21.3913 253.327 20.5401C253.713 19.6727 254.411 18.8937 255.423 18.203C256.275 17.5927 256.885 17.0385 257.254 16.5406C257.64 16.0427 257.833 15.4725 257.833 14.83C257.833 13.8984 257.503 13.1516 256.845 12.5894C256.202 12.0272 255.311 11.7461 254.17 11.7461C253.383 11.7461 252.701 11.9148 252.123 12.2521C251.56 12.5894 251.127 13.0231 250.821 13.5531C250.532 14.0831 250.372 14.6373 250.34 15.2155H247.882C247.914 14.1875 248.195 13.2399 248.725 12.3725C249.255 11.5052 249.986 10.8226 250.918 10.3246C251.866 9.81066 252.942 9.55367 254.146 9.55367C255.415 9.55367 256.507 9.78657 257.423 10.2524C258.355 10.7021 259.061 11.3285 259.543 12.1316C260.025 12.9187 260.266 13.8181 260.266 14.83C260.266 16.5005 259.374 17.9701 257.592 19.239C256.901 19.7048 256.379 20.1787 256.026 20.6605C255.672 21.1424 255.431 21.6403 255.303 22.1543C255.19 22.6683 255.134 23.2786 255.134 23.9853H252.773ZM254.002 29.7195C253.504 29.7195 253.086 29.5428 252.749 29.1894C252.412 28.8521 252.243 28.4345 252.243 27.9366C252.243 27.4387 252.412 27.0211 252.749 26.6837C253.086 26.3464 253.504 26.1778 254.002 26.1778C254.5 26.1778 254.917 26.3464 255.255 26.6837C255.608 27.0211 255.785 27.4387 255.785 27.9366C255.785 28.4506 255.616 28.8762 255.279 29.2135C254.941 29.5508 254.516 29.7195 254.002 29.7195Z" fill="black"/>
<rect x="277.273" y="0.334259" width="40" height="40" rx="10.4" fill="#FFD9FB"/>
<path d="M295.973 23.9853C295.973 22.5398 296.158 21.3913 296.527 20.5401C296.913 19.6727 297.611 18.8937 298.623 18.203C299.475 17.5927 300.085 17.0385 300.454 16.5406C300.84 16.0427 301.033 15.4725 301.033 14.83C301.033 13.8984 300.703 13.1516 300.045 12.5894C299.402 12.0272 298.511 11.7461 297.37 11.7461C296.583 11.7461 295.901 11.9148 295.323 12.2521C294.76 12.5894 294.327 13.0231 294.022 13.5531C293.732 14.0831 293.572 14.6373 293.54 15.2155H291.082C291.114 14.1875 291.395 13.2399 291.925 12.3725C292.455 11.5052 293.186 10.8226 294.118 10.3246C295.066 9.81066 296.142 9.55367 297.346 9.55367C298.615 9.55367 299.707 9.78657 300.623 10.2524C301.555 10.7021 302.261 11.3285 302.743 12.1316C303.225 12.9187 303.466 13.8181 303.466 14.83C303.466 16.5005 302.575 17.9701 300.792 19.239C300.101 19.7048 299.579 20.1787 299.226 20.6605C298.872 21.1424 298.631 21.6403 298.503 22.1543C298.39 22.6683 298.334 23.2786 298.334 23.9853H295.973ZM297.202 29.7195C296.704 29.7195 296.286 29.5428 295.949 29.1894C295.612 28.8521 295.443 28.4345 295.443 27.9366C295.443 27.4387 295.612 27.0211 295.949 26.6837C296.286 26.3464 296.704 26.1778 297.202 26.1778C297.7 26.1778 298.117 26.3464 298.455 26.6837C298.808 27.0211 298.985 27.4387 298.985 27.9366C298.985 28.4506 298.816 28.8762 298.479 29.2135C298.141 29.5508 297.716 29.7195 297.202 29.7195Z" fill="black"/>
</g>
</svg>
