<svg width="322" height="77" viewBox="0 0 322 77" fill="none" xmlns="http://www.w3.org/2000/svg">
<path d="M27.6421 54.4448C29.8799 54.5037 31.5877 55.0631 32.7654 56.1231C33.9629 57.1635 34.5616 58.5572 34.5616 60.3042C34.5616 61.4624 34.2769 62.493 33.7077 63.3959C33.158 64.2989 32.3336 65.0055 31.2343 65.5159C30.1547 66.0263 28.8493 66.2815 27.3182 66.2815C25.7871 66.2815 24.364 66.0361 23.0488 65.5454C21.7336 65.035 20.7129 64.3578 19.9866 63.5137L20.7816 62.2476C21.4293 62.9935 22.3225 63.602 23.461 64.0731C24.6192 64.5246 25.8853 64.7504 27.2593 64.7504C29.0653 64.7504 30.4492 64.3578 31.411 63.5726C32.3925 62.7678 32.8832 61.6783 32.8832 60.3042C32.8832 58.9105 32.3925 57.8211 31.411 57.0359C30.4295 56.2507 28.9475 55.8581 26.9649 55.8581H25.6399V54.6509L31.6466 46.9954H20.7521V45.5231H33.7666V46.6715L27.6421 54.4448ZM47.2902 53.1787C46.3676 54.7491 45.0819 56.0152 43.433 56.977C41.7841 57.9192 39.8898 58.5081 37.7502 58.7437V57.1831C40.2628 56.9083 42.3533 56.0348 44.0219 54.5626C45.71 53.0707 46.7111 51.1961 47.0252 48.9387H38.3391V47.4076H46.9369V44.2276H48.5563V47.4076H57.3013V48.9387H48.7035C48.5465 50.0968 48.2913 51.0685 47.938 51.8537L57.6841 57.4481L56.948 58.832L47.2902 53.1787ZM58.4791 65.8987H37.1613V64.3381H46.9957V58.4787H48.5857V64.3381H58.4791V65.8987ZM82.326 51.942H79.0576V61.3348H77.4676V44.522H79.0576V50.352H82.326V51.942ZM60.861 57.0948V45.2287H73.1099V57.0948H60.861ZM62.451 46.7009V55.5931H71.5493V46.7009H62.451ZM79.7937 65.1626V66.6937H61.5676V59.6565H63.1576V65.1626H79.7937ZM103.052 67.1354H101.491V44.522H103.052V67.1354ZM97.9579 44.6692V66.7526H96.3973V55.9465H92.8934C92.8542 59.3228 92.4223 61.8354 91.5979 63.4842C90.7931 65.1331 89.5956 65.9576 88.0056 65.9576C84.7864 65.9576 83.1768 62.493 83.1768 55.5637C83.1768 48.6344 84.7864 45.1698 88.0056 45.1698C91.0679 45.1698 92.6971 48.232 92.8934 54.3565H96.3973V44.6692H97.9579ZM88.0056 64.4265C89.1245 64.4265 89.9588 63.7002 90.5084 62.2476C91.0777 60.7754 91.3623 58.5474 91.3623 55.5637C91.3623 52.58 91.0777 50.3618 90.5084 48.9092C89.9588 47.437 89.1245 46.7009 88.0056 46.7009C85.8071 46.7009 84.7079 49.6552 84.7079 55.5637C84.7079 61.4722 85.8071 64.4265 88.0056 64.4265ZM117.881 52.2659C117.194 53.5418 116.272 54.592 115.114 55.4165C113.975 56.2409 112.65 56.7807 111.139 57.0359V55.5342C112.925 55.2005 114.368 54.3957 115.467 53.1198C116.586 51.8242 117.253 50.2146 117.469 48.2909H111.345V46.8187H117.528V44.1098H119.118V46.8187H125.184V48.2909H119.118C119.04 49.1939 118.853 50.0576 118.559 50.882L125.478 55.4754L124.654 56.7709L117.881 52.2659ZM133.193 51.5592H129.924V57.6248H128.334V44.522H129.924V49.9692H133.193V51.5592ZM122.534 60.5104C122.396 61.0992 122.151 61.6783 121.798 62.2476L130.778 65.6042L130.248 67.0176L120.826 63.3959C119.844 64.4363 118.568 65.2509 116.998 65.8398C115.447 66.4091 113.818 66.6937 112.11 66.6937V65.2215C113.445 65.2215 114.711 65.035 115.909 64.662C117.106 64.2694 118.137 63.7198 119 63.0131C119.864 62.2868 120.463 61.4526 120.796 60.5104H112.405V59.097H130.336V60.5104H122.534ZM153.506 51.5887V53.0904H135.28V44.5809H136.87V51.5887H153.506ZM133.602 57.6837V56.2115H154.919V57.6837H133.602ZM153.771 65.2215V66.7231H135.221V60.1276H136.841V65.2215H153.771ZM180.791 55.7109V67.1354H179.201V44.522H180.791V54.1504H184.059V55.7109H180.791ZM171.339 64.0731C172.379 64.0731 173.4 63.975 174.401 63.7787C175.422 63.5824 176.256 63.3174 176.904 62.9837V64.5442C176.276 64.8976 175.451 65.1724 174.431 65.3687C173.41 65.5454 172.37 65.6337 171.31 65.6337H162.859V45.3465H164.449V64.0731H171.339ZM206.846 51.942H203.578V61.3348H201.988V44.522H203.578V50.352H206.846V51.942ZM185.381 57.0948V45.2287H197.63V57.0948H185.381ZM186.971 46.7009V55.5931H196.069V46.7009H186.971ZM204.314 65.1626V66.6937H186.088V59.6565H187.678V65.1626H204.314ZM225.481 67.1354V44.522H227.042V67.1354H225.481ZM214.587 45.1698C215.843 45.1698 216.962 45.4741 217.943 46.0826C218.945 46.6715 219.72 47.4959 220.27 48.5559C220.839 49.6159 221.123 50.8231 221.123 52.1776C221.123 53.5124 220.839 54.7098 220.27 55.7698C219.72 56.8298 218.945 57.6641 217.943 58.2726C216.962 58.8615 215.843 59.1559 214.587 59.1559C213.33 59.1559 212.202 58.8615 211.201 58.2726C210.219 57.6641 209.444 56.8298 208.875 55.7698C208.325 54.7098 208.05 53.5124 208.05 52.1776C208.05 50.8231 208.325 49.6159 208.875 48.5559C209.444 47.4959 210.219 46.6715 211.201 46.0826C212.202 45.4741 213.33 45.1698 214.587 45.1698ZM214.587 46.6715C213.605 46.6715 212.742 46.9168 211.996 47.4076C211.25 47.8787 210.661 48.5363 210.229 49.3804C209.817 50.2048 209.611 51.1372 209.611 52.1776C209.611 53.1983 209.817 54.1307 210.229 54.9748C210.661 55.7992 211.25 56.447 211.996 56.9181C212.742 57.3892 213.605 57.6248 214.587 57.6248C215.568 57.6248 216.432 57.3892 217.178 56.9181C217.943 56.447 218.532 55.7992 218.945 54.9748C219.357 54.1307 219.563 53.1983 219.563 52.1776C219.563 51.1372 219.357 50.2048 218.945 49.3804C218.532 48.5363 217.943 47.8787 217.178 47.4076C216.432 46.9168 215.568 46.6715 214.587 46.6715ZM223.361 64.4854C222.615 64.8583 221.555 65.143 220.181 65.3392C218.807 65.5355 217.217 65.6337 215.411 65.6337H207.255V64.0731H215.558C217.305 64.0731 218.856 63.975 220.211 63.7787C221.565 63.5824 222.615 63.2978 223.361 62.9248V64.4854ZM235.246 48.9976V47.4959H241.754V44.257H243.373V47.4959H249.88V48.9976H235.246ZM254.503 55.5048V67.1354H252.913V44.522H254.503V53.9442H257.712V55.5048H254.503ZM243.373 64.132C246.946 64.0928 249.429 63.7394 250.822 63.072V64.662C250.135 64.9761 249.115 65.2215 247.76 65.3981C246.406 65.5552 244.845 65.6337 243.079 65.6337H235.335V64.132H241.783V59.9804C240.134 59.8822 238.848 59.4209 237.926 58.5965C237.003 57.772 236.542 56.712 236.542 55.4165C236.542 54.0031 237.072 52.8744 238.132 52.0304C239.212 51.1667 240.703 50.7348 242.607 50.7348C244.492 50.7348 245.974 51.1667 247.054 52.0304C248.133 52.8744 248.673 54.0031 248.673 55.4165C248.673 56.712 248.202 57.7818 247.26 58.6259C246.337 59.4504 245.042 59.9117 243.373 60.0098V64.132ZM238.073 55.4165C238.073 56.3391 238.456 57.1046 239.221 57.7131C240.007 58.3217 241.135 58.6259 242.607 58.6259C244.08 58.6259 245.199 58.3217 245.964 57.7131C246.749 57.1046 247.142 56.3391 247.142 55.4165C247.142 54.4742 246.749 53.6989 245.964 53.0904C245.199 52.4818 244.08 52.1776 242.607 52.1776C241.135 52.1776 240.007 52.4818 239.221 53.0904C238.456 53.6989 238.073 54.4742 238.073 55.4165ZM280.499 50.8526H277.231V57.0359H275.641V44.522H277.231V49.2626H280.499V50.8526ZM265.512 51.2354C264.825 52.6487 263.873 53.8068 262.656 54.7098C261.459 55.5931 260.055 56.1624 258.445 56.4176V54.8865C260.389 54.5331 261.94 53.64 263.098 52.207C264.256 50.7544 264.894 48.9289 265.012 46.7304H258.71V45.2581H272.432V46.7304H266.602C266.543 47.9081 266.366 48.9681 266.072 49.9104L273.109 54.6215L272.255 55.917L265.512 51.2354ZM268.633 57.9781C271.323 57.9781 273.482 58.3511 275.111 59.097C276.76 59.843 277.584 60.9815 277.584 62.5126C277.584 64.0437 276.76 65.1822 275.111 65.9281C273.482 66.6544 271.323 67.0176 268.633 67.0176C265.944 67.0176 263.775 66.6544 262.126 65.9281C260.497 65.1822 259.682 64.0437 259.682 62.5126C259.682 60.9815 260.497 59.843 262.126 59.097C263.775 58.3511 265.944 57.9781 268.633 57.9781ZM268.633 65.5454C270.773 65.5454 272.52 65.2902 273.874 64.7798C275.248 64.2498 275.935 63.4941 275.935 62.5126C275.935 61.5115 275.248 60.7557 273.874 60.2454C272.52 59.7154 270.773 59.4504 268.633 59.4504C266.494 59.4504 264.747 59.7154 263.392 60.2454C262.038 60.7557 261.36 61.5115 261.36 62.5126C261.36 63.4941 262.038 64.2498 263.392 64.7798C264.747 65.2902 266.494 65.5454 268.633 65.5454ZM282.204 53.0609V51.6476H286.297V46.3181H282.44V44.9342H300.695V46.3181H296.838V51.6476H300.901V53.0609H282.204ZM295.248 51.6476V46.3181H287.887V51.6476H295.248ZM292.362 59.9215H300.607V66.7231H282.528V59.9215H290.772V56.977H280.908V55.5637H302.226V56.977H292.362V59.9215ZM284.118 61.3054V65.3392H299.046V61.3054H284.118Z" fill="#5A81FA"/>
<path d="M61.6706 14.2098V12.1832H64.8884V10.7609H67.1817V12.1832H70.4351V14.2098H61.6706ZM73.8129 18.192V24.5387H71.5729V10.8854H73.8129V15.8987H75.3951V18.192H73.8129ZM67.1462 21.7654C68.758 21.7417 69.9492 21.552 70.7195 21.1965V23.2943C70.3284 23.472 69.8069 23.6083 69.1551 23.7032C68.5151 23.798 67.8158 23.8454 67.0573 23.8454H61.724V21.7654H64.9062V20.3254C64.0647 20.195 63.401 19.8928 62.9151 19.4187C62.4292 18.9446 62.1862 18.3402 62.1862 17.6054C62.1862 16.7046 62.5417 16.0054 63.2529 15.5076C63.964 14.998 64.9003 14.7432 66.0617 14.7432C67.2232 14.7432 68.1536 14.998 68.8529 15.5076C69.564 16.0054 69.9195 16.7046 69.9195 17.6054C69.9195 18.352 69.6706 18.9624 69.1729 19.4365C68.6869 19.9106 68.0114 20.2128 67.1462 20.3432V21.7654ZM64.3017 17.6054C64.3017 17.9017 64.4558 18.1387 64.764 18.3165C65.084 18.4824 65.5166 18.5654 66.0617 18.5654C66.6069 18.5654 67.0336 18.4824 67.3417 18.3165C67.6617 18.1387 67.8217 17.9017 67.8217 17.6054C67.8217 17.2972 67.6617 17.0602 67.3417 16.8943C67.0336 16.7165 66.6069 16.6276 66.0617 16.6276C65.5166 16.6276 65.084 16.7165 64.764 16.8943C64.4558 17.0602 64.3017 17.2972 64.3017 17.6054ZM89.1532 15.3832H87.5354V18.4054H85.2954V10.8854H87.5354V13.1432H89.1532V15.3832ZM80.0865 15.8276C79.5769 16.5269 78.9369 17.0957 78.1665 17.5343C77.408 17.9728 76.5665 18.2157 75.6421 18.2632V16.1832C76.5191 16.112 77.248 15.7802 77.8288 15.1876C78.4095 14.595 78.7532 13.8898 78.8599 13.072H75.8199V11.0987H84.1043V13.072H81.1354C81.1236 13.3091 81.0702 13.6409 80.9754 14.0676L84.531 16.2365L83.4643 17.9787L80.0865 15.8276ZM81.9176 18.6898C83.6717 18.6898 85.0702 18.9269 86.1132 19.4009C87.1562 19.875 87.6776 20.6276 87.6776 21.6587C87.6776 22.7017 87.1562 23.4602 86.1132 23.9343C85.0702 24.4083 83.6717 24.6454 81.9176 24.6454C80.1754 24.6454 78.7769 24.4083 77.7221 23.9343C76.6791 23.4602 76.1576 22.7017 76.1576 21.6587C76.1576 20.6276 76.6791 19.875 77.7221 19.4009C78.7769 18.9269 80.1754 18.6898 81.9176 18.6898ZM81.9176 22.7609C82.9132 22.7609 83.7191 22.672 84.3354 22.4943C84.9517 22.3046 85.2599 22.0261 85.2599 21.6587C85.2599 21.2913 84.9517 21.0187 84.3354 20.8409C83.7191 20.6632 82.9132 20.5743 81.9176 20.5743C80.9221 20.5743 80.1162 20.6632 79.4999 20.8409C78.8836 21.0187 78.5754 21.2913 78.5754 21.6587C78.5754 22.0261 78.8836 22.3046 79.4999 22.4943C80.1162 22.672 80.9221 22.7609 81.9176 22.7609ZM89.9336 16.2898V14.512H92.0136V12.7165H90.0758V10.9387H101.489V12.7165H99.5336V14.512H101.614V16.2898H89.9336ZM97.3113 14.512V12.7165H94.2536V14.512H97.3113ZM96.9024 19.8454H101.525V24.4854H90.0402V19.8454H94.6624V18.9209H89.2402V17.1076H102.325V18.9209H96.9024V19.8454ZM92.2624 21.6054V22.7432H99.2847V21.6054H92.2624ZM115.083 17.0009V15.0987H116.487V13.9965H115.083V12.0943H116.487V10.8854H118.692V18.7076H116.487V17.0009H115.083ZM114.816 17.9254C114.461 18.0557 113.969 18.1565 113.341 18.2276C112.724 18.2987 112.061 18.3343 111.35 18.3343H106.301V16.4498H107.492V12.9832H106.372V11.0987H114.567V12.9832H113.43V16.3609C113.927 16.3135 114.39 16.2187 114.816 16.0765V17.9254ZM110.23 16.4498C110.715 16.4498 111.065 16.4439 111.278 16.432V12.9832H109.625V16.4498H110.23ZM112.967 19.0098C114.745 19.0098 116.161 19.235 117.216 19.6854C118.283 20.1239 118.816 20.835 118.816 21.8187C118.816 22.8024 118.283 23.5195 117.216 23.9698C116.161 24.4202 114.745 24.6454 112.967 24.6454C111.201 24.6454 109.791 24.4202 108.736 23.9698C107.681 23.5195 107.154 22.8024 107.154 21.8187C107.154 20.835 107.681 20.1239 108.736 19.6854C109.791 19.235 111.201 19.0098 112.967 19.0098ZM112.967 22.7965C113.998 22.7965 114.828 22.7195 115.456 22.5654C116.084 22.3995 116.398 22.1506 116.398 21.8187C116.398 21.4869 116.084 21.2439 115.456 21.0898C114.828 20.9357 113.998 20.8587 112.967 20.8587C111.948 20.8587 111.124 20.9357 110.496 21.0898C109.88 21.2439 109.572 21.4869 109.572 21.8187C109.572 22.1506 109.88 22.3995 110.496 22.5654C111.124 22.7195 111.948 22.7965 112.967 22.7965ZM132.005 18.3165V24.5387H129.765V10.8854H132.005V16.0409H133.623V18.3165H132.005ZM127.614 11.2587V14.832C127.614 16.6572 127.318 18.2454 126.725 19.5965C126.145 20.9476 125.303 21.9906 124.201 22.7254C123.111 23.4602 121.825 23.8276 120.343 23.8276V21.5876C121.943 21.5876 123.17 20.995 124.023 19.8098C124.888 18.6128 125.321 16.9595 125.321 14.8498V13.4098H120.343V11.2587H127.614ZM147.075 18.2632V10.8854H149.333V18.2632H147.075ZM137.386 17.3743V11.0987H145.333V17.3743H137.386ZM139.626 13.0187V15.4365H143.128V13.0187H139.626ZM143.448 22.9209C142.773 23.4424 141.937 23.8335 140.941 24.0943C139.946 24.355 138.885 24.4854 137.759 24.4854V22.5476C138.79 22.5476 139.738 22.4054 140.604 22.1209C141.469 21.8365 142.079 21.4335 142.435 20.912H137.884V18.992H142.47V17.9432H144.764V18.992H149.386V20.912H144.888C144.864 21.0424 144.805 21.1965 144.71 21.3743L149.795 22.7432L149.208 24.6454L143.448 22.9209ZM160.295 15.1165C159.537 16.0883 158.618 16.8528 157.54 17.4098C156.473 17.955 155.347 18.2276 154.162 18.2276V15.9876C155.027 15.9876 155.863 15.7624 156.668 15.312C157.474 14.8617 158.15 14.2335 158.695 13.4276C159.252 12.6217 159.608 11.715 159.762 10.7076L162.055 11.0632C161.937 11.798 161.706 12.5506 161.362 13.3209L166.82 16.2543L165.753 18.2276L160.295 15.1165ZM161.557 21.5698V24.8587H159.246V21.5698H153.86V19.3832H166.944V21.5698H161.557ZM173.555 14.8498C173.496 15.8928 173.395 16.7817 173.253 17.5165L177.093 22.2987L175.44 23.8454L172.489 20.0232C171.967 21.2083 171.31 22.1328 170.515 22.7965C169.721 23.4483 168.838 23.798 167.867 23.8454V21.5343C168.507 21.4513 169.075 21.1195 169.573 20.5387C170.071 19.9461 170.468 19.1639 170.764 18.192C171.061 17.2083 171.238 16.0943 171.298 14.8498H168.133V12.6632H171.28V10.832H173.573V12.6632H176.578V14.8498H173.555ZM180.044 24.5387H177.787V10.8854H180.044V24.5387ZM181.323 14.2098V12.1832H184.54V10.7609H186.834V12.1832H190.087V14.2098H181.323ZM193.465 18.192V24.5387H191.225V10.8854H193.465V15.8987H195.047V18.192H193.465ZM186.798 21.7654C188.41 21.7417 189.601 21.552 190.371 21.1965V23.2943C189.98 23.472 189.459 23.6083 188.807 23.7032C188.167 23.798 187.468 23.8454 186.709 23.8454H181.376V21.7654H184.558V20.3254C183.717 20.195 183.053 19.8928 182.567 19.4187C182.081 18.9446 181.838 18.3402 181.838 17.6054C181.838 16.7046 182.194 16.0054 182.905 15.5076C183.616 14.998 184.552 14.7432 185.714 14.7432C186.875 14.7432 187.805 14.998 188.505 15.5076C189.216 16.0054 189.571 16.7046 189.571 17.6054C189.571 18.352 189.323 18.9624 188.825 19.4365C188.339 19.9106 187.663 20.2128 186.798 20.3432V21.7654ZM183.954 17.6054C183.954 17.9017 184.108 18.1387 184.416 18.3165C184.736 18.4824 185.168 18.5654 185.714 18.5654C186.259 18.5654 186.685 18.4824 186.994 18.3165C187.314 18.1387 187.474 17.9017 187.474 17.6054C187.474 17.2972 187.314 17.0602 186.994 16.8943C186.685 16.7165 186.259 16.6276 185.714 16.6276C185.168 16.6276 184.736 16.7165 184.416 16.8943C184.108 17.0602 183.954 17.2972 183.954 17.6054ZM208.498 24.5387V10.8854H210.756V24.5387H208.498ZM206.276 14.832C206.276 16.6572 205.974 18.2513 205.37 19.6143C204.765 20.9654 203.9 22.0083 202.774 22.7432C201.66 23.4661 200.356 23.8276 198.863 23.8276V21.5876C199.941 21.5876 200.86 21.315 201.618 20.7698C202.377 20.2246 202.952 19.4483 203.343 18.4409C203.746 17.4217 203.947 16.2246 203.947 14.8498V13.4098H198.863V11.2587H206.276V14.832ZM218.577 13.6232C217.83 14.2632 216.923 14.7728 215.857 15.152C214.79 15.5313 213.67 15.7328 212.497 15.7565V13.872C213.338 13.8246 214.15 13.6587 214.932 13.3743C215.726 13.0898 216.396 12.7046 216.941 12.2187C217.486 11.7209 217.83 11.152 217.972 10.512L220.248 10.9387C220.153 11.318 219.999 11.7209 219.785 12.1476L224.923 14.032L224.194 15.792L218.577 13.6232ZM219.75 18.832H224.372V22.2987H215.11V22.9565H224.532V24.4854H212.905V21.0009H222.168V20.3432H212.87V18.832H217.51V18.032H212.088V16.3076H225.172V18.032H219.75V18.832ZM233.539 24.1298C232.627 24.1298 231.738 23.9935 230.873 23.7209C230.019 23.4365 229.338 23.075 228.828 22.6365L229.646 20.752C230.132 21.155 230.724 21.4809 231.424 21.7298C232.135 21.9787 232.846 22.1032 233.557 22.1032C234.399 22.1032 235.027 21.9609 235.441 21.6765C235.856 21.392 236.064 21.0187 236.064 20.5565C236.064 20.2009 235.945 19.9165 235.708 19.7032C235.471 19.4898 235.175 19.3239 234.819 19.2054C234.476 19.075 233.972 18.9269 233.308 18.7609C232.419 18.5476 231.69 18.3283 231.121 18.1032C230.564 17.8661 230.084 17.5046 229.681 17.0187C229.279 16.5328 229.077 15.8809 229.077 15.0632C229.077 14.3639 229.255 13.7298 229.61 13.1609C229.978 12.592 230.523 12.1417 231.246 11.8098C231.969 11.4661 232.852 11.2943 233.895 11.2943C234.641 11.2943 235.364 11.395 236.064 11.5965C236.775 11.7861 237.391 12.0587 237.913 12.4143L237.166 14.3165C236.644 13.9846 236.099 13.7357 235.53 13.5698C234.973 13.4039 234.428 13.3209 233.895 13.3209C233.065 13.3209 232.449 13.475 232.046 13.7832C231.643 14.0794 231.441 14.4646 231.441 14.9387C231.441 15.2824 231.56 15.5669 231.797 15.792C232.034 16.0054 232.33 16.1772 232.686 16.3076C233.053 16.4261 233.551 16.5624 234.179 16.7165C235.092 16.9417 235.821 17.1669 236.366 17.392C236.923 17.6172 237.403 17.9728 237.806 18.4587C238.209 18.9328 238.41 19.5728 238.41 20.3787C238.41 21.0661 238.227 21.6943 237.859 22.2632C237.504 22.832 236.959 23.2883 236.224 23.632C235.489 23.9639 234.594 24.1298 233.539 24.1298ZM245.1 10.1743L239.82 25.2498H237.882L243.162 10.1743H245.1ZM258.949 23.9343H256.407L253.616 14.9743L250.736 23.9343H248.194L244.282 11.4898H246.754L249.598 20.6987L252.567 11.4898H254.771L257.669 20.7698L260.585 11.4898H262.86L258.949 23.9343Z" fill="#5A81FA"/>
</svg>
