<svg width="208" height="80" viewBox="0 0 208 80" fill="none" xmlns="http://www.w3.org/2000/svg">
<path opacity="0.3" d="M84.6638 37.9526C89.849 39.434 93.849 41.8415 96.6638 45.1748C99.4786 48.5081 100.886 52.5081 100.886 57.1748C100.886 64.0637 98.1823 69.5081 92.7749 73.5081C87.3675 77.5081 79.9972 79.5081 70.6638 79.5081C61.2564 79.5081 53.849 77.5081 48.4416 73.5081C43.1083 69.5081 40.4416 64.0637 40.4416 57.1748C40.4416 52.4341 41.849 48.4341 44.6638 45.1748C47.4786 41.8415 51.4786 39.434 56.6638 37.9526C52.3675 36.5452 49.0342 34.397 46.6638 31.5081C44.3675 28.5452 43.2194 24.9896 43.2194 20.8415C43.2194 14.4711 45.7009 9.43405 50.6638 5.73034C55.7009 2.02664 62.3675 0.174787 70.6638 0.174787C78.9601 0.174787 85.5898 2.02664 90.5527 5.73034C95.5897 9.43405 98.1083 14.4711 98.1083 20.8415C98.1083 24.9896 96.9231 28.5452 94.5527 31.5081C92.2564 34.397 88.9601 36.5452 84.6638 37.9526ZM70.6638 6.84146C64.812 6.84146 60.1823 8.13775 56.7749 10.7303C53.4416 13.2489 51.7749 16.6933 51.7749 21.0637C51.7749 25.36 53.4416 28.7674 56.7749 31.2859C60.1083 33.8044 64.7379 35.0637 70.6638 35.0637C76.5898 35.0637 81.2564 33.8044 84.6638 31.2859C88.0712 28.7674 89.7749 25.36 89.7749 21.0637C89.7749 16.6933 88.0342 13.2489 84.5527 10.7303C81.0712 8.13775 76.4416 6.84146 70.6638 6.84146ZM70.6638 72.8415C77.4046 72.8415 82.7009 71.4341 86.5527 68.6192C90.4786 65.8044 92.4416 61.9526 92.4416 57.0637C92.4416 52.1748 90.4786 48.3229 86.5527 45.5081C82.7009 42.6933 77.4046 41.2859 70.6638 41.2859C63.849 41.2859 58.5527 42.6933 54.7749 45.5081C50.9972 48.3229 49.1083 52.1748 49.1083 57.0637C49.1083 61.9526 50.9972 65.8044 54.7749 68.6192C58.5527 71.4341 63.849 72.8415 70.6638 72.8415ZM134.141 0.174787C144.437 0.174787 152.326 3.5822 157.807 10.397C163.363 17.2118 166.141 26.8044 166.141 39.1748C166.141 47.8415 164.659 55.2118 161.696 61.2859C158.733 67.2859 154.585 71.8415 149.252 74.9526C143.919 77.9896 137.659 79.5081 130.474 79.5081C122.77 79.5081 116.585 78.0266 111.919 75.0637L115.252 68.7303C118.956 71.1007 123.993 72.2859 130.363 72.2859C138.363 72.2859 144.733 69.8415 149.474 64.9526C154.289 59.9896 156.882 52.8044 157.252 43.397C157.326 42.6563 157.363 41.4711 157.363 39.8415C157.363 37.397 157.215 35.1378 156.919 33.0637C155.363 37.5822 152.474 41.1378 148.252 43.7303C144.03 46.2489 139.141 47.5081 133.585 47.5081C128.474 47.5081 123.919 46.5452 119.919 44.6192C115.993 42.6933 112.919 39.9896 110.696 36.5081C108.548 33.0266 107.474 28.9526 107.474 24.2859C107.474 19.4711 108.622 15.2489 110.919 11.6192C113.215 7.9896 116.4 5.17479 120.474 3.17479C124.548 1.17479 129.104 0.174787 134.141 0.174787ZM135.141 40.8415C138.919 40.8415 142.289 40.1007 145.252 38.6192C148.289 37.1378 150.622 35.1007 152.252 32.5081C153.956 29.8415 154.807 26.9155 154.807 23.7303C154.807 20.7674 153.993 18.0266 152.363 15.5081C150.807 12.9155 148.511 10.8415 145.474 9.2859C142.437 7.73034 138.77 6.95257 134.474 6.95257C128.919 6.95257 124.4 8.50812 120.919 11.6192C117.511 14.6563 115.807 18.7303 115.807 23.8415C115.807 29.0266 117.511 33.1748 120.919 36.2859C124.4 39.3229 129.141 40.8415 135.141 40.8415Z" fill="#5A81FA"/>
<path opacity="0.5" d="M98.2786 79H43.6119V73.3333L75.8341 41.5556C79.9082 37.5556 82.6489 34.1111 84.0563 31.2222C85.4637 28.3333 86.1674 25.3704 86.1674 22.3333C86.1674 17.8148 84.6119 14.2593 81.5008 11.6667C78.3897 9.07407 73.9452 7.77778 68.1674 7.77778C59.0563 7.77778 52.0934 10.7407 47.2786 16.6667L41.1674 12.2222C44.1304 8.44444 47.9452 5.55555 52.6119 3.55555C57.3526 1.48148 62.76 0.44444 68.8341 0.44444C76.686 0.44444 82.9452 2.37037 87.6119 6.22222C92.3526 10 94.723 15.1481 94.723 21.6667C94.723 25.6667 93.7971 29.5185 91.9452 33.2222C90.1674 36.8519 86.8341 41.037 81.9452 45.7778L55.8341 71.7778H98.2786V79ZM138.311 34.6667C146.459 35.037 152.681 37.2222 156.978 41.2222C161.274 45.1481 163.422 50.2963 163.422 56.6667C163.422 61.1111 162.348 65.0741 160.2 68.5556C158.052 72.037 154.867 74.7778 150.644 76.7778C146.422 78.7778 141.274 79.7778 135.2 79.7778C129.57 79.7778 124.237 78.8889 119.2 77.1111C114.237 75.2593 110.274 72.8148 107.311 69.7778L110.978 63.4444C113.57 66.1111 116.978 68.2963 121.2 70C125.496 71.6296 130.089 72.4444 134.978 72.4444C141.422 72.4444 146.348 71.037 149.756 68.2222C153.237 65.4074 154.978 61.5556 154.978 56.6667C154.978 51.7778 153.237 47.963 149.756 45.2222C146.348 42.4815 141.126 41.1111 134.089 41.1111H128.533V35.4444L149.978 8.33333H110.311V1.22222H160.311V6.88889L138.311 34.6667Z" fill="#5A81FA"/>
<path d="M98.8793 55.397C98.8793 52.434 99.3607 49.8044 100.324 47.5081C101.361 45.2118 102.583 43.2859 103.99 41.7303C105.398 40.1748 107.287 38.3229 109.657 36.1748C111.805 34.1748 113.472 32.5452 114.657 31.2859C115.842 29.9526 116.842 28.434 117.657 26.7303C118.472 24.9526 118.879 22.9526 118.879 20.7303C118.879 16.6563 117.324 13.397 114.213 10.9526C111.101 8.50812 106.731 7.2859 101.101 7.2859C92.0644 7.2859 85.1015 10.2859 80.2126 16.2859L73.9904 12.1748C80.2126 4.17479 89.5089 0.174787 101.879 0.174787C109.657 0.174787 115.842 1.95256 120.435 5.50812C125.101 8.9896 127.435 13.6933 127.435 19.6192C127.435 22.6563 126.916 25.36 125.879 27.7303C124.916 30.0266 123.694 31.9896 122.213 33.6192C120.805 35.2489 118.916 37.1378 116.546 39.2859C113.361 42.1007 110.953 44.6563 109.324 46.9526C107.768 49.2489 106.99 52.0637 106.99 55.397H98.8793ZM102.99 79.2859C101.287 79.2859 99.8793 78.7303 98.7681 77.6192C97.657 76.5081 97.1015 75.1378 97.1015 73.5081C97.1015 71.8785 97.657 70.5081 98.7681 69.397C99.8793 68.2859 101.287 67.7303 102.99 67.7303C104.694 67.7303 106.101 68.2859 107.213 69.397C108.398 70.5081 108.99 71.8785 108.99 73.5081C108.99 75.1378 108.398 76.5081 107.213 77.6192C106.101 78.7303 104.694 79.2859 102.99 79.2859Z" fill="#5A81FA"/>
</svg>
