<svg width="308" height="57" viewBox="0 0 308 57" fill="none" xmlns="http://www.w3.org/2000/svg">
<path d="M17.6171 20.837H16.1771V0.357025H17.6171V20.837ZM7.64375 2.62369C7.60819 5.37925 7.38597 7.78814 6.97708 9.85036L13.6971 18.3837L12.5504 19.2637L6.57708 11.557C5.95486 13.8504 5.10153 15.6815 4.01708 17.0504C2.95042 18.4015 1.69708 19.2104 0.257083 19.477V17.9837C1.48375 17.6992 2.53264 16.8637 3.40375 15.477C4.29264 14.0904 4.96819 12.2859 5.43042 10.0637C5.91042 7.84147 6.16819 5.36147 6.20375 2.62369H0.657083V1.23703H13.0838V2.62369H7.64375ZM37.2143 7.61036V2.06369H22.2809V0.730359H38.6809V7.61036H37.2143ZM20.8676 10.4104V9.07703H40.1743V10.4104H20.8676ZM22.3343 20.4637V12.9437H38.7076V20.4637H22.3343ZM37.2943 14.2504H23.7743V19.157H37.2943V14.2504ZM64.5649 10.4904V20.837H63.1249V0.357025H64.5649V9.07703H67.5249V10.4904H64.5649ZM55.2849 0.943692C55.2493 4.30369 54.9916 7.20147 54.5116 9.63703L60.9116 18.5437L59.7649 19.4237L54.0582 11.397C53.4182 13.797 52.5471 15.6992 51.4449 17.1037C50.3427 18.5081 49.036 19.2992 47.5249 19.477V18.0104C48.8938 17.7615 50.0493 16.837 50.9916 15.237C51.9338 13.637 52.636 11.5926 53.0982 9.10369C53.5605 6.6148 53.8005 3.88591 53.8182 0.917025L55.2849 0.943692ZM87.6821 11.5837H68.3754V10.277H72.9621V7.31703C71.9132 7.03258 71.0865 6.62369 70.4821 6.09036C69.8954 5.55703 69.6021 4.90814 69.6021 4.14369C69.6021 2.86369 70.3932 1.91258 71.9754 1.29036C73.5576 0.650359 75.5754 0.330359 78.0287 0.330359C80.4821 0.330359 82.4999 0.650359 84.0821 1.29036C85.6643 1.91258 86.4554 2.86369 86.4554 4.14369C86.4554 4.90814 86.1532 5.55703 85.5487 6.09036C84.9621 6.62369 84.1354 7.03258 83.0688 7.31703V10.277H87.6821V11.5837ZM78.0287 1.61036C76.0554 1.61036 74.4021 1.82369 73.0688 2.25036C71.7354 2.67702 71.0688 3.30814 71.0688 4.14369C71.0688 4.97925 71.7354 5.61036 73.0688 6.03703C74.4021 6.46369 76.0554 6.67702 78.0287 6.67702C80.0021 6.67702 81.6465 6.46369 82.9621 6.03703C84.2954 5.61036 84.9621 4.97925 84.9621 4.14369C84.9621 3.30814 84.2954 2.67702 82.9621 2.25036C81.6465 1.82369 80.0021 1.61036 78.0287 1.61036ZM81.6288 10.277V7.66369C80.651 7.85925 79.451 7.95703 78.0287 7.95703C76.6065 7.95703 75.3976 7.85925 74.4021 7.66369V10.277H81.6288ZM78.0287 13.6637C80.4999 13.6637 82.5176 13.9392 84.0821 14.4904C85.6465 15.0237 86.4288 15.9215 86.4288 17.1837C86.4288 18.4637 85.6376 19.3792 84.0554 19.9304C82.491 20.4992 80.4821 20.7837 78.0287 20.7837C75.5754 20.7837 73.5576 20.4992 71.9754 19.9304C70.411 19.3792 69.6288 18.4637 69.6288 17.1837C69.6288 15.9215 70.411 15.0237 71.9754 14.4904C73.5399 13.9392 75.5576 13.6637 78.0287 13.6637ZM78.0287 19.5037C79.931 19.5037 81.5488 19.3259 82.8821 18.9704C84.2154 18.597 84.8821 18.0015 84.8821 17.1837C84.8821 16.3837 84.2243 15.8148 82.9088 15.477C81.5932 15.1215 79.9665 14.9437 78.0287 14.9437C76.091 14.9437 74.4554 15.1215 73.1221 15.477C71.8065 15.8148 71.1488 16.3837 71.1488 17.1837C71.1488 18.0015 71.8154 18.597 73.1488 18.9704C74.4999 19.3259 76.1265 19.5037 78.0287 19.5037ZM102.559 3.90369V5.29036H89.9459V3.90369H95.5193V0.303691H96.9859V3.90369H102.559ZM106.799 10.4904V20.837H105.359V0.357025H106.799V9.07703H109.759V10.4904H106.799ZM96.2393 7.31703C97.2348 7.31703 98.1326 7.5748 98.9326 8.09036C99.7504 8.60591 100.39 9.3348 100.853 10.277C101.315 11.2192 101.546 12.3037 101.546 13.5304C101.546 14.757 101.315 15.8415 100.853 16.7837C100.39 17.7081 99.7504 18.4281 98.9326 18.9437C98.1326 19.4592 97.2348 19.717 96.2393 19.717C95.2437 19.717 94.3459 19.4592 93.5459 18.9437C92.7459 18.4281 92.1148 17.7081 91.6526 16.7837C91.1904 15.8415 90.9593 14.757 90.9593 13.5304C90.9593 12.3037 91.1904 11.2192 91.6526 10.277C92.1148 9.3348 92.7459 8.60591 93.5459 8.09036C94.3459 7.5748 95.2437 7.31703 96.2393 7.31703ZM96.2393 18.357C96.9504 18.357 97.5993 18.1615 98.1859 17.7704C98.7726 17.3615 99.2348 16.7926 99.5726 16.0637C99.9282 15.3348 100.106 14.4904 100.106 13.5304C100.106 12.5704 99.9282 11.7259 99.5726 10.997C99.2348 10.2504 98.7726 9.68147 98.1859 9.29036C97.5993 8.88147 96.9504 8.67703 96.2393 8.67703C95.5282 8.67703 94.8793 8.88147 94.2926 9.29036C93.7059 9.68147 93.2348 10.2504 92.8793 10.997C92.5415 11.7259 92.3726 12.5704 92.3726 13.5304C92.3726 14.4904 92.5415 15.3348 92.8793 16.0637C93.2348 16.7926 93.7059 17.3615 94.2926 17.7704C94.8793 18.1615 95.5282 18.357 96.2393 18.357ZM111.89 2.62369V1.21036H128.503V14.7304H127.036V2.62369H111.89ZM129.916 19.717H110.61V18.3037H118.316V8.54369H119.783V18.3037H129.916V19.717ZM155.4 20.837H154.014V0.357025H155.4V20.837ZM150.707 0.490359V20.4904H149.32V13.7704H144.2C143.525 15.5481 142.618 16.9348 141.48 17.9304C140.36 18.9081 139.054 19.397 137.56 19.397V17.9837C138.858 17.9659 139.987 17.4681 140.947 16.4904C141.907 15.5126 142.645 14.1615 143.16 12.437C143.676 10.7126 143.934 8.73925 143.934 6.51702V2.62369H137.56V1.23703H145.347V5.87703H149.32V0.490359H150.707ZM149.32 7.31703H145.347C145.258 9.20147 145.009 10.8815 144.6 12.357H149.32V7.31703ZM174.544 15.5837V0.357025H175.984V15.5837H174.544ZM164.838 7.13036C164.144 8.51702 163.246 9.66369 162.144 10.5704C161.06 11.477 159.824 12.0637 158.438 12.3304V10.8904C159.735 10.6059 160.864 9.96591 161.824 8.97036C162.784 7.9748 163.522 6.74814 164.038 5.29036C164.553 3.8148 164.82 2.25036 164.838 0.597025L166.251 0.677025C166.251 2.56147 165.975 4.26814 165.424 5.79703L171.984 11.0237L171.078 12.1704L164.838 7.13036ZM176.624 20.437H159.904V14.2504H161.344V19.0504H176.624V20.437ZM184.428 4.41036V3.05036H190.322V0.117025H191.788V3.05036H197.682V4.41036H184.428ZM201.868 10.3037V20.837H200.428V0.357025H201.868V8.89036H204.775V10.3037H201.868ZM191.788 18.117C195.024 18.0815 197.273 17.7615 198.535 17.157V18.597C197.913 18.8815 196.988 19.1037 195.762 19.2637C194.535 19.4059 193.122 19.477 191.522 19.477H184.508V18.117H190.348V14.357C188.855 14.2681 187.69 13.8504 186.855 13.1037C186.019 12.357 185.602 11.397 185.602 10.2237C185.602 8.94369 186.082 7.92147 187.042 7.15703C188.019 6.3748 189.37 5.98369 191.095 5.98369C192.802 5.98369 194.144 6.3748 195.122 7.15703C196.099 7.92147 196.588 8.94369 196.588 10.2237C196.588 11.397 196.162 12.3659 195.308 13.1304C194.473 13.877 193.299 14.2948 191.788 14.3837V18.117ZM186.988 10.2237C186.988 11.0592 187.335 11.7526 188.028 12.3037C188.739 12.8548 189.762 13.1304 191.095 13.1304C192.428 13.1304 193.442 12.8548 194.135 12.3037C194.846 11.7526 195.202 11.0592 195.202 10.2237C195.202 9.37036 194.846 8.66814 194.135 8.11703C193.442 7.56591 192.428 7.29036 191.095 7.29036C189.762 7.29036 188.739 7.56591 188.028 8.11703C187.335 8.66814 186.988 9.37036 186.988 10.2237ZM225.892 6.09036H222.932V11.6904H221.492V0.357025H222.932V4.65036H225.892V6.09036ZM212.319 6.43703C211.697 7.71703 210.834 8.76591 209.732 9.58369C208.648 10.3837 207.377 10.8992 205.919 11.1304V9.74369C207.679 9.42369 209.083 8.6148 210.132 7.31703C211.181 6.00147 211.759 4.34814 211.865 2.35702H206.159V1.02369H218.585V2.35702H213.305C213.252 3.42369 213.092 4.38369 212.825 5.23702L219.199 9.50369L218.425 10.677L212.319 6.43703ZM215.145 12.5437C217.581 12.5437 219.537 12.8815 221.012 13.557C222.505 14.2326 223.252 15.2637 223.252 16.6504C223.252 18.037 222.505 19.0681 221.012 19.7437C219.537 20.4015 217.581 20.7304 215.145 20.7304C212.71 20.7304 210.745 20.4015 209.252 19.7437C207.777 19.0681 207.039 18.037 207.039 16.6504C207.039 15.2637 207.777 14.2326 209.252 13.557C210.745 12.8815 212.71 12.5437 215.145 12.5437ZM215.145 19.397C217.083 19.397 218.665 19.1659 219.892 18.7037C221.137 18.2237 221.759 17.5392 221.759 16.6504C221.759 15.7437 221.137 15.0592 219.892 14.597C218.665 14.117 217.083 13.877 215.145 13.877C213.208 13.877 211.625 14.117 210.399 14.597C209.172 15.0592 208.559 15.7437 208.559 16.6504C208.559 17.5392 209.172 18.2237 210.399 18.7037C211.625 19.1659 213.208 19.397 215.145 19.397ZM227.916 8.09036V6.81036H231.623V1.98369H228.129V0.730359H244.663V1.98369H241.169V6.81036H244.849V8.09036H227.916ZM239.729 6.81036V1.98369H233.063V6.81036H239.729ZM237.116 14.3037H244.583V20.4637H228.209V14.3037H235.676V11.637H226.743V10.357H246.049V11.637H237.116V14.3037ZM229.649 15.557V19.2104H243.169V15.557H229.649ZM249.646 17.6904C249.984 17.6904 250.26 17.8059 250.473 18.037C250.704 18.2681 250.82 18.5437 250.82 18.8637C250.82 19.0415 250.793 19.237 250.74 19.4504C250.704 19.6459 250.642 19.8681 250.553 20.117L249.513 23.7437H248.5L249.38 19.9837C249.113 19.9126 248.9 19.7792 248.74 19.5837C248.58 19.3881 248.5 19.1481 248.5 18.8637C248.5 18.5259 248.606 18.2504 248.82 18.037C249.033 17.8059 249.309 17.6904 249.646 17.6904ZM18.1504 55.837H16.7371V45.3837H12.7638V55.4904H11.3771V35.4904H12.7638V43.997H16.7371V35.357H18.1504V55.837ZM5.16375 53.0904C5.99931 53.0904 6.80819 53.0192 7.59042 52.877C8.39042 52.7348 9.09264 52.5304 9.69708 52.2637V53.6504C9.11042 53.917 8.39931 54.1215 7.56375 54.2637C6.74597 54.4059 5.87486 54.477 4.95042 54.477H0.497083V36.1837H1.88375V53.0904H5.16375ZM43.981 55.837H42.541V35.357H43.981V55.837ZM36.9944 52.877C38.4166 52.6992 39.661 52.3259 40.7277 51.757V53.2237C40.0344 53.597 39.0655 53.8992 37.821 54.1304C36.5944 54.3615 35.1988 54.477 33.6344 54.477H26.5677V53.0904H29.2077V37.6237H26.6744V36.237H39.5277V37.6237H36.9944V52.877ZM33.2344 53.0904C34.0877 53.0904 34.861 53.0637 35.5544 53.0104V37.6237H30.6477V53.0904H33.2344ZM48.7249 46.1304V35.7837H50.1649V39.197H63.6582V35.7837H65.0982V46.1304H48.7249ZM63.6582 40.557H50.1649V44.7704H63.6582V40.557ZM57.6316 50.0237V56.317H56.1916V50.0237H47.2582V48.6104H66.5649V50.0237H57.6316ZM85.7354 45.3037V55.837H84.2954V35.357H85.7354V43.8904H88.6421V45.3037H85.7354ZM75.4421 53.0637C78.7488 53.0637 81.0688 52.7615 82.4021 52.157V53.597C80.9443 54.1837 78.6065 54.477 75.3888 54.477H68.3754V53.0637H74.0021V48.477C73.0065 48.3704 72.1265 48.0415 71.3621 47.4904C70.5976 46.9215 70.0021 46.1837 69.5754 45.277C69.1488 44.3704 68.9354 43.357 68.9354 42.237C68.9354 41.0281 69.1843 39.9437 69.6821 38.9837C70.1799 38.0237 70.8643 37.277 71.7354 36.7437C72.6243 36.2104 73.6199 35.9437 74.7221 35.9437C75.8421 35.9437 76.8465 36.2104 77.7354 36.7437C78.6243 37.277 79.3176 38.0237 79.8154 38.9837C80.3132 39.9437 80.5621 41.0281 80.5621 42.237C80.5621 43.357 80.3399 44.3704 79.8954 45.277C79.4688 46.1837 78.8643 46.9215 78.0821 47.4904C77.3176 48.0415 76.4376 48.3704 75.4421 48.477V53.0637ZM74.7221 37.3037C73.851 37.3037 73.0865 37.517 72.4288 37.9437C71.771 38.3704 71.2554 38.9659 70.8821 39.7304C70.5265 40.477 70.3488 41.3126 70.3488 42.237C70.3488 43.1615 70.5265 44.0059 70.8821 44.7704C71.2554 45.517 71.771 46.1037 72.4288 46.5304C73.0865 46.957 73.851 47.1704 74.7221 47.1704C75.5932 47.1704 76.3665 46.957 77.0421 46.5304C77.7176 46.1037 78.2332 45.517 78.5888 44.7704C78.9621 44.0059 79.1488 43.1615 79.1488 42.237C79.1488 41.3126 78.9621 40.477 78.5888 39.7304C78.2332 38.9659 77.7176 38.3704 77.0421 37.9437C76.3665 37.517 75.5932 37.3037 74.7221 37.3037ZM105.999 55.837V35.357H107.413V55.837H105.999ZM96.1326 35.9437C97.2704 35.9437 98.2837 36.2192 99.1726 36.7704C100.079 37.3037 100.781 38.0504 101.279 39.0104C101.795 39.9704 102.053 41.0637 102.053 42.2904C102.053 43.4992 101.795 44.5837 101.279 45.5437C100.781 46.5037 100.079 47.2592 99.1726 47.8104C98.2837 48.3437 97.2704 48.6104 96.1326 48.6104C94.9948 48.6104 93.9726 48.3437 93.0659 47.8104C92.177 47.2592 91.4748 46.5037 90.9593 45.5437C90.4615 44.5837 90.2126 43.4992 90.2126 42.2904C90.2126 41.0637 90.4615 39.9704 90.9593 39.0104C91.4748 38.0504 92.177 37.3037 93.0659 36.7704C93.9726 36.2192 94.9948 35.9437 96.1326 35.9437ZM96.1326 37.3037C95.2437 37.3037 94.4615 37.5259 93.7859 37.9704C93.1104 38.397 92.577 38.9926 92.1859 39.757C91.8126 40.5037 91.6259 41.3481 91.6259 42.2904C91.6259 43.2148 91.8126 44.0592 92.1859 44.8237C92.577 45.5704 93.1104 46.157 93.7859 46.5837C94.4615 47.0104 95.2437 47.2237 96.1326 47.2237C97.0215 47.2237 97.8037 47.0104 98.4793 46.5837C99.1726 46.157 99.7059 45.5704 100.079 44.8237C100.453 44.0592 100.639 43.2148 100.639 42.2904C100.639 41.3481 100.453 40.5037 100.079 39.757C99.7059 38.9926 99.1726 38.397 98.4793 37.9704C97.8037 37.5259 97.0215 37.3037 96.1326 37.3037ZM104.079 53.437C103.404 53.7748 102.444 54.0326 101.199 54.2104C99.9548 54.3881 98.5148 54.477 96.8793 54.477H89.4926V53.0637H97.0126C98.5948 53.0637 99.9993 52.9748 101.226 52.797C102.453 52.6192 103.404 52.3615 104.079 52.0237V53.437ZM134.203 46.6637H131.803V41.3304H128.123V39.1437H131.803V35.357H134.203V46.6637ZM122.657 42.2637C121.963 43.4015 121.065 44.317 119.963 45.0104C118.861 45.7037 117.608 46.1304 116.203 46.2904V44.0237C117.75 43.8104 118.994 43.1704 119.937 42.1037C120.897 41.0192 121.448 39.6504 121.59 37.997H116.443V35.837H128.87V37.997H124.017C123.963 38.8681 123.821 39.6326 123.59 40.2904L129.537 44.2104L128.337 46.1037L122.657 42.2637ZM134.203 47.757V55.597H117.537V47.757H134.203ZM131.803 53.4637V49.8637H119.963V53.4637H131.803ZM146.414 41.1704C145.329 42.717 143.978 43.9437 142.36 44.8504C140.76 45.757 139.098 46.2192 137.374 46.237V43.837C138.743 43.837 140.058 43.4548 141.32 42.6904C142.6 41.9259 143.685 40.8859 144.574 39.5704C145.463 38.237 146.04 36.7704 146.307 35.1704L148.787 35.597C148.574 36.7704 148.174 37.9792 147.587 39.2237L155.96 44.1037L154.814 46.2104L146.414 41.1704ZM147.88 50.6904V56.317H145.427V50.6904H136.92V48.3437H156.387V50.6904H147.88ZM176.144 41.757V43.117H159.638V35.4104H161.078V41.757H176.144ZM158.118 47.277V45.9437H177.424V47.277H158.118ZM176.384 54.1037V55.4637H159.584V49.4904H161.051V54.1037H176.384ZM197.335 43.3304V41.997H201.122V38.7437H197.335V37.4104H201.122V35.357H202.535V46.6637H201.122V43.3304H197.335ZM185.468 44.877V35.997H196.082V44.877H185.468ZM186.882 37.3304V43.517H194.642V37.3304H186.882ZM194.055 52.1837C193.237 53.197 192.099 53.997 190.642 54.5837C189.184 55.1526 187.664 55.437 186.082 55.437V54.1304C187.255 54.1304 188.402 53.9437 189.522 53.5704C190.659 53.1792 191.61 52.637 192.375 51.9437C193.157 51.2504 193.628 50.4681 193.788 49.597H186.188V48.3437H193.788V46.2104H195.255V48.3437H202.855V49.597H195.282C195.193 50.2015 195.033 50.6992 194.802 51.0904L203.255 54.477L202.748 55.7304L194.055 52.1837ZM228.926 46.6904H227.486V40.9037H223.112V39.5704H227.486V35.357H228.926V46.6904ZM217.646 41.6504C217.023 42.877 216.17 43.8726 215.086 44.637C214.001 45.4015 212.739 45.8992 211.299 46.1304V44.7437C213.077 44.4237 214.481 43.6326 215.512 42.3704C216.561 41.0904 217.148 39.4192 217.272 37.357H211.539V36.0237H223.992V37.357H218.712C218.659 38.4237 218.481 39.4281 218.179 40.3704L224.606 44.797L223.832 45.9704L217.646 41.6504ZM228.926 48.0237V55.437H212.792V48.0237H228.926ZM227.486 54.1037V49.357H214.232V54.1037H227.486ZM248.443 45.437V35.357H249.883V45.437H248.443ZM238.416 35.6504C239.625 35.6504 240.674 35.8548 241.563 36.2637C242.452 36.6548 243.136 37.2059 243.616 37.917C244.096 38.6281 244.336 39.437 244.336 40.3437C244.336 41.2504 244.096 42.0592 243.616 42.7704C243.136 43.4637 242.452 44.0148 241.563 44.4237C240.674 44.8148 239.625 45.0104 238.416 45.0104C237.207 45.0104 236.158 44.8148 235.269 44.4237C234.398 44.0148 233.723 43.4637 233.243 42.7704C232.78 42.0592 232.549 41.2504 232.549 40.3437C232.549 39.437 232.78 38.6281 233.243 37.917C233.723 37.2059 234.407 36.6548 235.296 36.2637C236.185 35.8548 237.225 35.6504 238.416 35.6504ZM238.416 36.9304C237.083 36.9304 236.007 37.2326 235.189 37.837C234.372 38.4237 233.963 39.2592 233.963 40.3437C233.963 41.4281 234.372 42.2637 235.189 42.8504C236.007 43.437 237.083 43.7304 238.416 43.7304C239.767 43.7304 240.852 43.437 241.669 42.8504C242.505 42.2637 242.923 41.4281 242.923 40.3437C242.923 39.2592 242.505 38.4237 241.669 37.837C240.852 37.2326 239.767 36.9304 238.416 36.9304ZM235.509 51.7037V54.1837H250.496V55.437H234.069V50.5304H248.443V48.0237H234.016V46.7704H249.883V51.7037H235.509ZM270.573 45.4904V55.837H269.16V35.357H270.573V44.077H273.4V45.4904H270.573ZM259.027 36.237V40.6904C259.027 44.637 258.618 47.7659 257.8 50.077C256.982 52.3704 255.613 53.5704 253.693 53.677V52.2637C255.115 52.1392 256.129 51.0726 256.733 49.0637C257.338 47.0548 257.64 44.317 257.64 40.8504V37.6237H253.693V36.237H259.027ZM265.56 36.237V41.0904C265.56 45.2326 265.08 48.4592 264.12 50.7704C263.16 53.0815 261.684 54.2904 259.693 54.397V52.9837C261.187 52.8592 262.298 51.7926 263.027 49.7837C263.755 47.757 264.12 44.9037 264.12 41.2237V37.6237H260.227V36.237H265.56ZM293.557 54.717H274.25V53.3304H279.05V47.1437C277.842 46.6281 276.908 45.9348 276.25 45.0637C275.61 44.1748 275.29 43.1348 275.29 41.9437C275.29 40.717 275.646 39.6504 276.357 38.7437C277.068 37.837 278.073 37.1348 279.37 36.637C280.668 36.1392 282.179 35.8904 283.904 35.8904C285.628 35.8904 287.139 36.1392 288.437 36.637C289.735 37.1348 290.739 37.837 291.45 38.7437C292.162 39.6504 292.517 40.717 292.517 41.9437C292.517 43.1348 292.188 44.1748 291.53 45.0637C290.89 45.9348 289.975 46.6281 288.784 47.1437V53.3304H293.557V54.717ZM283.904 37.277C282.482 37.277 281.237 37.4726 280.17 37.8637C279.104 38.237 278.277 38.7792 277.69 39.4904C277.104 40.2015 276.81 41.0192 276.81 41.9437C276.81 42.8859 277.104 43.7126 277.69 44.4237C278.277 45.1348 279.104 45.6859 280.17 46.077C281.237 46.4504 282.482 46.637 283.904 46.637C285.326 46.637 286.57 46.4504 287.637 46.077C288.704 45.6859 289.53 45.1348 290.117 44.4237C290.704 43.7126 290.997 42.8859 290.997 41.9437C290.997 41.0192 290.704 40.2015 290.117 39.4904C289.53 38.7792 288.704 38.237 287.637 37.8637C286.57 37.4726 285.326 37.277 283.904 37.277ZM287.344 53.3304V47.6237C286.33 47.8904 285.184 48.0237 283.904 48.0237C282.642 48.0237 281.504 47.8904 280.49 47.6237V53.3304H287.344ZM300.888 49.5437C300.888 48.8148 301.003 48.1748 301.234 47.6237C301.483 47.0548 301.776 46.5837 302.114 46.2104C302.452 45.8192 302.914 45.3659 303.501 44.8504C304.034 44.3704 304.452 43.9704 304.754 43.6504C305.056 43.3126 305.314 42.9126 305.528 42.4504C305.741 41.9881 305.848 41.4637 305.848 40.877C305.848 39.8281 305.439 38.9837 304.621 38.3437C303.821 37.6859 302.692 37.357 301.234 37.357C298.923 37.357 297.154 38.0948 295.928 39.5704L294.861 38.797C295.59 37.9437 296.496 37.2859 297.581 36.8237C298.665 36.3615 299.919 36.1304 301.341 36.1304C303.172 36.1304 304.63 36.5481 305.714 37.3837C306.799 38.2015 307.341 39.3037 307.341 40.6904C307.341 41.437 307.216 42.0948 306.968 42.6637C306.736 43.2148 306.443 43.6948 306.088 44.1037C305.75 44.4948 305.288 44.9481 304.701 45.4637C303.919 46.157 303.323 46.797 302.914 47.3837C302.523 47.9526 302.328 48.6726 302.328 49.5437H300.888ZM301.608 55.037C301.288 55.037 301.012 54.9304 300.781 54.717C300.568 54.4859 300.461 54.2192 300.461 53.917C300.461 53.597 300.568 53.3304 300.781 53.117C301.012 52.9037 301.288 52.797 301.608 52.797C301.928 52.797 302.203 52.9037 302.434 53.117C302.665 53.3304 302.781 53.597 302.781 53.917C302.781 54.2192 302.665 54.4859 302.434 54.717C302.203 54.9304 301.928 55.037 301.608 55.037Z" fill="#343434"/>
</svg>
