<svg width="24" height="20" viewBox="0 0 24 20" fill="none" xmlns="http://www.w3.org/2000/svg">
<path fill-rule="evenodd" clip-rule="evenodd" d="M3.31022 3.01913C4.27037 2.05928 5.57242 1.52006 6.93006 1.52006C8.2877 1.52006 9.58976 2.05928 10.5499 3.01913L12.0501 4.51801L13.5502 3.01913C14.0225 2.53012 14.5875 2.14006 15.2122 1.87173C15.8368 1.6034 16.5087 1.46216 17.1885 1.45625C17.8683 1.45034 18.5425 1.57989 19.1717 1.83732C19.801 2.09476 20.3726 2.47494 20.8534 2.95567C21.3341 3.4364 21.7143 4.00806 21.9717 4.63729C22.2291 5.26651 22.3587 5.94071 22.3528 6.62054C22.3469 7.30037 22.2056 7.97222 21.9373 8.59688C21.669 9.22154 21.2789 9.78651 20.7899 10.2588L12.0501 18.9999L3.31022 10.2588C2.35037 9.29867 1.81116 7.99661 1.81116 6.63897C1.81116 5.28133 2.35037 3.97927 3.31022 3.01913Z" stroke="#567DFA" stroke-width="1.92341" stroke-linejoin="round"/>
</svg>
