<svg width="77" height="20" viewBox="0 0 77 20" fill="none" xmlns="http://www.w3.org/2000/svg">
<path fill-rule="evenodd" clip-rule="evenodd" d="M73.8148 1.66979C73.8148 2.20205 73.3784 2.63353 72.8399 2.63353C72.3015 2.63353 71.8651 2.20205 71.8651 1.66979C71.8651 1.13754 72.3015 0.706055 72.8399 0.706055C73.3784 0.706055 73.8148 1.13754 73.8148 1.66979ZM56.7986 17.3986C56.7986 17.7086 56.5444 17.9599 56.2308 17.9599C55.9173 17.9599 55.6631 17.7086 55.6631 17.3986C55.6631 17.0887 55.9173 16.8374 56.2308 16.8374C56.5444 16.8374 56.7986 17.0887 56.7986 17.3986ZM74.4931 10.6971C74.4931 12.0008 74.2135 13.24 73.7104 14.3592L73.642 14.6147C73.621 15.2643 73.7508 15.8183 74.197 16.0966L74.2148 16.1077L74.215 16.1079L74.2157 16.1083C74.3367 16.1847 74.6624 16.3904 75.0245 16.389C75.111 16.3783 75.1995 16.3744 75.2895 16.3779C76.1803 16.4121 76.8743 17.1537 76.8397 18.0343C76.805 18.9149 76.0548 19.601 75.164 19.5668C74.6016 19.5451 74.1176 19.2415 73.8459 18.799C73.8217 18.761 73.7984 18.719 73.7761 18.6727C73.7323 18.5842 73.6965 18.4911 73.6697 18.3946C73.6546 18.345 73.6403 18.2925 73.6266 18.2369C73.4478 17.5068 72.3545 16.897 71.3758 17.4898C69.7694 18.8807 67.6653 19.7238 65.362 19.7238C60.319 19.7238 56.2308 15.6824 56.2308 10.6971C56.2308 5.71185 60.319 1.67048 65.362 1.67048C70.405 1.67048 74.4931 5.71185 74.4931 10.6971ZM69.7268 16.1007C67.4017 17.9306 64.2651 18.0254 61.8986 16.4602C61.1846 16.0285 60.5694 15.5227 60.2828 15.1208C59.6723 14.1508 59.8264 13.1532 60.5676 12.5699C60.8404 12.3552 61.1014 12.168 61.687 12.0007C62.2727 11.8334 63.7786 11.2903 64.3643 10.8294C65.8703 9.64414 66.5768 7.3991 65.3683 5.2238L65.3566 5.2027C65.2708 5.04823 65.2205 4.95776 65.2065 4.93991C65.0336 4.63814 65.0238 4.22479 65.3133 3.9969C65.7183 3.62837 67.2999 4.07137 67.8901 4.39011C68.9668 4.83365 69.9527 5.55714 70.7301 6.54486C73.083 9.53451 72.6338 13.8128 69.7268 16.1007Z" fill="white"/>
<path d="M46.7717 14.8129L43.6714 7.53027H45.9207L47.8538 12.2111L49.7991 7.53027H52.0483L48.1821 16.5637C47.9146 17.1878 47.5417 17.6377 47.0635 17.9132C46.5853 18.1969 46.0747 18.3388 45.5316 18.3388C45.0048 18.3388 44.5063 18.2172 44.0362 17.974C43.5742 17.739 43.1608 17.3783 42.7961 16.892L44.2672 15.4087C44.4698 15.6762 44.6927 15.8828 44.9359 16.0287C45.1871 16.1827 45.4262 16.2597 45.6532 16.2597C45.8153 16.2597 45.9612 16.2152 46.0909 16.126C46.2206 16.0369 46.3178 15.9112 46.3827 15.7491L46.7717 14.8129Z" fill="white"/>
<path d="M37.5625 7.53024H38.7783V4.6731H40.9059V7.53024H42.7175L42.4743 9.60926H40.9059V11.7612C40.9059 12.2151 40.9343 12.5434 40.991 12.746C41.0478 12.9406 41.1896 13.0378 41.4166 13.0378C41.603 13.0378 41.7773 13.0135 41.9394 12.9649C42.1096 12.9081 42.2717 12.8028 42.4257 12.6488L43.3254 14.4482C43.0741 14.6751 42.7823 14.8413 42.45 14.9466C42.1258 15.0601 41.7813 15.1169 41.4166 15.1169C40.9059 15.1169 40.4804 15.052 40.14 14.9223C39.7995 14.7926 39.528 14.59 39.3254 14.3144C39.1309 14.0469 38.989 13.7025 38.8999 13.281C38.8188 12.8595 38.7783 12.357 38.7783 11.7734V9.60926H37.5625V7.53024Z" fill="white"/>
<path d="M32.026 15.0554C30.8426 15.0554 29.9348 14.7555 29.3026 14.1557C28.6704 13.564 28.3542 12.64 28.3542 11.3837V7.5296H30.4819V11.3837C30.4819 11.8943 30.6156 12.2875 30.8831 12.563C31.1587 12.8386 31.6288 12.9764 32.2935 12.9764C32.8365 12.9764 33.2742 12.8224 33.6065 12.5144C33.9469 12.2064 34.1172 11.712 34.1172 11.0311V7.5296H36.2448V14.8731H34.1172V14.0949C33.8821 14.4111 33.5822 14.6502 33.2175 14.8123C32.8527 14.9744 32.4556 15.0554 32.026 15.0554Z" fill="white"/>
<path d="M24.7002 14.8737V14.205C24.4652 14.5049 24.1612 14.7319 23.7884 14.8859C23.4236 15.0399 23.0143 15.1169 22.5604 15.1169C21.9768 15.1169 21.454 15.0237 20.992 14.8373C20.5381 14.6589 20.1531 14.3996 19.837 14.0591C19.5209 13.7268 19.2818 13.3256 19.1197 12.8555C18.9576 12.3773 18.8765 11.8423 18.8765 11.2506C18.8765 10.5698 18.9738 9.98214 19.1683 9.48772C19.3628 8.99329 19.6222 8.58802 19.9464 8.27191C20.2706 7.9558 20.6475 7.7248 21.0771 7.5789C21.5067 7.4249 21.9525 7.3479 22.4145 7.3479C22.8441 7.3479 23.2494 7.42085 23.6303 7.56675C24.0194 7.70454 24.3558 7.91528 24.6394 8.19896V7.53027H26.7671V14.8737H24.7002ZM24.6394 11.2506C24.6394 10.6589 24.4773 10.2091 24.1531 9.90109C23.8289 9.58498 23.3831 9.42693 22.8157 9.42693C22.5726 9.42693 22.3416 9.4634 22.1227 9.53635C21.9039 9.6093 21.7094 9.72277 21.5391 9.87677C21.377 10.0227 21.2473 10.2131 21.1501 10.4482C21.0528 10.6752 21.0042 10.9426 21.0042 11.2506C21.0042 11.7775 21.1582 12.2071 21.4662 12.5394C21.7823 12.8717 22.2362 13.0379 22.8279 13.0379C23.3628 13.0379 23.7965 12.8839 24.1288 12.5759C24.4692 12.2597 24.6394 11.818 24.6394 11.2506Z" fill="white"/>
<path d="M17.6917 14.2532C17.3755 14.4234 17.0797 14.5612 16.8041 14.6666C16.5366 14.7801 16.2732 14.8692 16.0138 14.9341C15.7545 15.007 15.4992 15.0557 15.2479 15.08C14.9966 15.1043 14.7373 15.1165 14.4698 15.1165C13.8213 15.1165 13.2216 15.0476 12.6704 14.9098C12.1192 14.7801 11.6451 14.5612 11.2479 14.2532C10.8507 13.9533 10.5387 13.5602 10.3117 13.0739C10.0929 12.5876 9.98346 11.9878 9.98346 11.2745C9.98346 10.6666 10.0767 10.1195 10.2631 9.63317C10.4576 9.14685 10.7251 8.73753 11.0655 8.40521C11.4141 8.06479 11.8315 7.80541 12.3178 7.6271C12.8041 7.44878 13.3391 7.35962 13.9227 7.35962C14.4171 7.35962 14.8913 7.42851 15.3452 7.56631C15.8072 7.69599 16.2124 7.90268 16.561 8.18637C16.9095 8.46195 17.1851 8.81453 17.3877 9.24412C17.5984 9.6737 17.7038 10.1843 17.7038 10.776V12.162H12.257C12.4191 12.543 12.6906 12.8064 13.0716 12.9523C13.4607 13.0901 13.9308 13.159 14.4819 13.159C14.871 13.159 15.26 13.1104 15.6491 13.0131C16.0382 12.9158 16.4637 12.7497 16.9257 12.5146L17.6917 14.2532ZM13.9835 9.31706C13.643 9.32517 13.3148 9.40622 12.9987 9.56023C12.6907 9.70612 12.4556 9.96144 12.2935 10.3262H15.5518C15.5275 10.1884 15.4708 10.0587 15.3816 9.93712C15.2925 9.81554 15.179 9.71017 15.0412 9.62101C14.9034 9.52375 14.7454 9.4508 14.567 9.40217C14.3887 9.34543 14.1942 9.31706 13.9835 9.31706Z" fill="white"/>
<path d="M8.28705 7.72501C8.28705 8.13838 8.23842 8.50312 8.14115 8.81923C8.052 9.12724 7.93042 9.39877 7.77641 9.63382C8.10063 9.84456 8.34784 10.1323 8.51805 10.497C8.68827 10.8537 8.77337 11.3116 8.77337 11.8709C8.77337 12.4059 8.68016 12.8719 8.49374 13.2691C8.30732 13.6743 8.03984 14.0148 7.69131 14.2904C7.35088 14.5659 6.93346 14.7726 6.43903 14.9104C5.95271 15.0482 5.4056 15.1171 4.79769 15.1171C4.39243 15.1171 3.98716 15.0604 3.58189 14.9469C3.17662 14.8415 2.78351 14.6794 2.40256 14.4606V14.8739H0.274902V4.61255H4.82201C5.33265 4.61255 5.79871 4.66929 6.22018 4.78276C6.64977 4.89624 7.01451 5.07861 7.31441 5.32987C7.62241 5.57303 7.86152 5.8932 8.03173 6.29036C8.20195 6.68752 8.28705 7.16574 8.28705 7.72501ZM2.40256 12.0776C2.7592 12.4423 3.13609 12.6936 3.53326 12.8314C3.93853 12.9692 4.36 13.0381 4.79769 13.0381C5.37317 13.0381 5.82302 12.9449 6.14724 12.7584C6.47956 12.572 6.64572 12.2762 6.64572 11.8709C6.64572 11.6845 6.61735 11.5264 6.56061 11.3967C6.50387 11.2589 6.40256 11.1495 6.25666 11.0685C6.11887 10.9874 5.93244 10.9307 5.69739 10.8983C5.46233 10.8577 5.17054 10.8375 4.82201 10.8375H2.40256V12.0776ZM6.15939 7.72501C6.15939 7.52237 6.12292 7.35621 6.04997 7.22653C5.98513 7.09684 5.89192 6.99147 5.77034 6.91042C5.64876 6.82937 5.50691 6.77263 5.34481 6.74021C5.1827 6.70778 5.00843 6.69157 4.82201 6.69157H2.40256V8.75844H4.82201C5.00843 8.75844 5.1827 8.74223 5.34481 8.70981C5.50691 8.67739 5.64876 8.6247 5.77034 8.55175C5.89192 8.4707 5.98513 8.36533 6.04997 8.23565C6.12292 8.09785 6.15939 7.92764 6.15939 7.72501Z" fill="white"/>
</svg>
