<svg width="3" height="11" viewBox="0 0 3 11" fill="none" xmlns="http://www.w3.org/2000/svg">
<path d="M1.66439 7.8016C2.35742 7.8016 2.91923 8.36341 2.91923 9.05644C2.91923 9.74947 2.35742 10.3113 1.66439 10.3113C0.971357 10.3113 0.409546 9.74947 0.409546 9.05644C0.409546 8.36341 0.971357 7.8016 1.66439 7.8016Z" fill="black"/>
<path d="M1.66439 4.03708C2.35742 4.03708 2.91923 4.59889 2.91923 5.29192C2.91923 5.98495 2.35742 6.54676 1.66439 6.54676C0.971357 6.54676 0.409546 5.98495 0.409546 5.29192C0.409546 4.59889 0.971357 4.03708 1.66439 4.03708Z" fill="black"/>
<path d="M2.91923 1.5274C2.91923 0.834368 2.35742 0.272556 1.66439 0.272556C0.971357 0.272556 0.409546 0.834368 0.409546 1.5274C0.409546 2.22043 0.971357 2.78224 1.66439 2.78224C2.35742 2.78224 2.91923 2.22043 2.91923 1.5274Z" fill="black"/>
</svg>
