<svg width="83" height="82" viewBox="0 0 83 82" fill="none" xmlns="http://www.w3.org/2000/svg">
<circle cx="41.7531" cy="41" r="40.8" fill="white" fill-opacity="0.2"/>
<g opacity="0.9">
<path d="M16.9531 35.6041C16.9531 30.6311 20.9845 26.5997 25.9575 26.5997H55.9488C60.9217 26.5997 64.9531 30.6311 64.9531 35.6041V46.9287C64.9531 51.9017 60.9217 55.9331 55.9488 55.9331H25.9575C20.9845 55.9331 16.9531 51.9017 16.9531 46.9287V35.6041Z" fill="white"/>
<path d="M35.0815 23.9754C35.4335 23.1416 36.2504 22.5997 37.1554 22.5997H45.4511C46.3598 22.5997 47.1795 23.1462 47.529 23.985L48.9864 27.4829C49.6042 28.9656 48.5148 30.5997 46.9085 30.5997H35.6788C34.068 30.5997 32.9785 28.9572 33.6049 27.4732L35.0815 23.9754Z" fill="white"/>
<path d="M50.2858 41.2667C50.2858 46.0532 46.2563 49.9334 41.2858 49.9334C36.3152 49.9334 32.2858 46.0532 32.2858 41.2667C32.2858 36.4802 36.3152 32.6 41.2858 32.6C46.2563 32.6 50.2858 36.4802 50.2858 41.2667Z" fill="white"/>
<path fill-rule="evenodd" clip-rule="evenodd" d="M41.2858 46.5567C44.5127 46.5567 46.9091 44.0693 46.9091 41.2667C46.9091 38.4641 44.5127 35.9766 41.2858 35.9766C38.0588 35.9766 35.6624 38.4641 35.6624 41.2667C35.6624 44.0693 38.0588 46.5567 41.2858 46.5567ZM41.2858 49.9334C46.2563 49.9334 50.2858 46.0532 50.2858 41.2667C50.2858 36.4802 46.2563 32.6 41.2858 32.6C36.3152 32.6 32.2858 36.4802 32.2858 41.2667C32.2858 46.0532 36.3152 49.9334 41.2858 49.9334Z" fill="#9E9995"/>
<circle cx="57.2857" cy="32.9326" r="2.33333" fill="#9E9995"/>
</g>
</svg>
