<svg width="76" height="21" viewBox="0 0 76 21" fill="none" xmlns="http://www.w3.org/2000/svg">
<rect width="75.2" height="20.8" rx="10.4" fill="white" fill-opacity="0.1"/>
<rect x="0.4" y="0.4" width="74.4" height="20" rx="10" stroke="white" stroke-opacity="0.5" stroke-width="0.8"/>
<path d="M14.0727 12.1222L13.1949 14.2H12.3505L15.7172 6.42223H16.5172L19.906 14.2H19.0394L18.1616 12.1222H14.0727ZM16.1283 7.30001L14.3394 11.4556H17.8949L16.1283 7.30001ZM21.5841 6.42223V14.2H20.7841V6.42223H21.5841ZM32.6969 14.5778H31.8969V6.04446H32.6969V14.5778ZM29.7747 13.1889C30.3525 13.1 30.8266 12.9556 31.1969 12.7556V13.5445C30.9154 13.7 30.5303 13.8222 30.0414 13.9111C29.5599 14 29.0154 14.0445 28.408 14.0445H25.3525V13.2778H26.3636V7.14446H25.3969V6.37779H30.7414V7.14446H29.7747V13.1889ZM28.108 13.2778C28.434 13.2778 28.7229 13.2667 28.9747 13.2445V7.14446H27.1636V13.2778H28.108ZM34.5624 10.5556V6.21112H35.3513V7.50001H40.6846V6.21112H41.4735V10.5556H34.5624ZM40.6846 8.24446H35.3513V9.80001H40.6846V8.24446ZM38.4291 12.3V14.7778H37.6069V12.3H33.9735V11.5222H42.0624V12.3H38.4291ZM49.4946 12.3889V6.04446H50.3057V12.3889H49.4946ZM45.6946 9.05557C45.4205 9.61853 45.0501 10.0741 44.5835 10.4222C44.1242 10.7704 43.5946 10.9852 42.9946 11.0667V10.2889C43.6983 10.1704 44.265 9.82223 44.6946 9.24446C45.1242 8.66668 45.3575 7.92594 45.3946 7.02223H43.0946V6.2889H48.339V7.02223H46.1946C46.1872 7.50372 46.1205 7.94446 45.9946 8.34446L48.5724 10.3778L48.1279 11L45.6946 9.05557ZM50.539 14.4445H43.4946V11.7889H44.3057V13.6778H50.539V14.4445ZM60.049 8.94446H58.8712V12.3889H58.0712V6.04446H58.8712V8.14446H60.049V8.94446ZM57.4267 10.4445C57.1675 10.5704 56.7971 10.6667 56.3156 10.7333C55.8342 10.8 55.2897 10.8333 54.6823 10.8333H51.8823V6.27779H56.8267V7.01112H52.6934V10.1H54.7267C55.3193 10.1 55.849 10.0667 56.3156 10C56.7897 9.93335 57.1601 9.83705 57.4267 9.71112V10.4445ZM59.1156 13.6778V14.4445H52.149V11.7222H52.9601V13.6778H59.1156ZM61.9478 6.42223L61.7922 11.8667H61.1478L60.9811 6.42223H61.9478ZM61.4589 14.2556C61.2959 14.2556 61.1552 14.2 61.0367 14.0889C60.9256 13.9778 60.87 13.8408 60.87 13.6778C60.87 13.5148 60.9256 13.3778 61.0367 13.2667C61.1552 13.1556 61.2959 13.1 61.4589 13.1C61.6293 13.1 61.77 13.1556 61.8811 13.2667C61.9997 13.3778 62.0589 13.5148 62.0589 13.6778C62.0589 13.8408 61.9997 13.9778 61.8811 14.0889C61.77 14.2 61.6293 14.2556 61.4589 14.2556Z" fill="white"/>
</svg>
