<svg width="23" height="21" viewBox="0 0 23 21" fill="none" xmlns="http://www.w3.org/2000/svg">
<path d="M2.68953 3.28896C3.16158 2.8169 3.72198 2.44244 4.33875 2.18696C4.95551 1.93148 5.61656 1.79999 6.28414 1.79999C6.95173 1.79999 7.61277 1.93148 8.22954 2.18696C8.8463 2.44244 9.40671 2.8169 9.87875 3.28896L11.5012 4.91143L13.1237 3.28896C14.0772 2.33561 15.3704 1.80008 16.7187 1.80019C18.067 1.80029 19.3601 2.33602 20.3135 3.28952C21.2668 4.24301 21.8023 5.53618 21.8022 6.88452C21.8021 8.23286 21.2664 9.52594 20.3129 10.4793L18.6904 12.1007L18.7049 12.1151L11.5157 19.3055L11.5012 19.291L11.4867 19.3055L4.29753 12.1151L4.31201 12.1007L2.68953 10.4793C2.21731 10.0072 1.8427 9.44675 1.58713 8.82988C1.33155 8.21302 1.2 7.55184 1.2 6.88413C1.2 6.21641 1.33155 5.55523 1.58713 4.93837C1.8427 4.3215 2.21731 3.76103 2.68953 3.28896Z" stroke="#5A81FA" stroke-width="1.92" stroke-linejoin="round"/>
</svg>
