<svg width="21" height="27" viewBox="0 0 21 27" fill="none" xmlns="http://www.w3.org/2000/svg">
<path d="M17.68 13.912C18.5075 13.912 19.3011 14.2356 19.8862 14.8117C20.4713 15.3879 20.8 16.1692 20.8 16.984V18.008C20.8 22.0446 16.9312 26.2 10.4 26.2C3.8688 26.2 0 22.0446 0 18.008V16.984C0 16.1692 0.328713 15.3879 0.913827 14.8117C1.49894 14.2356 2.29252 13.912 3.12 13.912H17.68ZM17.68 15.96H3.12C2.84417 15.96 2.57965 16.0679 2.38461 16.2599C2.18957 16.4519 2.08 16.7124 2.08 16.984V18.008C2.08 20.953 5.05856 24.152 10.4 24.152C15.7414 24.152 18.72 20.953 18.72 18.008V16.984C18.72 16.7124 18.6104 16.4519 18.4154 16.2599C18.2204 16.0679 17.9558 15.96 17.68 15.96ZM10.4 0.599976C11.917 0.599976 13.3719 1.19335 14.4447 2.24955C15.5174 3.30576 16.12 4.73828 16.12 6.23198C16.12 7.72567 15.5174 9.1582 14.4447 10.2144C13.3719 11.2706 11.917 11.864 10.4 11.864C8.88296 11.864 7.42806 11.2706 6.35535 10.2144C5.28264 9.1582 4.68 7.72567 4.68 6.23198C4.68 4.73828 5.28264 3.30576 6.35535 2.24955C7.42806 1.19335 8.88296 0.599976 10.4 0.599976ZM10.4 2.64798C9.43461 2.64798 8.50876 3.02557 7.82613 3.69771C7.1435 4.36984 6.76 5.28144 6.76 6.23198C6.76 7.18251 7.1435 8.09412 7.82613 8.76625C8.50876 9.43838 9.43461 9.81598 10.4 9.81598C11.3654 9.81598 12.2912 9.43838 12.9739 8.76625C13.6565 8.09412 14.04 7.18251 14.04 6.23198C14.04 5.28144 13.6565 4.36984 12.9739 3.69771C12.2912 3.02557 11.3654 2.64798 10.4 2.64798Z" fill="#5A81FA"/>
</svg>
