<svg width="18" height="16" viewBox="0 0 18 16" fill="none" xmlns="http://www.w3.org/2000/svg">
<path d="M9.53735 8.16182L2.73992 9.19129C2.66177 9.20315 2.58843 9.2335 2.52728 9.27929C2.46613 9.32508 2.41932 9.3847 2.39156 9.45215L0.0478397 15.1598C-0.175974 15.6848 0.427781 16.1851 0.9819 15.9325L17.2264 8.54982C17.3387 8.49867 17.4331 8.42014 17.4991 8.32301C17.5651 8.22587 17.6 8.11397 17.6 7.99982C17.6 7.88566 17.5651 7.77376 17.4991 7.67662C17.4331 7.57949 17.3387 7.50096 17.2264 7.44981L0.9819 0.0671478C0.427781 -0.184683 -0.175974 0.315697 0.0478397 0.839866L2.39247 6.54748C2.42022 6.61493 2.46703 6.67455 2.52818 6.72034C2.58933 6.76613 2.66267 6.79648 2.74082 6.80834L9.53825 7.83781C9.58065 7.84396 9.61925 7.86365 9.64712 7.89334C9.67499 7.92304 9.6903 7.96079 9.6903 7.99982C9.6903 8.03884 9.67499 8.07659 9.64712 8.10629C9.61925 8.13598 9.58065 8.15567 9.53825 8.16182" fill="#5A81FA"/>
</svg>
