<svg width="25" height="21" viewBox="0 0 25 21" fill="none" xmlns="http://www.w3.org/2000/svg">
<path fill-rule="evenodd" clip-rule="evenodd" d="M2.67846 2.69281C3.75349 1.65329 5.21137 1.06932 6.73147 1.06932C8.25158 1.06932 9.70945 1.65329 10.7845 2.69281L12.4642 4.31609L14.1438 2.69281C14.6727 2.16321 15.3052 1.74078 16.0047 1.45018C16.7041 1.15957 17.4563 1.00661 18.2175 1.00021C18.9787 0.993811 19.7336 1.13411 20.4381 1.41291C21.1426 1.69172 21.7827 2.10345 22.3209 2.62408C22.8592 3.14471 23.2849 3.76382 23.5731 4.44527C23.8614 5.12672 24.0064 5.85688 23.9998 6.59314C23.9932 7.32939 23.835 8.057 23.5346 8.73351C23.2341 9.41002 22.7974 10.0219 22.2499 10.5334L12.4642 20L2.67846 10.5334C1.60374 9.49354 1 8.08342 1 6.61309C1 5.14277 1.60374 3.73264 2.67846 2.69281V2.69281Z" stroke="#5A81FA" stroke-width="1.92341" stroke-linejoin="round"/>
</svg>
