<svg width="13" height="13" viewBox="0 0 13 13" fill="none" xmlns="http://www.w3.org/2000/svg">
<path d="M2.15967 3.5C2.55749 3.5 2.93902 3.34196 3.22033 3.06066C3.50163 2.77936 3.65967 2.39782 3.65967 2C3.65967 1.60218 3.50163 1.22064 3.22033 0.93934C2.93902 0.658036 2.55749 0.5 2.15967 0.5C1.76184 0.5 1.38031 0.658036 1.09901 0.93934C0.817704 1.22064 0.659668 1.60218 0.659668 2C0.659668 2.39782 0.817704 2.77936 1.09901 3.06066C1.38031 3.34196 1.76184 3.5 2.15967 3.5ZM12.6597 2C12.6597 2.39782 12.5016 2.77936 12.2203 3.06066C11.939 3.34196 11.5575 3.5 11.1597 3.5C10.7618 3.5 10.3803 3.34196 10.099 3.06066C9.8177 2.77936 9.65967 2.39782 9.65967 2C9.65967 1.60218 9.8177 1.22064 10.099 0.93934C10.3803 0.658036 10.7618 0.5 11.1597 0.5C11.5575 0.5 11.939 0.658036 12.2203 0.93934C12.5016 1.22064 12.6597 1.60218 12.6597 2Z" fill="#5A81FA" stroke="#5A81FA" stroke-width="0.5"/>
<path d="M4.53835 8.62132C3.97574 8.05871 3.65967 7.29565 3.65967 6.5L0.659668 6.5C0.659668 8.0913 1.29181 9.61742 2.41703 10.7426C3.54224 11.8679 5.06837 12.5 6.65967 12.5C8.25097 12.5 9.77709 11.8679 10.9023 10.7426C12.0275 9.61742 12.6597 8.0913 12.6597 6.5L9.65967 6.5C9.65967 7.29565 9.3436 8.05871 8.78099 8.62132C8.21838 9.18393 7.45532 9.5 6.65967 9.5C5.86402 9.5 5.10096 9.18393 4.53835 8.62132Z" fill="#5A81FA"/>
</svg>
