<svg width="20" height="19" viewBox="0 0 20 19" fill="none" xmlns="http://www.w3.org/2000/svg">
<path d="M10.2505 0.89093C15.4763 0.89093 19.7118 4.19216 19.7118 8.26554C19.7118 12.338 15.4763 15.6393 10.2514 15.6393C9.73117 15.6395 9.21143 15.6064 8.69541 15.5401L4.72384 18.1377C4.27245 18.3765 4.11297 18.3503 4.29857 17.7656L5.10226 14.4517C2.5074 13.1363 0.791016 10.8568 0.791016 8.26554C0.791016 4.19306 5.02567 0.89093 10.2514 0.89093M15.5745 8.15292L16.8989 6.86991C16.9754 6.79054 17.018 6.6846 17.0179 6.57442C17.0177 6.46424 16.9748 6.35841 16.8982 6.27923C16.8216 6.20004 16.7172 6.15368 16.6071 6.14992C16.497 6.14615 16.3897 6.18527 16.3079 6.25904L14.5708 7.94029V6.55096C14.5708 6.43817 14.526 6.33 14.4462 6.25025C14.3665 6.17049 14.2583 6.12569 14.1455 6.12569C14.0327 6.12569 13.9245 6.17049 13.8448 6.25025C13.765 6.33 13.7202 6.43817 13.7202 6.55096V8.85479C13.7043 8.92052 13.7043 8.98909 13.7202 9.05481V10.3513C13.7202 10.4641 13.765 10.5723 13.8448 10.652C13.9245 10.7318 14.0327 10.7766 14.1455 10.7766C14.2583 10.7766 14.3665 10.7318 14.4462 10.652C14.526 10.5723 14.5708 10.4641 14.5708 10.3513V9.12329L14.9555 8.75118L16.2421 10.5829C16.2742 10.6286 16.3151 10.6676 16.3622 10.6975C16.4094 10.7275 16.462 10.7479 16.5171 10.7575C16.5721 10.7671 16.6285 10.7658 16.6831 10.7536C16.7376 10.7414 16.7892 10.7186 16.835 10.6865C16.8807 10.6544 16.9197 10.6136 16.9496 10.5664C16.9796 10.5192 16.9999 10.4666 17.0096 10.4115C17.0192 10.3565 17.0179 10.3001 17.0057 10.2455C16.9935 10.191 16.9707 10.1394 16.9386 10.0937L15.5745 8.15292ZM12.9093 9.88643H11.5939V6.56447C11.5889 6.45519 11.5419 6.35205 11.4628 6.27649C11.3837 6.20093 11.2785 6.15877 11.1691 6.15877C11.0597 6.15877 10.9545 6.20093 10.8754 6.27649C10.7963 6.35205 10.7493 6.45519 10.7443 6.56447V10.3117C10.7443 10.546 10.9335 10.737 11.1686 10.737H12.9093C13.0221 10.737 13.1303 10.6922 13.2101 10.6124C13.2898 10.5327 13.3346 10.4245 13.3346 10.3117C13.3346 10.1989 13.2898 10.0907 13.2101 10.011C13.1303 9.93123 13.0221 9.88643 12.9093 9.88643ZM7.63224 8.90344L8.25933 7.36455L8.83416 8.90254L7.63224 8.90344ZM9.90544 9.34223L9.90724 9.32781C9.90703 9.22068 9.86613 9.11762 9.79282 9.03949L8.85038 6.51672C8.81087 6.3965 8.73562 6.2912 8.63467 6.21488C8.53373 6.13857 8.4119 6.09488 8.28546 6.08965C8.1581 6.08909 8.03358 6.12732 7.92848 6.19927C7.82338 6.27121 7.74268 6.37346 7.69711 6.49239L6.19967 10.1639C6.15701 10.2684 6.15759 10.3854 6.20127 10.4894C6.24494 10.5934 6.32815 10.6758 6.43257 10.7185C6.537 10.7611 6.65409 10.7606 6.75809 10.7169C6.86209 10.6732 6.94448 10.59 6.98713 10.4856L7.28626 9.75308H9.15131L9.41981 10.4739C9.43812 10.5277 9.46707 10.5774 9.50492 10.6199C9.54278 10.6624 9.58877 10.6968 9.64019 10.7212C9.6916 10.7456 9.74739 10.7594 9.80424 10.7619C9.8611 10.7643 9.91786 10.7553 9.97117 10.7354C10.0245 10.7155 10.0733 10.6851 10.1146 10.646C10.156 10.6069 10.189 10.5599 10.2119 10.5078C10.2348 10.4557 10.2469 10.3995 10.2477 10.3426C10.2484 10.2857 10.2378 10.2292 10.2163 10.1765L9.90544 9.34223ZM6.91145 6.56898C6.91145 6.45634 6.86677 6.34831 6.78721 6.26858C6.70765 6.18886 6.59971 6.14395 6.48708 6.14371H3.56337C3.45058 6.14371 3.34241 6.18851 3.26266 6.26827C3.1829 6.34802 3.1381 6.45619 3.1381 6.56898C3.1381 6.68176 3.1829 6.78993 3.26266 6.86969C3.34241 6.94944 3.45058 6.99424 3.56337 6.99424H4.60852V10.3603C4.60852 10.4731 4.65332 10.5813 4.73307 10.6611C4.81283 10.7408 4.92099 10.7856 5.03378 10.7856C5.14657 10.7856 5.25474 10.7408 5.33449 10.6611C5.41425 10.5813 5.45905 10.4731 5.45905 10.3603V6.99424H6.48618C6.59897 6.99424 6.70714 6.94944 6.78689 6.86969C6.86664 6.78993 6.91145 6.68176 6.91145 6.56898Z" fill="#3C201F"/>
</svg>
