<svg width="17" height="19" viewBox="0 0 17 19" fill="none" xmlns="http://www.w3.org/2000/svg">
<path opacity="0.6" d="M14.2436 18.5915C13.4928 18.5915 12.8546 18.3287 12.329 17.8031C11.8034 17.2776 11.5407 16.6394 11.5407 15.8885C11.5407 15.7834 11.5482 15.6744 11.5632 15.5615C11.5782 15.4485 11.6007 15.3473 11.6308 15.2578L5.27877 11.5638C5.02348 11.789 4.73817 11.9656 4.42282 12.0936C4.10748 12.2215 3.77711 12.2852 3.43173 12.2846C2.68091 12.2846 2.04271 12.0218 1.51713 11.4962C0.991549 10.9706 0.72876 10.3324 0.72876 9.5816C0.72876 8.83077 0.991549 8.19257 1.51713 7.66699C2.04271 7.14141 2.68091 6.87862 3.43173 6.87862C3.77711 6.87862 4.10748 6.94259 4.42282 7.07053C4.73817 7.19848 5.02348 7.37477 5.27877 7.59942L11.6308 3.90535C11.6007 3.81525 11.5782 3.71404 11.5632 3.60172C11.5482 3.4894 11.5407 3.38038 11.5407 3.27466C11.5407 2.52383 11.8034 1.88563 12.329 1.36005C12.8546 0.834475 13.4928 0.571686 14.2436 0.571686C14.9945 0.571686 15.6327 0.834475 16.1582 1.36005C16.6838 1.88563 16.9466 2.52383 16.9466 3.27466C16.9466 4.02549 16.6838 4.66369 16.1582 5.18927C15.6327 5.71484 14.9945 5.97763 14.2436 5.97763C13.8982 5.97763 13.5679 5.91396 13.2525 5.78662C12.9372 5.65928 12.6519 5.48269 12.3966 5.25684L6.04461 8.9509C6.07464 9.041 6.09717 9.14251 6.11218 9.25544C6.1272 9.36836 6.13471 9.47708 6.13471 9.5816C6.13471 9.68611 6.1272 9.79513 6.11218 9.90866C6.09717 10.0222 6.07464 10.1234 6.04461 10.2123L12.3966 13.9064C12.6519 13.6811 12.9372 13.5048 13.2525 13.3775C13.5679 13.2501 13.8982 13.1862 14.2436 13.1856C14.9945 13.1856 15.6327 13.4483 16.1582 13.9739C16.6838 14.4995 16.9466 15.1377 16.9466 15.8885C16.9466 16.6394 16.6838 17.2776 16.1582 17.8031C15.6327 18.3287 14.9945 18.5915 14.2436 18.5915Z" fill="black"/>
</svg>
