<svg width="14" height="14" viewBox="0 0 14 14" fill="none" xmlns="http://www.w3.org/2000/svg">
<path d="M13.2146 6.89527L10.4896 9.24659L11.3198 12.763C11.3656 12.9539 11.3539 13.1541 11.2859 13.3382C11.218 13.5224 11.0971 13.6824 10.9383 13.7978C10.7796 13.9133 10.5901 13.9791 10.394 13.987C10.1978 13.9949 10.0038 13.9444 9.83626 13.8421L6.77827 11.96L3.71845 13.8421C3.55098 13.9439 3.35713 13.9938 3.16132 13.9856C2.96551 13.9775 2.77649 13.9116 2.61806 13.7962C2.45964 13.6808 2.33889 13.5212 2.27103 13.3373C2.20316 13.1534 2.19121 12.9536 2.23669 12.763L3.06992 9.24659L0.344971 6.89527C0.196793 6.7672 0.0896281 6.59832 0.0368595 6.40971C-0.015909 6.2211 -0.0119426 6.02113 0.0482635 5.83476C0.10847 5.64839 0.222247 5.48389 0.375386 5.3618C0.528526 5.23971 0.714241 5.16544 0.909337 5.14827L4.48204 4.86003L5.86026 1.5247C5.93486 1.34293 6.06183 1.18744 6.22502 1.07801C6.38822 0.968584 6.58027 0.910156 6.77675 0.910156C6.97324 0.910156 7.16529 0.968584 7.32848 1.07801C7.49167 1.18744 7.61864 1.34293 7.69324 1.5247L9.07085 4.86003L12.6436 5.14827C12.839 5.16481 13.0253 5.23866 13.179 5.36058C13.3327 5.4825 13.447 5.64707 13.5076 5.83366C13.5682 6.02025 13.5723 6.22058 13.5196 6.40953C13.4668 6.59848 13.3594 6.76766 13.211 6.89587L13.2146 6.89527Z" fill="#E8E8E8"/>
</svg>
