<svg width="14" height="14" viewBox="0 0 14 14" fill="none" xmlns="http://www.w3.org/2000/svg">
<path fill-rule="evenodd" clip-rule="evenodd" d="M13.5563 5.22617C13.5557 5.12392 13.5395 5.0218 13.5076 4.9235C13.447 4.73691 13.3327 4.57234 13.179 4.45042C13.0253 4.3285 12.839 4.25465 12.6436 4.23812L9.07085 3.94988L7.69324 0.614543C7.61864 0.432769 7.49167 0.277284 7.32848 0.167856C7.16529 0.0584282 6.97324 0 6.77675 0C6.58027 0 6.38822 0.0584282 6.22502 0.167856C6.06183 0.277284 5.93486 0.432769 5.86026 0.614543L4.48204 3.94988L0.909337 4.23812C0.714241 4.25529 0.528526 4.32956 0.375386 4.45164C0.222247 4.57373 0.10847 4.73823 0.0482635 4.9246C-0.0119426 5.11097 -0.015909 5.31094 0.0368595 5.49955C0.0896281 5.68816 0.196793 5.85704 0.344971 5.98511L3.06992 8.33644L2.23669 11.8528C2.19121 12.0435 2.20316 12.2433 2.27103 12.4271C2.33889 12.611 2.45964 12.7707 2.61806 12.886C2.77649 13.0014 2.96551 13.0673 3.16132 13.0755C3.35713 13.0837 3.55098 13.0337 3.71845 12.9319L6.77827 11.0499L9.83626 12.9319C10.0038 13.0343 10.1978 13.0847 10.394 13.0768C10.5901 13.069 10.7796 13.0031 10.9383 12.8877C11.0971 12.7722 11.218 12.6123 11.2859 12.4281C11.3539 12.2439 11.3656 12.0437 11.3198 11.8528L10.4896 8.33644L13.2146 5.98511L13.211 5.98572C13.3594 5.8575 13.4668 5.68832 13.5196 5.49937C13.5436 5.41329 13.5558 5.32485 13.5563 5.23642V5.22617Z" fill="#567DFA"/>
</svg>
